<svg version="1.2" xmlns="http://www.w3.org/2000/svg" viewBox="0 0 1000 1000" width="1000" height="1000">
	<title>6310506-ai</title>
	<style>
		.s0 { fill: #ebebeb } 
		.s1 { fill: #f0f0f0 } 
		.s2 { fill: #f5f5f5 } 
		.s3 { fill: #e6e6e6 } 
		.s4 { fill: #e0e0e0 } 
		.s5 { fill: #407bff } 
		.s6 { opacity: .9;fill: #ffffff } 
		.s7 { opacity: .3;fill: #ffffff } 
		.s8 { opacity: .4;fill: #ffffff } 
		.s9 { fill: #ffffff } 
		.s10 { opacity: .1;fill: #000000 } 
		.s11 { fill: #263238 } 
		.s12 { opacity: .2;fill: #000000 } 
		.s13 { opacity: .7;fill: #ffffff } 
		.s14 { opacity: .5;fill: #ffffff } 
		.s15 { opacity: .2;fill: #ffffff } 
		.s16 { fill: #b55b52 } 
		.s17 { fill: #a02724 } 
		.s18 { opacity: .4;fill: #000000 } 
		.s19 { opacity: .6;fill: #fafafa } 
		.s20 { opacity: .6;fill: #ffffff } 
		.s21 { opacity: .6;fill: #000000 } 
	</style>
	<g id="Background Complete">
		<path id="&lt;Path&gt;" class="s0" d="m833.6 797h66.2v0.5h-66.2z"/>
		<path id="&lt;Path&gt;" class="s0" d="m645.1 802.4h17.3v0.5h-17.3z"/>
		<path id="&lt;Path&gt;" class="s0" d="m793.2 778.4h38.4v0.5h-38.4z"/>
		<path id="&lt;Path&gt;" class="s0" d="m104.9 781.8h86.4v0.5h-86.4z"/>
		<path id="&lt;Path&gt;" class="s0" d="m209.1 781.8h12.7v0.5h-12.7z"/>
		<path id="&lt;Path&gt;" class="s0" d="m262.9 790.2h187.4v0.5h-187.4z"/>
		<g id="&lt;Group&gt;">
			<path id="&lt;Compound Path&gt;" fill-rule="evenodd" class="s0" d="m476.8 675.6h-386.2c-6.3 0-11.4-5.1-11.4-11.4v-542.9c0-6.3 5.1-11.4 11.4-11.4h386.2c6.3 0 11.4 5.1 11.4 11.4v542.9c0 6.3-5.1 11.4-11.4 11.4zm-386.2-565.2c-6 0-10.9 4.9-10.9 10.9v542.9c0 6 4.9 10.9 10.9 10.9h386.2c6 0 10.9-4.9 10.9-10.9v-542.9c0-6-4.9-10.9-10.9-10.9z"/>
			<path id="&lt;Compound Path&gt;" fill-rule="evenodd" class="s0" d="m909.4 675.6h-386.2c-6.3 0-11.4-5.1-11.4-11.4v-542.9c0-6.3 5.1-11.4 11.4-11.4h386.2c6.3 0 11.4 5.1 11.4 11.4v542.9c0 6.3-5.1 11.4-11.4 11.4zm-386.2-565.2c-6 0-10.9 4.9-10.9 10.9v542.9c0 6 4.9 10.9 10.9 10.9h386.2c6 0 10.9-4.9 10.9-10.9v-542.9c0-6-4.9-10.9-10.9-10.9z"/>
		</g>
		<path id="&lt;Path&gt;" class="s0" d="m1000 765.3h-1000v-0.5h1000z"/>
		<g id="&lt;Group&gt;">
			<path id="&lt;Path&gt;" class="s1" d="m238.7 629.5c-1.7-19.3-21.4-26.5-44.8-24.5-23.4 2-41.5 12.6-39.9 31.9z"/>
			<path id="&lt;Path&gt;" class="s1" d="m193.1 596.2c10.9-1 14.3-10.1 13.4-21-1-10.8-6-19.2-16.8-18.3-10.9 1-14.3 10.1-13.4 21 1 10.8 6 19.2 16.8 18.3z"/>
		</g>
		<g id="&lt;Group&gt;">
			<g id="&lt;Group&gt;">
				<path id="&lt;Path&gt;" class="s2" d="m680.2 217.9c0.5 6-3.9 11.3-9.9 11.8-6 0.5-11.2-3.9-11.8-9.9-0.5-5.9 3.9-11.2 9.9-11.7 6-0.6 11.3 3.9 11.8 9.8z"/>
				<path id="&lt;Path&gt;" class="s2" d="m740.3 212.7c0.6 6-3.9 11.2-9.8 11.8-6 0.5-11.3-3.9-11.8-9.9-0.5-6 3.9-11.3 9.9-11.8 6-0.5 11.2 3.9 11.7 9.9z"/>
				<path id="&lt;Path&gt;" class="s2" d="m800.5 207.4c0.5 6-3.9 11.3-9.9 11.8-6 0.5-11.2-3.9-11.8-9.9-0.5-6 3.9-11.2 9.9-11.8 6-0.5 11.3 3.9 11.8 9.9z"/>
				<path id="&lt;Path&gt;" class="s2" d="m685.6 279.2c0.5 6-3.9 11.3-9.9 11.8-6 0.5-11.3-3.9-11.8-9.9-0.5-5.9 3.9-11.2 9.9-11.7 6-0.6 11.2 3.9 11.8 9.8z"/>
				<path id="&lt;Path&gt;" class="s2" d="m745.7 274c0.5 6-3.9 11.2-9.9 11.8-6 0.5-11.2-3.9-11.7-9.9-0.6-6 3.9-11.3 9.8-11.8 6-0.5 11.3 3.9 11.8 9.9z"/>
				<path id="&lt;Path&gt;" class="s2" d="m805.9 268.7c0.5 6-3.9 11.3-9.9 11.8-6 0.5-11.3-3.9-11.8-9.9-0.5-6 3.9-11.2 9.9-11.8 6-0.5 11.2 3.9 11.8 9.9z"/>
				<path id="&lt;Path&gt;" class="s2" d="m690.9 340.6c0.6 5.9-3.9 11.2-9.9 11.7-5.9 0.6-11.2-3.9-11.7-9.9-0.6-5.9 3.9-11.2 9.9-11.7 5.9-0.6 11.2 3.9 11.7 9.9z"/>
				<path id="&lt;Path&gt;" class="s2" d="m751.1 335.3c0.5 6-3.9 11.2-9.9 11.8-6 0.5-11.3-3.9-11.8-9.9-0.5-6 3.9-11.3 9.9-11.8 6-0.5 11.3 3.9 11.8 9.9z"/>
				<path id="&lt;Path&gt;" class="s2" d="m811.2 330c0.5 6-3.9 11.3-9.9 11.8-5.9 0.5-11.2-3.9-11.7-9.9-0.6-6 3.9-11.2 9.8-11.8 6-0.5 11.3 3.9 11.8 9.9z"/>
			</g>
			<g id="&lt;Group&gt;">
				<path id="&lt;Path&gt;" class="s3" d="m798.2 333.6l-123.5 10.8 109.5-133.2-112.2 9.9c-1.4 0.1-2.5-0.9-2.6-2.2-0.1-1.3 0.8-2.5 2.1-2.6l123.6-10.8-109.6 133.1 112.3-9.8c1.3-0.1 2.5 0.9 2.6 2.2 0.1 1.3-0.9 2.4-2.2 2.6z"/>
			</g>
		</g>
		<g id="&lt;Group&gt;">
			<path id="&lt;Path&gt;" class="s1" d="m800.1 571.2c-0.4-1.2-1.4-2-2.7-2.1-5.7-0.4-10.4-2.5-14.2-6.3-5-5-7.9-12.5-8.4-21.5 0-1.7-1.4-3-3.1-3-1.9 0-3.3 1.6-3.2 3.4 0.5 10.5 4.1 19.5 10.1 25.6 4.8 4.7 10.8 7.5 17.8 8.1q0.2 0 0.4 0.1c2.3 0.1 4.1-2.1 3.3-4.3z"/>
			<g id="&lt;Group&gt;">
				<g id="&lt;Group&gt;">
					<path id="&lt;Path&gt;" class="s1" d="m793.7 609.6c-26.5-2.3-45.6-20.4-51.6-48.6-0.4-1.8 0.7-3.5 2.5-3.9 1.7-0.3 3.3 0.8 3.7 2.5 5.4 25.3 22.4 41.6 46 43.6 25.8 2.3 53.6-14.7 58.5-57.6 0.2-1.7 1.8-3 3.5-2.8 1.8 0.1 3.1 1.7 2.9 3.5-4.8 40.4-31.3 66.3-65.5 63.3z"/>
				</g>
				<g id="&lt;Group&gt;">
					<path id="&lt;Path&gt;" class="s1" d="m743.7 532.9c-1.8-0.1-3.1-1.7-2.9-3.5 4.8-40.4 31.3-66.3 65.5-63.3 29.9 2.6 50.1 25 53.2 58.8 0.2 1.7-1.2 3.3-3 3.4-1.7 0.1-3.2-1.2-3.4-3-2.9-30.4-20.8-50.5-47.4-52.8-25.8-2.3-53.6 14.7-58.5 57.6-0.2 1.7-1.7 3-3.5 2.8z"/>
				</g>
				<g id="&lt;Group&gt;">
					<path id="&lt;Path&gt;" class="s1" d="m795 592.5c-4.9-0.5-9.5-1.6-13.8-3.5-1.7-0.7-2.4-2.8-1.5-4.5 0.8-1.4 2.5-2 4-1.4 4 1.8 8.4 2.8 13.2 3.1 19.6 1.1 40.3-12.8 42.3-46.3 1.2-20.7-5.8-37.3-19-45.3-1.5-0.9-2-2.7-1.3-4.2 0.9-1.6 3-2.3 4.6-1.3 15.3 9.2 23.5 28.1 22.1 51.2-2 32.3-22.1 53.8-49.1 52.3q-0.7-0.1-1.5-0.1z"/>
				</g>
				<g id="&lt;Group&gt;">
					<path id="&lt;Path&gt;" class="s1" d="m766.5 572.5c-1.5 1.1-3.6 0.6-4.6-1-5.6-9.9-8.3-22.5-7.5-36.1 1.9-30.9 20.4-51.9 45.6-52.3 1.9-0.1 3.4 1.5 3.3 3.4-0.1 1.6-1.5 2.9-3.1 3-18.7 0.3-37.5 14.4-39.4 46.3-0.7 12.4 1.6 23.8 6.7 32.5 0.8 1.5 0.4 3.3-1 4.2z"/>
				</g>
				<g id="&lt;Group&gt;">
					<path id="&lt;Path&gt;" class="s1" d="m810.3 569.9c-0.7-1.5-0.1-3.2 1.3-4 8.4-5.1 13.5-15.7 13.6-28.5 0.1-10.3-2.9-19-8.4-24.5-4.2-4.2-9.6-6.4-16.2-6.3-9.8 0-17.8 5.4-22.3 14.9-0.7 1.5-2.4 2.2-3.9 1.6-1.8-0.6-2.6-2.7-1.8-4.4 5.4-11.6 15.7-18.5 28-18.5 8.2-0.1 15.4 2.8 20.8 8.2 6.7 6.7 10.3 17 10.2 29-0.1 15.1-6.4 27.8-16.8 34-1.6 1-3.8 0.2-4.5-1.5z"/>
				</g>
				<g id="&lt;Group&gt;">
					<path id="&lt;Path&gt;" class="s1" d="m787.2 546.4c-1.8 0.7-3.8-0.3-4.3-2.2q-0.3-1.3-0.5-2.7c-1.8-12 4.6-22.4 14.9-24.3 5.4-0.9 10.1 0.3 13.8 3.6 1.5 1.3 1.3 3.7-0.3 4.8l-0.2 0.2c-1.2 0.8-2.8 0.6-3.9-0.3q-3.3-2.8-8.2-2c-7.9 1.5-10.9 9.7-9.8 17q0.2 1.1 0.4 2.1c0.4 1.6-0.4 3.2-1.9 3.8z"/>
				</g>
				<g id="&lt;Group&gt;">
					<path id="&lt;Path&gt;" class="s1" d="m797.8 558.7q0 0 0 0c-2.2-0.2-3.5-2.7-2.3-4.5l0.3-0.5c0.6-0.9 1.6-1.4 2.7-1.4q1.5 0.1 3-0.1c6.9-1.3 10.1-7.7 10-14.2 0-1.6 1.1-3 2.8-3.3 1.8-0.3 3.6 1.1 3.6 3 0.2 10.5-5.9 19.1-15.2 20.8q-2.6 0.4-4.9 0.2z"/>
				</g>
				<g id="&lt;Group&gt;">
					<path id="&lt;Path&gt;" class="s1" d="m799.2 546.9c-3.4-0.3-5.9-2.6-6.9-5.9-0.5-1.9 1.1-3.7 3.1-3.6l0.7 0.1c1.1 0.1 2.1 0.9 2.5 2 0.1 0.5 0.5 0.9 1.2 1 1.5 0.1 1.8-2.1 1.8-2.5 0-0.3 0.1-1.6-0.4-2.3-0.5-0.7-0.9-1.5-0.8-2.4 0.2-2.8 3.8-4 5.7-1.7 1.4 1.7 2.1 4.2 1.9 6.9-0.5 5.3-4.2 8.8-8.8 8.4z"/>
				</g>
				<g id="&lt;Group&gt;">
					<path id="&lt;Path&gt;" class="s1" d="m739.1 475.3c-1.8-0.1-3.1-1.7-2.9-3.5l2.4-27.7 27.7 2.4c1.8 0.2 3.1 1.7 2.9 3.5-0.1 1.8-1.7 3.1-3.4 2.9l-21.4-1.9-1.9 21.4c-0.1 1.8-1.7 3.1-3.4 2.9z"/>
				</g>
				<g id="&lt;Group&gt;">
					<path id="&lt;Path&gt;" class="s1" d="m870.9 486.8c-1.7-0.1-3-1.7-2.9-3.4l1.9-21.4-21.4-1.8c-1.7-0.2-3-1.8-2.9-3.5 0.2-1.8 1.7-3.1 3.5-2.9l27.7 2.4-2.4 27.7c-0.2 1.8-1.7 3.1-3.5 2.9z"/>
				</g>
				<g id="&lt;Group&gt;">
					<path id="&lt;Path&gt;" class="s1" d="m861.1 635.9l-27.7-2.4c-1.8-0.1-3.1-1.7-2.9-3.5 0.1-1.7 1.7-3 3.4-2.9l21.4 1.9 1.8-21.3c0.2-1.8 1.7-3.1 3.5-3 1.8 0.2 3.1 1.7 2.9 3.5z"/>
				</g>
				<g id="&lt;Group&gt;">
					<path id="&lt;Path&gt;" class="s1" d="m750.6 626.3l-27.7-2.5 2.4-27.7c0.1-1.7 1.7-3 3.5-2.9 1.7 0.2 3 1.7 2.9 3.5l-1.9 21.3 21.3 1.9c1.8 0.1 3.1 1.7 3 3.5-0.2 1.7-1.7 3-3.5 2.9z"/>
				</g>
			</g>
		</g>
		<g id="&lt;Group&gt;">
			<path id="&lt;Path&gt;" class="s4" d="m149.5 566.3c-1.1 0-2.1-0.8-2.2-1.8l-1.5-17.1 17.1-1.5c1.1-0.1 2 0.7 2.1 1.8 0.1 1.1-0.7 2-1.8 2.1l-13.1 1.2 1.1 13.1c0.1 1.1-0.7 2.1-1.7 2.2z"/>
		</g>
		<g id="&lt;Group&gt;">
			<path id="&lt;Path&gt;" class="s4" d="m230.5 559.2c-1.1 0.1-2-0.7-2.1-1.8l-1.1-13.2-13.2 1.2c-1.1 0.1-2-0.7-2.1-1.8-0.1-1.1 0.7-2 1.8-2.1l17-1.5 1.5 17c0.1 1.1-0.7 2.1-1.8 2.2z"/>
		</g>
		<g id="&lt;Group&gt;">
			<path id="&lt;Path&gt;" class="s4" d="m238.9 632.6l-17 1.5c-1.1 0.1-2.1-0.7-2.2-1.8 0-1.1 0.8-2.1 1.8-2.2l13.2-1.1-1.2-13.1c-0.1-1.1 0.7-2.1 1.8-2.2 1.1-0.1 2 0.7 2.1 1.8z"/>
		</g>
		<g id="&lt;Group&gt;">
			<path id="&lt;Path&gt;" class="s4" d="m171 638.5l-17.1 1.5-1.5-17c0-1.1 0.8-2.1 1.8-2.2 1.1-0.1 2.1 0.7 2.2 1.8l1.1 13.2 13.1-1.2c1.1-0.1 2.1 0.7 2.2 1.8 0.1 1.1-0.7 2-1.8 2.1z"/>
		</g>
		<path id="&lt;Compound Path&gt;" fill-rule="evenodd" class="s0" d="m245.8 295.8l4.6 53.3c0.8 8.4-5.5 15.9-13.9 16.6l-73.1 6.4c-8.4 0.7-15.8-5.5-16.6-13.9l-4.6-53.3c-0.7-7.9 4.7-14.9 12.3-16.4l-1.3-15.3c-1.9-21.1 13.7-39.7 34.8-41.5 21-1.9 39.6 13.7 41.4 34.8l0.8 8.9-9.4 0.8-0.8-8.9c-1.4-15.8-15.4-27.6-31.2-26.2-15.9 1.4-27.6 15.4-26.2 31.2l1.3 15.3 65.3-5.7c8.4-0.7 15.8 5.5 16.6 13.9zm-41.3 19.5c-0.4-5.1-4.9-8.8-10-8.4-5 0.4-8.8 4.9-8.3 10 0.2 3 1.9 5.5 4.3 7l1.6 18.4c0.3 3 3 5.2 6 4.9 3-0.2 5.2-2.9 4.9-5.9l-1.6-18.3c2.1-1.9 3.4-4.7 3.1-7.7z"/>
		<g id="&lt;Group&gt;">
			<path id="&lt;Compound Path&gt;" class="s1" d="m340.9 312.8l-6.6-10.8c-3.6 0.5-6.5 0.5-10.1 0l-6.6 10.8-1.2-0.4c-4.3-1.1-8.4-2.8-12.2-5l-1.2-0.7 2.8-11.6c0.3-1 1.2-1.6 2.2-1.3 0.9 0.2 1.5 1.1 1.3 2.1l-2.2 9.1q4.3 2.3 8.9 3.7l6.4-10.5 1.2 0.2c3.8 0.6 7.6 0.6 11.3 0l1.2-0.2 6.4 10.5q4.7-1.4 8.9-3.7l-2.8-12 0.9-0.7q4-2.8 7-6.6c0.6-0.7 1.6-0.9 2.4-0.4 0.8 0.6 1 1.8 0.4 2.5q-3 3.8-6.8 6.7l3 12.2-1.2 0.7c-3.8 2.2-7.9 3.9-12.1 5zm-40.5-23.4q-0.8-1-1.6-2l-12.2 2.9-0.7-1.1c-2.2-3.8-3.9-7.9-5.1-12.2l-0.3-1.2 10.8-6.6c-0.3-1.8-0.4-3.5-0.4-5.1q0-2.3 0.4-5l-10.8-6.6 0.3-1.3c1.2-4.2 2.9-8.3 5.1-12.2l0.7-1.1 12.2 2.9q3.1-4 7.1-7.1l-2.2-9.3c-0.2-0.9 0.4-1.9 1.3-2.1 1-0.2 1.9 0.4 2.1 1.3l2.8 11.6-1 0.7c-3 2.2-5.7 4.9-7.9 7.9l-0.7 1-12-2.9q-2.3 4.3-3.7 9l10.5 6.4-0.2 1.2c-0.3 2-0.5 3.9-0.5 5.6 0 1.8 0.2 3.6 0.5 5.7l0.2 1.1-10.5 6.5q1.4 4.6 3.7 8.9l12-2.9 0.7 1q0.9 1.4 2 2.6c0.7 0.7 0.6 1.8 0 2.4l-0.1 0.1c-0.7 0.7-1.8 0.6-2.5-0.1zm71.5 0.9l-4.5-1c-1-0.3-1.6-1.2-1.3-2.2 0.2-0.9 1.1-1.5 2.1-1.3l1.9 0.5q2.4-4.3 3.8-8.9l-10.6-6.5 0.2-1.1c0.4-2.1 0.5-3.9 0.5-5.7 0-1.7-0.1-3.6-0.5-5.6l-0.2-1.2 10.6-6.4q-1.4-4.7-3.8-9l-11.9 2.9-0.7-1c-2.2-3-4.9-5.7-8-7.9l-1-0.7 2.9-12q-4.3-2.3-8.9-3.7l-6.5 10.5-1.1-0.2c-3.8-0.6-7.6-0.6-11.3 0l-1.2 0.2-6.4-10.5q-0.6 0.2-1.2 0.4c-0.9 0.3-1.9-0.2-2.2-1.1-0.3-0.9 0.1-2 1.1-2.3q1.3-0.4 2.6-0.8l1.3-0.3 6.6 10.8c3.6-0.5 6.5-0.5 10.1 0l6.6-10.8 1.2 0.3c4.3 1.2 8.4 2.9 12.2 5.1l1.1 0.7-2.9 12.2q4 3.1 7.1 7.1l12.3-2.9 0.6 1.1c2.3 3.9 4 8 5.1 12.2l0.3 1.3-10.7 6.6q0.4 2.7 0.4 5c0 1.6-0.2 3.3-0.4 5.1l10.7 6.6-0.3 1.2c-1.1 4.3-2.8 8.4-5.1 12.2zm-43.1-9.1c-9-0.2-16.4-7.7-16.7-16.6-0.2-9 6.5-16.5 15.2-17.5 1-0.2 2 0.7 2 1.7 0 0.9-0.7 1.7-1.6 1.8-7.6 0.8-13.4 8.1-11.8 16.2 1.1 5.3 5.3 9.6 10.6 10.7 8.8 1.7 16.4-5 16.4-13.4 0-2.8-0.9-5.5-2.5-7.8-0.5-0.7-0.3-1.7 0.3-2.3 0.8-0.7 2-0.6 2.7 0.3 1.9 2.9 3 6.3 3 9.8 0 9.6-7.9 17.4-17.6 17.1z"/>
		</g>
		<g id="&lt;Group&gt;">
			<path id="&lt;Compound Path&gt;" class="s3" d="m216.6 459.2l-4.2-7c-2.3 0.4-4.2 0.4-6.5 0l-4.3 7-0.8-0.2c-2.8-0.8-5.4-1.9-7.9-3.3l-0.7-0.4 1.8-7.6c0.1-0.6 0.7-1 1.3-0.8 0.7 0.1 1 0.7 0.9 1.4l-1.4 5.8q2.7 1.6 5.8 2.4l4.1-6.7 0.8 0.1c2.4 0.4 4.8 0.4 7.3 0l0.7-0.1 4.2 6.7q3-0.9 5.7-2.4l-1.8-7.7 0.6-0.4q2.6-1.9 4.5-4.3c0.4-0.5 1.1-0.6 1.6-0.2 0.5 0.3 0.6 1.1 0.2 1.6q-1.9 2.4-4.3 4.3l1.9 7.9-0.8 0.4c-2.5 1.4-5.1 2.5-7.9 3.3zm-26.1-15.2q-0.5-0.6-1-1.3l-7.9 1.9-0.5-0.7c-1.4-2.5-2.5-5.1-3.2-7.9l-0.2-0.8 6.9-4.3q-0.2-1.7-0.2-3.2 0-1.5 0.2-3.3l-6.9-4.2 0.2-0.8c0.7-2.8 1.8-5.4 3.2-7.9l0.5-0.7 7.9 1.8q2-2.6 4.6-4.6l-1.5-5.9c-0.1-0.7 0.3-1.3 0.9-1.4 0.6-0.2 1.2 0.2 1.4 0.8l1.7 7.5-0.6 0.4c-2 1.5-3.7 3.2-5.1 5.2l-0.5 0.6-7.7-1.8q-1.5 2.7-2.4 5.7l6.8 4.2-0.1 0.7c-0.3 1.4-0.4 2.6-0.4 3.7 0 1.1 0.1 2.3 0.4 3.6l0.1 0.8-6.8 4.2q0.9 3 2.4 5.7l7.7-1.8 0.5 0.6q0.6 0.9 1.3 1.7c0.4 0.4 0.4 1.1 0 1.5l-0.1 0.1c-0.4 0.4-1.2 0.4-1.6-0.1zm46.2 0.6l-2.9-0.7c-0.6-0.1-1-0.7-0.9-1.3 0.2-0.6 0.8-1 1.4-0.9l1.3 0.3q1.5-2.7 2.4-5.7l-6.8-4.2 0.1-0.8c0.2-1.3 0.3-2.5 0.3-3.6 0-1.1-0.1-2.3-0.3-3.7l-0.1-0.7 6.8-4.2q-0.9-3-2.4-5.7l-7.8 1.8-0.4-0.6c-1.4-2-3.2-3.7-5.2-5.2l-0.6-0.4 1.9-7.7q-2.8-1.6-5.8-2.4l-4.2 6.7-0.7-0.1c-2.4-0.4-4.9-0.4-7.3 0l-0.8 0.1-4.1-6.7q-0.4 0.1-0.8 0.2c-0.6 0.2-1.2-0.1-1.4-0.7-0.2-0.6 0.1-1.3 0.7-1.5q0.8-0.2 1.7-0.5l0.8-0.2 4.3 7c2.3-0.4 4.2-0.4 6.5 0l4.2-7 0.9 0.2c2.7 0.8 5.4 1.9 7.8 3.3l0.8 0.4-1.9 7.9q2.6 2 4.6 4.6l7.9-1.8 0.4 0.7c1.5 2.5 2.6 5.1 3.3 7.9l0.2 0.8-6.9 4.2q0.2 1.8 0.2 3.3 0 1.5-0.2 3.2l6.9 4.3-0.2 0.8c-0.7 2.8-1.8 5.4-3.3 7.9zm-27.9-5.9c-5.7-0.1-10.6-4.9-10.7-10.7-0.2-5.8 4.2-10.7 9.8-11.3 0.7-0.1 1.3 0.4 1.3 1.1 0 0.6-0.5 1-1 1.1-5 0.6-8.7 5.3-7.7 10.5 0.7 3.5 3.5 6.2 6.9 6.9 5.6 1.1 10.6-3.2 10.6-8.6 0-1.9-0.6-3.6-1.6-5.1-0.4-0.5-0.3-1.1 0.2-1.5 0.5-0.4 1.3-0.3 1.6 0.2 1.3 1.9 2 4.1 2 6.4 0 6.2-5.1 11.2-11.4 11z"/>
		</g>
	</g>
	<g id="Background Simple">
		<g id="&lt;Group&gt;">
			<path id="&lt;Path&gt;" class="s5" d="m153.3 413.3c22.6-102.2 124-178.6 198.6-178.9 84-0.3 155.6 64 212 69.7 49.7 5 111.4-68.2 200-49.7 72 15 112 122.6 100 190.9-22.3 126.7-80 202.4-160.7 217-35.3 6.4-52-4.7-69.3-1.5-77.3 14.5-129.5 111.3-296 119.9-128 6.7-233.4-145.9-184.6-367.4z"/>
			<path id="&lt;Path&gt;" class="s6" d="m153.3 413.3c22.6-102.2 124-178.6 198.6-178.9 84-0.3 155.6 64 212 69.7 49.7 5 111.4-68.2 200-49.7 72 15 112 122.6 100 190.9-22.3 126.7-80 202.4-160.7 217-35.3 6.4-52-4.7-69.3-1.5-77.3 14.5-129.5 111.3-296 119.9-128 6.7-233.4-145.9-184.6-367.4z"/>
		</g>
	</g>
	<g id="Shadow">
		<path id="&lt;Path&gt; 359 " class="s2" d="m887.8 831.4c0 12.5-173.6 22.6-387.8 22.6-214.2 0-387.8-10.1-387.8-22.6 0-12.5 173.6-22.7 387.8-22.7 214.2 0 387.8 10.2 387.8 22.7z"/>
	</g>
	<g id="Device">
		<g id="&lt;Group&gt;">
			<path id="&lt;Path&gt;" class="s5" d="m726.9 291.7h-65.1l-46.1 526.5h65.1c18.6 0 34.9-15.1 36.6-33.6l40.1-459.4c1.7-18.5-12.1-33.5-30.6-33.5z"/>
			<path id="&lt;Path&gt;" class="s5" d="m713.6 291.7h-220.4c-18.5 0-34.9 15-36.5 33.5l-40.2 459.4c-1.6 18.5 12.1 33.6 30.7 33.6h220.3c18.6 0 35-15.1 36.6-33.6l40.2-459.4c1.6-18.5-12.2-33.5-30.7-33.5z"/>
			<path id="&lt;Path&gt;" class="s7" d="m713.6 291.7h-220.4c-18.5 0-34.9 15-36.5 33.5l-40.2 459.4c-1.6 18.5 12.1 33.6 30.7 33.6h220.3c18.6 0 35-15.1 36.6-33.6l40.2-459.4c1.6-18.5-12.2-33.5-30.7-33.5z"/>
			<path id="&lt;Path&gt;" class="s8" d="m712.7 302.4h-58.1c-3.5 0-6.7 2.3-8 5.5-4.7 12.2-16.5 20.5-29.2 20.5h-34.4c-12.7 0-23.1-8.3-25.7-20.5-0.7-3.2-3.5-5.5-6.9-5.5h-58.1c-12.6 0-23.7 10.2-24.8 22.8l-40.2 459.4c-1.1 12.6 8.2 22.8 20.8 22.8h220.4c12.6 0 23.7-10.2 24.8-22.8l40.2-459.4c1.1-12.6-8.2-22.8-20.8-22.8z"/>
			<path id="&lt;Path&gt;" class="s9" d="m657.8 551.9h-154.3c-4.6 0-7.9-3.7-7.5-8.3l0.7-8.8c0.4-4.6 4.5-8.3 9-8.3h154.3c4.6 0 7.9 3.7 7.5 8.3l-0.7 8.8c-0.4 4.6-4.5 8.3-9 8.3z"/>
			<path id="&lt;Path&gt;" class="s9" d="m654.4 590h-154.2c-4.6 0-8-3.7-7.6-8.3l0.8-8.8c0.4-4.6 4.4-8.3 9-8.3h154.3c4.5 0 7.9 3.7 7.5 8.3l-0.8 8.8c-0.4 4.6-4.4 8.3-9 8.3z"/>
			<path id="&lt;Path&gt;" class="s10" d="m610.9 311c-0.4 5.1-4.9 9.2-10 9.2-5.1 0-8.8-4.1-8.4-9.2 0.5-5.1 5-9.2 10-9.2 5.1 0 8.8 4.1 8.4 9.2z"/>
			<path id="&lt;Path&gt;" class="s10" d="m606.7 311c-0.2 2.8-2.7 5-5.4 5-2.8 0-4.8-2.2-4.6-5 0.2-2.8 2.7-5 5.5-5 2.7 0 4.8 2.2 4.5 5z"/>
			<g id="&lt;Group&gt;">
				<g id="&lt;Group&gt;" style="opacity: .8">
					<path id="&lt;Path&gt;" class="s9" d="m685.5 326.3c-1.4 0-2.5-1.2-2.4-2.7l0.4-4.9c0.1-1.5 1.5-2.7 2.9-2.7 1.5 0 2.6 1.2 2.5 2.7l-0.4 4.9c-0.2 1.5-1.5 2.7-3 2.7z"/>
					<path id="&lt;Path&gt;" class="s9" d="m707.1 326.3c-1.5 0-2.6-1.2-2.5-2.7l1-11.5c0.1-1.5 1.5-2.7 2.9-2.7 1.5 0 2.6 1.2 2.5 2.7l-1 11.5c-0.1 1.5-1.5 2.7-2.9 2.7z"/>
					<path id="&lt;Path&gt;" class="s9" d="m696.3 326.3c-1.5 0-2.6-1.2-2.5-2.7l0.8-8.2c0.1-1.5 1.4-2.7 2.9-2.7 1.5 0 2.6 1.2 2.4 2.7l-0.7 8.2c-0.1 1.5-1.4 2.7-2.9 2.7z"/>
				</g>
				<g id="&lt;Group&gt;" style="opacity: .8">
					<path id="&lt;Path&gt;" class="s9" d="m501.3 326.3h-13.5c-0.9 0-1.5-0.6-1.4-1.5l0.6-7.2c0.1-0.9 0.8-1.6 1.7-1.6h13.5c0.8 0 1.4 0.7 1.4 1.6l-0.7 7.2c0 0.9-0.8 1.5-1.6 1.5z"/>
					<path id="&lt;Path&gt;" class="s9" d="m507.5 324.4c-0.8 0-1.4-0.7-1.4-1.6l0.3-3.3c0.1-0.8 0.9-1.5 1.7-1.5 0.8 0 1.5 0.7 1.4 1.5l-0.3 3.3c-0.1 0.9-0.8 1.6-1.7 1.6z"/>
				</g>
			</g>
			<path id="&lt;Path&gt;" class="s9" d="m654.2 449.3c-3.1 35.6-34.6 64.5-70.2 64.5-35.7 0-62.1-28.9-58.9-64.5 3.1-35.7 34.5-64.6 70.2-64.6 35.6 0 62 28.9 58.9 64.6z"/>
			<g id="&lt;Group&gt;">
				<path id="&lt;Path&gt;" class="s5" d="m589.8 446.8c-16.9 0-31.3 6.4-32.5 20.4l-1.3 15.6h61.4l1.4-15.6c1.2-14-12-20.4-29-20.4z"/>
				<path id="&lt;Path&gt;" class="s5" d="m590.4 440.3c7.9 0 11.5-6.3 12.2-14.2 0.7-7.9-1.8-14.3-9.7-14.3-7.9 0-11.5 6.4-12.2 14.3-0.7 7.9 1.8 14.2 9.7 14.2z"/>
			</g>
			<g id="&lt;Group&gt;">
				<path id="&lt;Path&gt;" class="s5" d="m650.7 538.8c-4.2 0-7.7 1.6-8 5l-0.3 3.9h15.1l0.4-3.9c0.3-3.4-3-5-7.2-5z"/>
				<path id="&lt;Path&gt;" class="s5" d="m650.9 537.2c1.9 0 2.8-1.6 3-3.5 0.1-2-0.5-3.6-2.4-3.6-2 0-2.9 1.6-3 3.6-0.2 1.9 0.4 3.5 2.4 3.5z"/>
			</g>
			<path id="&lt;Path&gt;" class="s5" d="m604 628.1h-60c-7 0-12.2-5.7-11.6-12.7 0.6-7 6.8-12.7 13.8-12.7h60c7 0 12.2 5.7 11.6 12.7-0.6 7-6.8 12.7-13.8 12.7z"/>
			<path id="&lt;Path&gt;" class="s5" d="m596.7 769.6h-64.2c-7.4 0-12.9-6-12.2-13.4l4.1-46.8c0.6-7.4 7.2-13.4 14.6-13.4h64.2c7.4 0 12.9 6 12.2 13.4l-4.1 46.8c-0.6 7.4-7.1 13.4-14.6 13.4z"/>
			<g id="&lt;Group&gt;" style="opacity: .6">
				<path id="&lt;Path&gt;" class="s9" d="m576.9 721.2c0.4-4.5-2.9-8.1-7.3-8.1-4.5 0-8.4 3.6-8.8 8.1-0.2 2.7 0.9 5 2.7 6.5l-1.4 16.1c-0.2 2.6 1.7 4.8 4.4 4.8 2.6 0 5-2.2 5.2-4.8l1.4-16.1c2.1-1.5 3.6-3.8 3.8-6.5z"/>
			</g>
			<g id="&lt;Group&gt;">
				<path id="&lt;Path&gt;" class="s5" d="m603.8 705.7h-8.3l2-23.2c1.2-13.9-9.1-25.2-23-25.2-14 0-26.3 11.3-27.5 25.2l-2 23.2h-8.3l2-23.2c1.6-18.5 18-33.5 36.5-33.5 18.5 0 32.2 15 30.6 33.5z"/>
			</g>
			<path id="&lt;Compound Path&gt;" fill-rule="evenodd" class="s5" d="m653.2 575.9l-0.5 5.9c-0.1 0.9-0.9 1.7-1.8 1.7h-8.2c-0.9 0-1.6-0.8-1.5-1.7l0.5-5.9c0.1-0.9 0.9-1.6 1.8-1.6l0.2-2.3c0.2-2.2 2.2-4.1 4.5-4.1 2.2 0 3.9 1.9 3.7 4.1l-0.2 2.3c0.9 0 1.6 0.7 1.5 1.6zm-8.5-3.9l-0.2 2.3h6.2l0.2-2.3c0.2-1.7-1.1-3.1-2.8-3.1-1.7 0-3.2 1.4-3.4 3.1z"/>
			<g id="&lt;Group&gt;">
				<path id="&lt;Path&gt;" class="s11" d="m527.7 576.6l-2.9-0.6c-0.3 0-0.5-0.4-0.4-0.7l1.2-2.9c0.3-0.6-0.4-1-0.9-0.5l-2.2 2.2c-0.2 0.3-0.7 0.3-0.9 0l-1.7-2.2c-0.4-0.5-1.2-0.1-1.1 0.5l0.7 2.9c0.1 0.3-0.1 0.7-0.5 0.7l-3 0.6c-0.6 0.2-0.7 1.1-0.1 1.2l2.9 0.6c0.3 0.1 0.5 0.4 0.4 0.7l-1.2 2.9c-0.3 0.6 0.5 1 0.9 0.6l2.2-2.3c0.3-0.2 0.7-0.2 0.9 0l1.8 2.3c0.3 0.4 1.2 0 1-0.6l-0.7-2.9c-0.1-0.3 0.2-0.6 0.5-0.7l3-0.6c0.6-0.1 0.7-1 0.1-1.2z"/>
				<path id="&lt;Path&gt;" class="s11" d="m546.6 576.6l-2.9-0.6c-0.3 0-0.5-0.4-0.3-0.7l1.2-2.9c0.2-0.6-0.5-1-1-0.5l-2.2 2.2c-0.2 0.3-0.6 0.3-0.8 0l-1.8-2.2c-0.4-0.5-1.2-0.1-1.1 0.5l0.7 2.9c0.1 0.3-0.1 0.7-0.5 0.7l-3 0.6c-0.6 0.2-0.7 1.1-0.1 1.2l2.9 0.6c0.4 0.1 0.5 0.4 0.4 0.7l-1.2 2.9c-0.3 0.6 0.5 1 0.9 0.6l2.2-2.3c0.3-0.2 0.7-0.2 0.9 0l1.8 2.3c0.4 0.4 1.2 0 1-0.6l-0.7-2.9c-0.1-0.3 0.2-0.6 0.5-0.7l3-0.6c0.7-0.1 0.7-1 0.1-1.2z"/>
				<path id="&lt;Path&gt;" class="s11" d="m565.5 576.6l-2.8-0.6c-0.4 0-0.5-0.4-0.4-0.7l1.2-2.9c0.3-0.6-0.5-1-1-0.5l-2.1 2.2c-0.3 0.3-0.7 0.3-0.9 0l-1.8-2.2c-0.4-0.5-1.2-0.1-1 0.5l0.7 2.9c0 0.3-0.2 0.7-0.5 0.7l-3 0.6c-0.7 0.2-0.7 1.1-0.1 1.2l2.8 0.6c0.4 0.1 0.6 0.4 0.4 0.7l-1.2 2.9c-0.2 0.6 0.5 1 1 0.6l2.1-2.3c0.3-0.2 0.7-0.2 0.9 0l1.8 2.3c0.4 0.4 1.2 0 1.1-0.6l-0.7-2.9c-0.1-0.3 0.1-0.6 0.5-0.7l2.9-0.6c0.7-0.1 0.8-1 0.1-1.2z"/>
				<path id="&lt;Path&gt;" class="s11" d="m584.5 576.6l-2.9-0.6c-0.3 0-0.5-0.4-0.4-0.7l1.2-2.9c0.3-0.6-0.5-1-0.9-0.5l-2.2 2.2c-0.3 0.3-0.7 0.3-0.9 0l-1.8-2.2c-0.3-0.5-1.2-0.1-1 0.5l0.7 2.9c0.1 0.3-0.2 0.7-0.5 0.7l-3 0.6c-0.6 0.2-0.7 1.1-0.1 1.2l2.9 0.6c0.3 0.1 0.5 0.4 0.3 0.7l-1.1 2.9c-0.3 0.6 0.4 1 0.9 0.6l2.2-2.3c0.2-0.2 0.6-0.2 0.9 0l1.7 2.3c0.4 0.4 1.2 0 1.1-0.6l-0.7-2.9c-0.1-0.3 0.1-0.6 0.5-0.7l3-0.6c0.6-0.1 0.7-1 0.1-1.2z"/>
				<path id="&lt;Path&gt;" class="s11" d="m603.4 576.6l-2.9-0.6c-0.3 0-0.5-0.4-0.4-0.7l1.2-2.9c0.3-0.6-0.4-1-0.9-0.5l-2.2 2.2c-0.2 0.3-0.6 0.3-0.9 0l-1.7-2.2c-0.4-0.5-1.2-0.1-1.1 0.5l0.7 2.9c0.1 0.3-0.1 0.7-0.5 0.7l-3 0.6c-0.6 0.2-0.7 1.1-0.1 1.2l2.9 0.6c0.3 0.1 0.5 0.4 0.4 0.7l-1.2 2.9c-0.3 0.6 0.5 1 0.9 0.6l2.2-2.3c0.3-0.2 0.7-0.2 0.9 0l1.8 2.3c0.3 0.4 1.2 0 1-0.6l-0.7-2.9c-0.1-0.3 0.2-0.6 0.5-0.7l3-0.6c0.6-0.1 0.7-1 0.1-1.2z"/>
				<path id="&lt;Path&gt;" class="s11" d="m622.3 576.6l-2.9-0.6c-0.3 0-0.5-0.4-0.3-0.7l1.2-2.9c0.2-0.6-0.5-1-1-0.5l-2.1 2.2c-0.3 0.3-0.7 0.3-0.9 0l-1.8-2.2c-0.4-0.5-1.2-0.1-1.1 0.5l0.7 2.9c0.1 0.3-0.1 0.7-0.5 0.7l-2.9 0.6c-0.7 0.2-0.8 1.1-0.1 1.2l2.8 0.6c0.4 0.1 0.5 0.4 0.4 0.7l-1.2 2.9c-0.3 0.6 0.5 1 1 0.6l2.1-2.3c0.3-0.2 0.7-0.2 0.9 0l1.8 2.3c0.4 0.4 1.2 0 1-0.6l-0.7-2.9c0-0.3 0.2-0.6 0.5-0.7l3-0.6c0.7-0.1 0.7-1 0.1-1.2z"/>
			</g>
			<g id="&lt;Group&gt;">
				<path id="&lt;Path&gt;" class="s11" d="m576.7 535.2h-35.5c-2.2 0-4.2 1.8-4.4 4-0.2 2.2 1.5 4 3.7 4h35.5c2.2 0 4.2-1.8 4.4-4 0.1-2.2-1.5-4-3.7-4z"/>
				<path id="&lt;Path&gt;" class="s11" d="m612.8 535.2h-20.6c-2.2 0-4.2 1.8-4.4 4-0.2 2.2 1.5 4 3.7 4h20.6c2.2 0 4.1-1.8 4.3-4 0.2-2.2-1.4-4-3.6-4z"/>
			</g>
			<path id="&lt;Path&gt;" class="s11" d="m640 716.5c-13.4 5.4-25.1 13.2-33.2 22.1-4.7-4.1-11.4-6.8-19.4-8.1l-1-0.2-0.4 4.8 0.5 0.2c8 2.9 14.4 8.3 18.7 15.3l0.7 1.1 0.7-1.2c8.3-13.1 20.3-24.2 33.9-31.1l0.4-0.2 0.3-3.1z"/>
		</g>
	</g>
	<g id="Policy">
		<path id="&lt;Path&gt;" class="s12" d="m461.3 322.7c-2.5 4.4-4.2 9.3-4.6 14.5l-29.8 340.5h92.2l18.5-71-6.1-71 18.5-71-6.1-71 18.5-71z"/>
		<g id="&lt;Group&gt;">
			<g id="&lt;Group&gt;">
				<path id="&lt;Path&gt;" class="s5" d="m535.9 373.7l18.5-71h-233l-18.5 71 6 71-18.5 71 6.1 71-18.5 71h233.1l18.5-71-6.1-71 18.5-71z"/>
				<path id="&lt;Path&gt;" class="s13" d="m535.9 373.7l18.5-71h-233l-18.5 71 6 71-18.5 71 6.1 71-18.5 71h233.1l18.5-71-6.1-71 18.5-71z"/>
				<path id="&lt;Path&gt;" class="s14" d="m535.9 373.7h-233l18.5-71h233z"/>
				<path id="&lt;Path&gt;" class="s14" d="m523.5 515.7h-233.1l18.5-71h233.1z"/>
				<path id="&lt;Path&gt;" class="s14" d="m511.1 657.7h-233.1l18.5-71h233.1z"/>
			</g>
			<path id="&lt;Path&gt;" class="s12" d="m504.7 403.4c-2 0.6-4.5 1-7.3 1-4.2 0-7.8-0.8-9.8-2q-0.9-0.5-1.8-0.5-0.9 0-1.7 0.4-0.1 0-0.1 0.1-0.1 0-0.1 0-1.2 0.7-2.9 1.1c-1.9 0.6-4.3 0.9-6.8 0.9q-1.1 0-2.1-0.1c-2-0.1-3.8-0.4-5.3-0.9q-0.4-0.1-0.8-0.1c-1.8-0.2-3.4 1.2-3.4 3.1v0.1 2.1h-90.6c-7 0-12.7 5.7-12.7 12.7v12.8c0 7 5.7 12.7 12.7 12.7h103.1q0.3 0 0.6 0 1.7 1.3 3.5 2.7 2.2 1.7 4.7 3.4c1.1 0.9 2.6 0.9 3.8 0 12.9-9.4 21.2-15.8 21.2-33.6v-12.8c0-2.2-2.1-3.8-4.2-3.1z"/>
			<g id="&lt;Group&gt;">
				<path id="&lt;Path&gt;" class="s5" d="m473.1 439.7h-103.1c-7 0-12.7-5.6-12.7-12.6v-12.8c0-7 5.7-12.7 12.7-12.7h103.1c7 0 12.7 5.7 12.7 12.7v12.8c0 7-5.7 12.6-12.7 12.6z"/>
				<g id="&lt;Group&gt;">
					<g id="&lt;Group&gt;">
						<path id="&lt;Path&gt;" class="s5" d="m495.4 397.4c-4.1 0-7.7-0.9-9.8-2.1-1.1-0.7-2.5-0.7-3.6 0-2.1 1.2-5.7 2.1-9.8 2.1-2.8 0-5.3-0.4-7.4-1-2.1-0.7-4.2 0.8-4.2 3v12.8c0 17.8 8.3 24.3 21.3 33.7 1.1 0.8 2.7 0.8 3.8 0 13-9.4 21.3-15.9 21.3-33.7v-12.8c0-2.2-2.2-3.7-4.3-3-2 0.6-4.5 1-7.3 1z"/>
						<path id="&lt;Path&gt;" class="s7" d="m495.4 397.4c-4.1 0-7.7-0.9-9.8-2.1-1.1-0.7-2.5-0.7-3.6 0-2.1 1.2-5.7 2.1-9.8 2.1-2.8 0-5.3-0.4-7.4-1-2.1-0.7-4.2 0.8-4.2 3v12.8c0 17.8 8.3 24.3 21.3 33.7 1.1 0.8 2.7 0.8 3.8 0 13-9.4 21.3-15.9 21.3-33.7v-12.8c0-2.2-2.2-3.7-4.3-3-2 0.6-4.5 1-7.3 1z"/>
						<path id="&lt;Path&gt;" class="s15" d="m482 395.3c-2.1 1.2-5.7 2.1-9.8 2.1-2.8 0-5.3-0.4-7.4-1-2.1-0.7-4.2 0.8-4.2 3v12.8c0 17.8 8.3 24.3 21.3 33.7 0.6 0.4 1.2 0.6 1.9 0.6v-51.7q-0.9 0-1.8 0.5z"/>
					</g>
					<path id="&lt;Path&gt;" class="s11" d="m502.4 408.7c-8.4 3.5-15.6 8.5-20.3 14.3-3.2-2.6-7.7-4.4-13-5.2l-0.6-0.1v3l0.3 0.1c5.3 2 9.8 5.4 13 10l0.5 0.7 0.4-0.8c4.6-8.5 11.7-15.7 20.1-20.1l0.3-0.2v-2z"/>
				</g>
			</g>
			<g id="&lt;Group&gt;">
				<path id="&lt;Path&gt;" class="s5" d="m550.3 322.7h-8.8c-4.9 0-8.6-4-8.1-8.9l0.7-8.8c0.5-4.9 4.8-8.9 9.7-8.9h8.8c4.9 0 8.6 4 8.1 8.9l-0.7 8.8c-0.5 4.9-4.8 8.9-9.7 8.9z"/>
				<path id="&lt;Path&gt;" class="s9" d="m554 305l-1.9-2.1-4.9 4.4-4-4.4-2.3 2.1 4 4.4-4.8 4.5 1.9 2.1 4.9-4.5 4 4.5 2.3-2.1-4.1-4.5z"/>
			</g>
		</g>
	</g>
	<g id="Character">
		<g id="&lt;Group&gt;">
			<g id="&lt;Group&gt;">
				<path id="&lt;Path&gt;" class="s16" d="m352.7 399c5.2 5.6 10.1 11.3 14.9 17.2 4.8 5.8 9.6 11.7 14.2 17.7 0.2 0.2 0.2 0.1 0.2 0.2 0 0.1 0 0.1 0.1 0.1 0 0.1 0 0.2 0.1 0.2 0.1 0.2 0.2 0.3 0.4 0.4 0.2 0.3 0.6 0.5 1.1 0.6q0.3 0 0.6 0c0.2 0 0.3 0 0.4 0 0.1 0 0.1-0.1 0.2-0.1 0.1 0 0 0.1 0.3-0.1l5-2.7c6.7-3.6 13.5-7 20.5-10.2l5.9 7.3c-5.7 5.2-11.6 11.7-17.5 16.4l-4.5 3.6c-0.1 0.1-0.6 0.4-0.9 0.6-0.3 0.2-0.7 0.5-1 0.6-0.7 0.4-1.5 0.8-2.3 1.2-1.5 0.6-3.1 1-4.8 1.3-3.3 0.5-6.8 0.2-10-1-1.6-0.6-3.2-1.4-4.6-2.3-0.7-0.5-1.4-1.1-2.1-1.6-0.3-0.3-0.6-0.6-0.9-0.9l-0.8-0.8c-5.3-5.5-10.5-10.9-15.7-16.5-5.1-5.6-10.1-11.2-15-17.1z"/>
				<path id="&lt;Path&gt;" class="s16" d="m408 426.8l4.6-15 12.3 6.1c0 0-1.8 10.9-10.7 12.8z"/>
				<path id="&lt;Path&gt;" class="s16" d="m417.6 407.6l11 3.1-3.7 7.2-12.3-6.1z"/>
			</g>
			<g id="&lt;Group&gt;">
				<path id="&lt;Path&gt;" class="s16" d="m288.2 403.1c-1.3 6.3-3 12.6-4.7 18.9-1.7 6.3-3.5 12.5-5.5 18.7l-0.7 2.4-0.4 1.1c0 0.3-0.1 0.3-0.2 0.5q-0.3 0.9-0.3 1.9c-0.1 1.3 0.2 2.8 1.1 4.1 0.1 0.2 0.8 0.9 1.3 1.5l1.7 1.8 3.3 3.7c2.1 2.5 4.3 5 6.3 7.6l-7 8c-2.9-1.6-5.6-3.4-8.4-5.1l-4.1-2.8-2-1.3c-0.7-0.5-1.3-0.8-2.4-1.7-3.8-3.3-6.6-7.9-7.6-12.9-0.6-2.6-0.7-5.2-0.4-7.8 0.1-0.7 0.2-1.4 0.3-1.9l0.2-1.2 0.4-2.4c1.1-6.5 2.3-12.9 3.7-19.2 1.3-6.4 2.8-12.7 4.5-19z"/>
				<path id="&lt;Path&gt;" class="s16" d="m283.3 464.7l8.2-4.2 3.6 14c0 0-6.6 2.5-11.7-0.7z"/>
				<path id="&lt;Path&gt;" class="s16" d="m302.9 456l0.4 12.9-9.2 6-3.2-14.2z"/>
			</g>
			<path id="&lt;Path&gt;" class="s11" d="m329.9 336.9c0.2 1 0.9 1.7 1.5 1.6 0.7-0.1 1-1 0.8-2-0.2-1-0.9-1.7-1.5-1.6-0.7 0.1-1 1-0.8 2z"/>
			<path id="&lt;Path&gt;" class="s17" d="m330.7 338.6c0 0 3.4 5.3 6.4 7.6-1.4 2-4.5 1.8-4.5 1.8z"/>
			<path id="&lt;Path&gt;" class="s11" d="m325.1 332.2q-0.2 0-0.4-0.2c-0.2-0.2-0.2-0.6 0-0.8 2.2-2.4 4.9-2 5.1-2 0.3 0.1 0.5 0.4 0.4 0.7 0 0.3-0.3 0.5-0.6 0.5-0.1 0-2.2-0.3-4 1.6q-0.2 0.2-0.5 0.2z"/>
			<path id="&lt;Path&gt;" class="s16" d="m301 350.9c2.2 9.2 4.5 26-3.4 32.1 0 0 3.1 9.3 24 9.3 23 0 11-6 11-6-12.6-2.4-12.3-13.3-10.1-20.5z"/>
			<path id="&lt;Path&gt;" class="s11" d="m295.1 384.7c-1.3-2.6-2.9-5.5 0.3-6.4 3.4-1 25.5-2.9 31.9-1-1.9 3.6 1.4 7.9 1.4 7.9z"/>
			<path id="&lt;Path&gt;" class="s16" d="m313.4 813.8h14.4l1.5-29h-14.5z"/>
			<path id="&lt;Path&gt;" class="s16" d="m221.8 809.8l14.6 0.8 8.9-28.6-14.6-0.8z"/>
			<path id="&lt;Path&gt;" class="s11" d="m236 809.5l-13.8-3c-0.5-0.1-1 0.1-1.2 0.6l-4.8 10.4c-0.5 1 0.2 2.3 1.3 2.5 4.9 1 7.3 1.2 13.3 2.5 3.7 0.8 12.2 2.9 17.3 4 5 1.1 6.9-3.8 4.9-4.8-9-4.1-12.7-7.7-15.2-11.1-0.4-0.6-1.1-1-1.8-1.1z"/>
			<path id="&lt;Path&gt;" class="s11" d="m327.1 812.4h-13.7c-0.5 0-1 0.3-1.1 0.8l-2.5 11.2c-0.2 1.1 0.6 2.2 1.8 2.2 5-0.1 12.1-0.4 18.3-0.4 7.3 0 13.5 0.4 22.1 0.4 5.1 0 6.5-5.2 4.4-5.6-9.8-2.2-17.8-2.4-26.3-7.6-0.9-0.6-2-1-3-1z"/>
			<path id="&lt;Path&gt;" class="s11" d="m271.4 387.2c-10.8 5.2-13.8 36.6-13.8 36.6l26.9 12.4c0 0 6.7-9.8 7.2-25.3 0.6-16.2-9.1-29-20.3-23.7z"/>
			<path id="&lt;Path&gt;" class="s18" d="m286.1 406.6c-4.9 7.5-4.4 19.2-2.8 29.1l1.2 0.5c0 0 6.7-9.8 7.2-25.3q0.1-1.5 0-2.9z"/>
			<g id="&lt;Group&gt;">
				<path id="&lt;Path&gt;" class="s5" d="m346.6 386.5c0 0 13.4 15 0.8 108.4-20.2 0-57.3 0-67.1 0-0.5-10.3 6-60.6-3.9-109.1 0 0 11.5-2.3 22.4-2.8 8.6-0.4 21-0.7 28.5 0 10 0.9 19.3 3.5 19.3 3.5z"/>
				<path id="&lt;Path&gt;" class="s19" d="m346.6 386.5c0 0 13.4 15 0.8 108.4-20.2 0-57.3 0-67.1 0-0.5-10.3 6-60.6-3.9-109.1 0 0 11.5-2.3 22.4-2.8 8.6-0.4 21-0.7 28.5 0 10 0.9 19.3 3.5 19.3 3.5z"/>
			</g>
			<path id="&lt;Path&gt;" class="s12" d="m352.5 415l-0.3-0.2-13.3-7.2c-1.4 20.6 7.8 33.5 13.3 39.1 0.7-13.2 0.7-23.6 0.3-31.7z"/>
			<path id="&lt;Path&gt;" class="s12" d="m329.3 784.8l-0.8 15h-14.4l0.7-15z"/>
			<path id="&lt;Path&gt;" class="s12" d="m230.7 781.2l14.6 0.8-4.6 14.8-14.6-0.8z"/>
			<path id="&lt;Path&gt;" class="s16" d="m296.4 341.6c3.2 12 4.5 19.2 11.9 24.2 11.2 7.5 25.1-1.1 25.5-13.9 0.4-11.4-4.9-29.2-17.8-31.6-12.8-2.4-22.8 9.2-19.6 21.3z"/>
			<path id="&lt;Path&gt;" class="s11" d="m323.6 494.9c0 0-14.3 95.8-22.1 131.7-8.5 39.3-54.4 169.4-54.4 169.4l-22.5-4.9c0 0 28.8-106 36-160.9 2.8-21.5 6.2-56.1 10.5-84.9 4.1-27.9 9.2-50.4 9.2-50.4z"/>
			<path id="&lt;Path&gt;" class="s5" d="m252.5 788.5c0.1 0-4.2 8.1-4.2 8.1l-25.3-5.5 2.2-7.5z"/>
			<path id="&lt;Path&gt;" class="s20" d="m252.5 788.5c0.1 0-4.2 8.1-4.2 8.1l-25.3-5.5 2.2-7.5z"/>
			<path id="&lt;Path&gt;" class="s21" d="m314.6 529c-16.5 3.2-14.7 64.6-12.8 96.2 4.8-22.4 11.7-65.3 16.5-95.8-1.1-0.5-2.3-0.7-3.7-0.4z"/>
			<path id="&lt;Path&gt;" class="s11" d="m347.4 494.9c0 0 6.7 93.7 5.3 132-1.4 39.7-20.3 170-20.3 170h-21.2c0 0-0.8-127.9-1.8-167-1-42.6-6.1-135-6.1-135z"/>
			<path id="&lt;Path&gt;" class="s5" d="m336.5 788.4c0.1 0-1.2 8.8-1.2 8.8h-25.8l-0.7-7.8z"/>
			<path id="&lt;Path&gt;" class="s20" d="m336.5 788.4c0.1 0-1.2 8.8-1.2 8.8h-25.8l-0.7-7.8z"/>
			<path id="&lt;Path&gt;" class="s11" d="m338.8 404c0 25.2 13.4 35.6 13.4 35.6l21.8-21.3c0 0-7.4-12.8-17.6-24.5-12.6-14.4-17.6-6-17.6 10.2z"/>
			<path id="&lt;Path&gt;" class="s12" d="m333 356.5c-0.5 1.5-2 4.1-5.6 5.2-5.3 1.5-5.4 6-5.4 6l0.1 0.1c5-1.7 9.3-5.9 10.9-11.3z"/>
			<path id="&lt;Path&gt;" class="s11" d="m327.4 317.7c4.5-5.7-2.4-6-2.4-6 1.8-6.7-6.3-3.1-6.3-3.1-4.8-6.7-7.6 1.5-7.6 1.5-5-5.7-5.9 3.6-5.9 3.6-5.1-7.2-7.6 3.1-7.6 3.1-4.7-7.4-7.5 2.3-7.5 2.3-9.6-3.4-5 6.5-5 6.5-8.2 0.2-1.6 6.6-1.6 6.6-9.8 0-1.2 5.6-1.2 5.6-7.8 5.1 2 6.5 2 6.5-6.4 9.9 4.5 6.2 4.5 6.2-4.4 9.9 5.4 5.5 5.4 5.5-0.6 9.5 4.8 6.9 7.5 5.2 0.5 1.9 1.4 3.9 3.2 4.1 3.4 0.5 4.1-6 4.1-6 0 0 3.1 2.5 5.8 1.2 2.7-1.4 1.7-4.8 1.7-4.8 0 0 2 1.6 3.9 0.1 1.1-0.9 1.1-7.2-0.3-9.5l5.2-2c0 0 3.8-0.6 2.1-5.7-1.7-5-0.3-9.1-0.3-9.1 5.9-2.7 1.1-6 1.1-6 6.8-4.4-0.8-5.8-0.8-5.8z"/>
			<path id="&lt;Path&gt;" class="s16" d="m316.9 342.1c0.8 3.1 2.8 5.8 5 7.4 3.3 2.5 5.7 0.1 5.5-3.6-0.2-3.3-2.2-8.6-5.8-9.6-3.5-1-5.7 2.2-4.7 5.8z"/>
		</g>
	</g>
</svg>