<svg version="1.2" xmlns="http://www.w3.org/2000/svg" viewBox="0 0 3710 3710" width="1000" height="1000">
	<title>20945760-ai</title>
	<defs>
		<linearGradient id="g1" x1="2783.2" y1="6180.5" x2="-732.7" y2="1813.9" gradientUnits="userSpaceOnUse">
			<stop offset="0" stop-color="#dae3fe"/>
			<stop offset="1" stop-color="#e9effd"/>
		</linearGradient>
		<linearGradient id="g2" x1="4633.5" y1="1544.9" x2="1418.9" y2="7377" gradientUnits="userSpaceOnUse">
			<stop offset="0" stop-color="#09005d"/>
			<stop offset="1" stop-color="#1a0f91"/>
		</linearGradient>
		<linearGradient id="g3" x1="1435.1" y1="-1217.3" x2="1543.6" y2="-110.3" gradientUnits="userSpaceOnUse">
			<stop offset="0" stop-color="#4f52ff"/>
			<stop offset="1" stop-color="#4042e2"/>
		</linearGradient>
		<linearGradient id="g4" x1="1209.3" y1="796.2" x2="1878.3" y2="796.2" gradientUnits="userSpaceOnUse">
			<stop offset="0" stop-color="#4f52ff"/>
			<stop offset="1" stop-color="#4042e2"/>
		</linearGradient>
		<linearGradient id="g5" x1="4085.2" y1="2630.6" x2="3696.7" y2="1630.3" gradientUnits="userSpaceOnUse">
			<stop offset="0" stop-color="#febbba"/>
			<stop offset="1" stop-color="#ff928e"/>
		</linearGradient>
		<linearGradient id="g6" x1="5606.9" y1="6149.1" x2="4344.3" y2="-8606.7" gradientUnits="userSpaceOnUse">
			<stop offset="0" stop-color="#febbba"/>
			<stop offset="1" stop-color="#ff928e"/>
		</linearGradient>
		<linearGradient id="g7" x1="2380.6" y1="1467.3" x2="2221.8" y2="1467.3" gradientUnits="userSpaceOnUse">
			<stop offset="0" stop-color="#febbba"/>
			<stop offset="1" stop-color="#ff928e"/>
		</linearGradient>
		<linearGradient id="g8" x1="2161.6" y1="3208" x2="1499.7" y2="2192.6" gradientUnits="userSpaceOnUse">
			<stop offset="0" stop-color="#4f52ff"/>
			<stop offset="1" stop-color="#4042e2"/>
		</linearGradient>
		<linearGradient id="g9" x1="2669.7" y1="3555.1" x2="1946.8" y2="2305.5" gradientUnits="userSpaceOnUse">
			<stop offset="0" stop-color="#4f52ff"/>
			<stop offset="1" stop-color="#4042e2"/>
		</linearGradient>
		<linearGradient id="g10" x1="3070.9" y1="1954.5" x2="2694.3" y2="2464.4" gradientUnits="userSpaceOnUse">
			<stop offset="0" stop-color="#4f52ff"/>
			<stop offset="1" stop-color="#4042e2"/>
		</linearGradient>
		<linearGradient id="g11" x1="2207.2" y1="1254.2" x2="2094.4" y2="1254.2" gradientUnits="userSpaceOnUse">
			<stop offset="0" stop-color="#febbba"/>
			<stop offset="1" stop-color="#ff928e"/>
		</linearGradient>
		<linearGradient id="g12" x1="3929.1" y1="1403.4" x2="3353.9" y2="1592.2" gradientUnits="userSpaceOnUse">
			<stop offset="0" stop-color="#ff928e"/>
			<stop offset="1" stop-color="#fe7062"/>
		</linearGradient>
		<linearGradient id="g13" x1="1176.7" y1="1537.2" x2="2787.2" y2="2459.8" gradientUnits="userSpaceOnUse">
			<stop offset="0" stop-color="#febbba"/>
			<stop offset="1" stop-color="#ff928e"/>
		</linearGradient>
		<linearGradient id="g14" x1="1416.3" y1="1639.8" x2="2435.1" y2="2223.5" gradientUnits="userSpaceOnUse">
			<stop offset="0" stop-color="#febbba"/>
			<stop offset="1" stop-color="#ff928e"/>
		</linearGradient>
		<linearGradient id="g15" x1="2156.2" y1="1483.9" x2="2417" y2="1102.6" gradientUnits="userSpaceOnUse">
			<stop offset="0" stop-color="#febbba"/>
			<stop offset="1" stop-color="#ff928e"/>
		</linearGradient>
		<linearGradient id="g16" x1="1692.9" y1="1416.2" x2="2056.4" y2="1888.8" gradientUnits="userSpaceOnUse">
			<stop offset="0" stop-color="#09005d"/>
			<stop offset="1" stop-color="#1a0f91"/>
		</linearGradient>
		<linearGradient id="g17" x1="3467.1" y1="-143.8" x2="2932.4" y2="1830.5" gradientUnits="userSpaceOnUse">
			<stop offset="0" stop-color="#e1473d"/>
			<stop offset="1" stop-color="#e9605a"/>
		</linearGradient>
		<linearGradient id="g18" x1="3357.9" y1="332.5" x2="3018.6" y2="1341.8" gradientUnits="userSpaceOnUse">
			<stop offset="0" stop-color="#ff928e"/>
			<stop offset="1" stop-color="#fe7062"/>
		</linearGradient>
		<linearGradient id="g19" x1="3041" y1="133.2" x2="2912.6" y2="1378.6" gradientUnits="userSpaceOnUse">
			<stop offset="0" stop-color="#ff928e"/>
			<stop offset="1" stop-color="#fe7062"/>
		</linearGradient>
		<linearGradient id="g20" x1="679.8" y1="3212" x2="388.4" y2="2624.7" gradientUnits="userSpaceOnUse">
			<stop offset="0" stop-color="#ff928e"/>
			<stop offset="1" stop-color="#fe7062"/>
		</linearGradient>
		<linearGradient id="g21" x1="439.1" y1="2563" x2="421.8" y2="2528.1" gradientUnits="userSpaceOnUse">
			<stop offset="0" stop-color="#ff928e"/>
			<stop offset="1" stop-color="#fe7062"/>
		</linearGradient>
		<linearGradient id="g22" x1="604.2" y1="2250.5" x2="592.2" y2="2226.4" gradientUnits="userSpaceOnUse">
			<stop offset="0" stop-color="#ff928e"/>
			<stop offset="1" stop-color="#fe7062"/>
		</linearGradient>
		<linearGradient id="g23" x1="958.9" y1="2791.1" x2="658.5" y2="2185.6" gradientUnits="userSpaceOnUse">
			<stop offset="0" stop-color="#ff928e"/>
			<stop offset="1" stop-color="#fe7062"/>
		</linearGradient>
		<linearGradient id="g24" x1="1298.8" y1="2699.3" x2="1281.7" y2="2664.9" gradientUnits="userSpaceOnUse">
			<stop offset="0" stop-color="#ff928e"/>
			<stop offset="1" stop-color="#fe7062"/>
		</linearGradient>
		<linearGradient id="g25" x1="1395.5" y1="2351.7" x2="1106.9" y2="3407.8" gradientUnits="userSpaceOnUse">
			<stop offset="0" stop-color="#ff928e"/>
			<stop offset="1" stop-color="#fe7062"/>
		</linearGradient>
		<linearGradient id="g26" x1="1531.6" y1="3223" x2="1523.1" y2="3205.8" gradientUnits="userSpaceOnUse">
			<stop offset="0" stop-color="#ff928e"/>
			<stop offset="1" stop-color="#fe7062"/>
		</linearGradient>
		<linearGradient id="g27" x1="1218.7" y1="3388.2" x2="1056.4" y2="3061.2" gradientUnits="userSpaceOnUse">
			<stop offset="0" stop-color="#ff928e"/>
			<stop offset="1" stop-color="#fe7062"/>
		</linearGradient>
		<linearGradient id="g28" x1="1528.2" y1="3044.4" x2="1341.3" y2="2667.7" gradientUnits="userSpaceOnUse">
			<stop offset="0" stop-color="#ff928e"/>
			<stop offset="1" stop-color="#fe7062"/>
		</linearGradient>
		<linearGradient id="g29" x1="1632.5" y1="3045.2" x2="1619.6" y2="3019.1" gradientUnits="userSpaceOnUse">
			<stop offset="0" stop-color="#ff928e"/>
			<stop offset="1" stop-color="#fe7062"/>
		</linearGradient>
		<linearGradient id="g30" x1="1757.8" y1="2640.8" x2="1465.9" y2="3622" gradientUnits="userSpaceOnUse">
			<stop offset="0" stop-color="#ff928e"/>
			<stop offset="1" stop-color="#fe7062"/>
		</linearGradient>
	</defs>
	<style>
		.s0 { fill: url(#g1) } 
		.s1 { fill: #7d97f4 } 
		.s2 { opacity: .6;fill: #ffffff } 
		.s3 { fill: #91b3fa } 
		.s4 { fill: url(#g2) } 
		.s5 { fill: url(#g3) } 
		.s6 { fill: url(#g4) } 
		.s7 { fill: #ffffff } 
		.s8 { opacity: .7;fill: #ffffff } 
		.s9 { fill: url(#g5) } 
		.s10 { fill: url(#g6) } 
		.s11 { fill: url(#g7) } 
		.s12 { fill: url(#g8) } 
		.s13 { fill: url(#g9) } 
		.s14 { fill: url(#g10) } 
		.s15 { fill: url(#g11) } 
		.s16 { fill: url(#g12) } 
		.s17 { fill: url(#g13) } 
		.s18 { fill: url(#g14) } 
		.s19 { fill: url(#g15) } 
		.s20 { fill: url(#g16) } 
		.s21 { fill: url(#g17) } 
		.s22 { fill: url(#g18) } 
		.s23 { fill: url(#g19) } 
		.s24 { fill: url(#g20) } 
		.s25 { fill: url(#g21) } 
		.s26 { fill: url(#g22) } 
		.s27 { fill: url(#g23) } 
		.s28 { fill: url(#g24) } 
		.s29 { fill: url(#g25) } 
		.s30 { fill: url(#g26) } 
		.s31 { fill: url(#g27) } 
		.s32 { fill: url(#g28) } 
		.s33 { fill: url(#g29) } 
		.s34 { fill: url(#g30) } 
	</style>
	<g id="Illustration">
		<g id="&lt;Group&gt;">
			<path id="&lt;Path&gt;" class="s0" d="m2960.3 2883.8c-58.8 61.2-114.4 100.6-158.3 131.7-516.6 366.2-1127.9 259.5-1257.8 233.4-191.8-38.5-562.6-112.9-830.7-424.3-405.6-471.2-342.4-1213.6-27.8-1703.6 57.5-89.6 361.5-587.1 979.3-666.9 373.9-48.3 809.8 49.1 1125.4 310.3 662.5 548.4 615.4 1656.1 169.9 2119.4z"/>
			<g id="&lt;Group&gt;">
				<g id="&lt;Group&gt;">
					<path id="&lt;Path&gt;" class="s1" d="m1867.5 3173.5c0 0 564.1-1425 1402.1-1580.6 14.8-2.8 28.4 9.1 27.6 24.2-8.4 175.8-115.8 1106-1429.7 1556.4z"/>
					<path id="&lt;Path&gt;" class="s2" d="m3119 1824c-42.8 61.1-87.6 120.5-133.1 179.5-11.3 14.8-22.9 29.4-34.4 44-11.5 14.6-22.9 29.4-34.6 43.9l-35.1 43.4c-11.8 14.4-23.3 29.1-35.4 43.3-23.9 28.5-47.6 57.2-71.8 85.6l-73.1 84.4c-49.6 55.6-99.2 111.1-150.4 165.3l-38.1 40.9c-12.5 13.8-25.8 26.8-38.7 40.3l-77.7 80.3-79.7 78.4c-13.3 13.1-26.5 26.2-40 39l-41.1 37.9c-27.5 25.2-54.7 50.7-82.6 75.3l-84.9 72.8-21.3 18.1c-7.2 5.9-14.2 12.1-21.5 17.9l-43.9 34.6c-14.5 11.6-29.3 23-44 34.5-14.7 11.4-29.4 22.9-44.2 34.2-1.1 0.8-2.7 0.6-3.6-0.5-0.8-1.1-0.7-2.7 0.4-3.5v-0.1c14.2-12.1 28.4-24.1 42.6-36.1 14.3-12 28.4-24.1 42.7-35.9l42.9-35.7c14.2-12 27.9-24.6 41.9-36.8l84-73.4 82.3-75.4 41.1-37.6c6.9-6.3 13.5-12.9 20.2-19.3l20.2-19.2 80.7-77.1c52.5-52.7 105.8-104.6 156.5-159 25.6-27 51.5-53.8 76.2-81.6 25-27.6 50.1-55 74.9-82.8l73.4-84.1c24.2-28.2 48-56.8 72.1-85.2 12.1-14.2 23.6-28.7 35.4-43.1l35.3-43.3c11.8-14.4 23.2-29.1 34.8-43.6 11.5-14.7 23.1-29.2 34.5-43.9 45.4-58.9 90.2-118.4 132.8-179.3l0.1-0.1c0.8-1.1 2.4-1.4 3.6-0.6 1.1 0.8 1.4 2.4 0.6 3.6z"/>
				</g>
				<g id="&lt;Group&gt;" style="opacity: .8">
					<path id="&lt;Path&gt;" class="s3" d="m1730.8 2356.3c0 0 274.2-1258.4 1102-1910.7 10.8-8.5 26.8-3.1 30.1 10.2 52.1 210.7 323.2 1554.7-1132.1 1900.5z"/>
					<path id="&lt;Path&gt;" class="s2" d="m2744.9 808.6c-9.5 36.5-20.5 72.5-32.2 108.3-11.7 35.8-24 71.4-37 106.7-26.2 70.6-54.7 140.3-85.4 209.1-7.7 17.2-15.7 34.3-23.5 51.4-7.9 17.1-16.4 33.9-24.5 50.9-8.1 17-16.8 33.7-25.3 50.5l-12.9 25.2-13.2 24.9c-35.4 66.5-72.7 132.1-112.9 195.8-40.3 63.7-82.1 126.4-127.3 186.8-5.6 7.5-11.1 15.2-16.8 22.7l-17.3 22.3-17.4 22.4c-5.8 7.4-11.4 14.9-17.5 22.1l-36 43.6-9 10.9-9.4 10.5-18.7 21.2c-99.4 113.4-210.6 216.3-330.8 306.9-1 0.7-2.4 0.5-3.2-0.5-0.7-0.9-0.5-2.3 0.4-3.1l43.7-35.6 21.9-17.7 21.1-18.6 42.3-37.2 40.8-38.7c6.8-6.5 13.8-12.8 20.4-19.4l19.8-20c13.1-13.4 26.5-26.6 39.4-40.2 25.4-27.7 51.3-54.8 75.5-83.5l18.4-21.3 9.2-10.6 8.8-10.9 35.6-43.6c6.1-7.2 11.7-14.7 17.4-22.1l17.2-22.3 17.2-22.3c5.6-7.5 11-15.2 16.6-22.7 44.7-60.2 86.2-122.9 126.1-186.4 40.1-63.4 77.5-128.5 113-194.6l13.3-24.8 12.9-25c8.5-16.7 17.3-33.3 25.4-50.2 16.7-33.7 32.8-67.6 48.6-101.6 31.4-68.2 60.6-137.4 87.6-207.5 13.6-35 26.6-70.3 38.9-105.7q9.3-26.6 17.9-53.4c5.8-17.9 11.4-35.8 16.6-53.8 0.4-1.2 1.6-1.9 2.8-1.6 1.2 0.3 1.9 1.6 1.5 2.7z"/>
				</g>
			</g>
			<g id="&lt;Group&gt;" style="opacity: .8">
				<path id="&lt;Path&gt;" class="s3" d="m1300.6 2288.7c0 0-106.9-1116.2-755.2-1765.8-8.4-8.5-22.8-5.5-27 5.7-66.8 176.8-440.2 1310.7 782.2 1760.1z"/>
				<path id="&lt;Path&gt;" class="s2" d="m588.1 845.3c11 64.3 25.3 128.2 41.7 191.5 16.1 63.4 34.2 126.2 54.4 188.4 10.2 31 20.6 62 31.5 92.8 5.3 15.4 11.2 30.7 16.8 46l8.6 23 8.9 22.8c23.9 60.8 49.6 120.9 77.7 179.8 27.9 59.1 57.2 117.5 89.6 174.2 4 7.1 7.9 14.3 12 21.3l12.6 21.1 12.5 21c4.2 7 8.2 14.1 12.7 20.9l26.3 41.4 6.5 10.3 6.8 10.2 13.7 20.3c17.9 27.3 37.5 53.5 56.5 80 9.7 13.1 19.9 25.9 29.9 38.8l15 19.4c5.1 6.4 10.5 12.5 15.6 18.8l31.3 37.8 32.6 36.5 16.3 18.3 17.1 17.6 34 35.4c0.9 0.9 0.9 2.3 0 3.2-0.9 0.8-2.3 0.8-3.2 0-94.7-90.6-180.4-191-254.6-299.3l-14.1-20.2-7-10.1-6.7-10.4-26.6-41.4c-4.5-6.8-8.6-13.9-12.9-20.9l-12.7-21.1-12.7-21.1c-4.1-7.1-8.1-14.3-12.1-21.4-32.9-56.9-62.6-115.5-90.9-174.7-28.1-59.3-53.6-119.8-77.3-181l-8.9-23-8.5-23.1c-5.5-15.4-11.4-30.7-16.6-46.3-5.3-15.5-10.9-30.9-15.9-46.5-5-15.7-10.1-31.2-14.9-46.9-38.6-125.4-70.6-252.9-89.5-382.8-0.2-1.2 0.7-2.4 1.9-2.6 1.2-0.1 2.3 0.7 2.5 1.9z"/>
			</g>
			<g id="&lt;Group&gt;">
				<path id="&lt;Path&gt;" class="s4" d="m725.8 589.3c-9.3 438-39.4 1949-25 2484.5 1.5 56.7 40.4 102.2 88.9 104.1 239.8 9.2 1118.9 32.4 1511.2 13.2 81.7-4 146.7-81.5 148.4-177.1 8.1-459.8 26.1-1753-16.6-2345.4-5.2-71-52.8-127.5-113.4-134.6-261.2-30.6-1144.1-105.3-1483-79.5-61.1 4.6-109 63.2-110.5 134.8z"/>
				<path id="&lt;Path&gt;" class="s1" d="m832.8 723.7c-12.9 353.6-53.6 1529.8-40.7 1964.7 1.9 63.6 44.7 115 99 118.7 223.5 15.3 986 49.1 1313.8 18.4 59.1-5.6 105.4-61.4 108.6-130.6 16.6-360.7 64.3-1455.9 51.9-1886-2-68.6-47.4-124.7-105.9-130.8-241.8-25.4-1052-85.8-1330.6-68-52.3 3.3-93.9 52.4-96.1 113.6z"/>
				<path id="&lt;Path&gt;" class="s5" d="m1432.3 541.4c0 13.4 9 24.5 20.4 25.2 56.7 3.5 216.2 13.3 287.6 18.1 14 1 25.1-13.8 22.4-30l-0.5-2.8c-1.8-11-9.6-19.3-19.2-20.3-48.2-5.2-193.6-19.5-290-15.5-11.6 0.5-20.7 11.7-20.7 25.3z"/>
				<g id="&lt;Group&gt;">
					<g id="&lt;Group&gt;">
						<path id="&lt;Path&gt;" class="s6" d="m1878.3 1130.7c0 184.8-149.8 334.6-334.5 334.6-184.8 0-334.5-149.8-334.5-334.6 0-184.7 149.7-334.5 334.5-334.5 184.7 0 334.5 149.8 334.5 334.5z"/>
						<path id="&lt;Path&gt;" class="s7" d="m1646.2 1004.3c0 56.7-45.9 117.8-102.6 117.8-56.6 0-102.5-61.1-102.5-117.8 0-56.6 45.9-96.8 102.5-96.8 56.7 0 102.6 40.2 102.6 96.8z"/>
						<path id="&lt;Path&gt;" class="s7" d="m1416.3 1340.2h250.4c26.4 0 49.7-17 57.7-42.1l13.5-42.1c9.9-30.9-6.2-64.2-36.6-75.4-101.9-37.2-207.2-32.4-315.1 3.5-30.3 10-47.1 42.4-38.7 73.1l10.4 38.3c7.1 26.4 31.1 44.7 58.4 44.7z"/>
					</g>
					<g id="&lt;Group&gt;" style="opacity: .7">
						<path id="&lt;Path&gt;" class="s8" d="m2185.3 1999.5h-1220.8c-3.7 0-6.7-3.1-6.7-6.8v-176.4c0-3.7 3-6.7 6.7-6.7h1220.8c3.8 0 6.8 3 6.8 6.7v176.4c0 3.7-3 6.8-6.8 6.8z"/>
						<path id="&lt;Path&gt;" class="s8" d="m2178.7 2309.3h-1220.8c-3.8 0-6.8-3-6.8-6.8v-176.4c0-3.7 3-6.7 6.8-6.7h1220.8c3.7 0 6.7 3 6.7 6.7v176.4c0 3.8-3 6.8-6.7 6.8z"/>
						<path id="&lt;Path&gt;" class="s8" d="m1940.3 2678.8h-780.7c-4.6 0-8.3-3.7-8.3-8.3v-225.4c0-4.6 3.7-8.4 8.3-8.4h780.7c4.6 0 8.4 3.8 8.4 8.4v225.4c0 4.6-3.8 8.3-8.4 8.3z"/>
					</g>
					<path id="&lt;Path&gt;" class="s8" d="m1735.6 1958.1h-711.2c-6.6 0-12-5.4-12-12v-81.5c0-6.6 5.4-12 12-12h711.2c6.7 0 12 5.4 12 12v81.5c0 6.6-5.3 12-12 12z"/>
					<g id="&lt;Group&gt;" style="opacity: .7">
						<path id="&lt;Path&gt;" class="s7" d="m1081.3 2209.1c0 23.9-19.4 43.3-43.3 43.3-23.9 0-43.3-19.4-43.3-43.3 0-24 19.4-43.4 43.3-43.4 23.9 0 43.3 19.4 43.3 43.4z"/>
						<path id="&lt;Path&gt;" class="s7" d="m1200.1 2211.3c0 23.9-19.4 43.3-43.3 43.3-23.9 0-43.3-19.4-43.3-43.3 0-23.9 19.4-43.3 43.3-43.3 23.9 0 43.3 19.4 43.3 43.3z"/>
						<path id="&lt;Path&gt;" class="s7" d="m1314.5 2216.8c0 24-19.4 43.3-43.3 43.3-23.9 0-43.3-19.3-43.3-43.3 0-23.9 19.4-43.3 43.3-43.3 23.9 0 43.3 19.4 43.3 43.3z"/>
						<path id="&lt;Path&gt;" class="s7" d="m1433.3 2219.1c0 23.9-19.3 43.3-43.3 43.3-23.9 0-43.3-19.4-43.3-43.3 0-24 19.4-43.4 43.3-43.4 24 0 43.3 19.4 43.3 43.4z"/>
						<path id="&lt;Path&gt;" class="s7" d="m1552.2 2217.9c0 24-19.4 43.4-43.3 43.4-24 0-43.4-19.4-43.4-43.4 0-23.9 19.4-43.3 43.4-43.3 23.9 0 43.3 19.4 43.3 43.3z"/>
						<path id="&lt;Path&gt;" class="s7" d="m1671 2220.2c0 23.9-19.4 43.3-43.3 43.3-23.9 0-43.3-19.4-43.3-43.3 0-24 19.4-43.3 43.3-43.3 23.9 0 43.3 19.3 43.3 43.3z"/>
					</g>
				</g>
			</g>
			<g id="&lt;Group&gt;">
				<path id="&lt;Path&gt;" class="s9" d="m2122.3 2361.5l132.7 33.2-33.2 248.8c0 0 49.8 49.8 66.3 116.1 16.6 66.4 31.9 344.9 31.9 344.9l31.5 19.1 3.8 15.8-91.6 123.2 15.2-98c2.4-15.6-1.7-47.1-0.4-47.8-49.8-132.7-156.2-506.5-156.2-506.5z"/>
				<path id="&lt;Path&gt;" class="s10" d="m2083.5 3141.2c1.4-0.1 2.9 0 4.3 0-6.4-80-35.7-432.1-65-564-33.2-149.3 49.7-447.9 49.7-447.9l149.3 149.3-82.9 282c56.8 85.2-9.3 584.5-7.9 584.2l-0.1 1.1 21.7 29.8-2.7 16.1-132.2 78 52.1-84.4c8.2-13.4 12.8-28.6 13.7-44.2z"/>
				<path id="&lt;Path&gt;" class="s11" d="m2251.4 1467.3c0 0 290.7 327.6 0 495.5l-29.6-21.4c0 0 144.3-138.2 0-307.3z"/>
				<path id="&lt;Path&gt;" class="s12" d="m2009 3282.1h42.2c7.9 0 15.4-3.6 20.2-9.9 13.1-17.1 40.4-50.4 53.4-51.3 17.6-1.2 15.3 61.2 15.3 61.2h9.8l12.5-77.5c3.1-19.5-6.6-38.8-24.1-47.9 0 0-4 29.6-25.7 42.7-21.8 13.1-88.5 60.1-88.5 60.1 0 0-8.2-1.2-17.1 0.5-13.3 2.4-11.5 22.1 2 22.1z"/>
				<path id="&lt;Path&gt;" class="s13" d="m2260.5 3277.3l38.8-16.4c7.3-3.1 12.8-9.3 14.8-16.9 5.5-20.9 17.7-62.2 29.3-68 15.8-7.9 37.9 50.4 37.9 50.4l9-3.8-18.5-76.2c-4.7-19.2-21.1-33.2-40.8-34.9 0 0 7.8 28.9-7.2 49.4-14.9 20.5-58.2 89.7-58.2 89.7 0 0-8 2.1-15.6 7.1-11.4 7.4-2 24.8 10.5 19.6z"/>
				<path id="&lt;Path&gt;" class="s14" d="m2034.5 1876.9c0 0 4.9 29.9-2.3 112.1-7.1 82.2-41.3 275.2-34.3 459.8 0 0 97.1 22.6 265.8 11.9 0 0 71.2-288.2 53.9-397.8-17.4-109.6-111.5-188.2-111.5-188.2z"/>
				<path id="&lt;Path&gt;" class="s15" d="m2106.3 1327.7l-11.9 139.6h112.8l-28.1-213.1z"/>
				<path id="&lt;Path&gt;" class="s16" d="m2240.6 1448c-38.9-2.1-126-6.1-187.6-2.8-32.5 1.8-59.7 25.1-66.3 56.9l-15 72.1c-5.6 26.8-4.8 54.6 2.4 81l60.4 221.7c0 0 53.7 32.3 171.6-2.2 0 0 103.6-247 61.2-405-3.3-12.2-14-21-26.7-21.7z"/>
				<path id="&lt;Path&gt;" class="s17" d="m1989.7 1489.2c-16.7 43.7-31.7 89.6-47.8 132.6-8.2 21.5-16.5 42.6-25.4 62-4.5 9.6-9.4 18.5-14 26.5-4.5 8-9.6 14.6-12.3 17.6-0.5 0.5 1.3 0.8 1.8 0.8 0.4 0.1-11.2 1.9-14.7 2.5l-13.9-0.1c-19.9-1-42.5-4.5-65.1-8.9-45.6-8.5-93-20.4-141.6-29.4l-0.4-0.1c-9.3-1.7-18.3 4.4-20 13.7-1.2 6.2 1.2 12.2 5.5 16 19.6 17.3 40.5 31.5 62 45.3 10.9 6.7 21.9 13.2 33.2 19.4 11.4 5.9 22.9 11.7 34.9 17.2 24 10.4 48.8 20.1 77.4 26.3 7.5 1.2 14.9 2.6 22.6 3.6 8.7 0.3 16.6 1.1 26.1 0.5q7.5-0.7 15.1-1.8c2.7-0.5 4.6-0.6 7.9-1.5q5.2-1.5 10.3-3.4c7.1-2.6 11.7-5.7 17.4-8.9 4.8-3.1 9.2-6.4 13.4-9.8 15.7-13.3 25.4-26.5 33.9-39.2 8.5-12.7 15.3-25.4 21.4-37.8 12.2-24.9 21.7-49.5 29.4-74.3 15.6-49.7 26.2-98.6 30.7-150.5 2.1-24.8-16.3-46.7-41.2-48.8-20.5-1.8-39.1 10.5-46.1 28.9z"/>
				<path id="&lt;Path&gt;" class="s18" d="m1672 1715.1l-20.1-47.8-106-26.4c0 0-8.4 18.4 36 26.4 0 0-15.8 17.6-7.4 38.2 8.5 20.7 98.5 41.4 97.5 9.6z"/>
				<path id="&lt;Path&gt;" class="s19" d="m2058.5 1166.5c-4 2.4-35.7 114.3-9.1 161.2 26.5 46.9 107.7-5.6 129.7-73.5 22-67.8-13.3-150.9-120.6-87.7z"/>
				<path id="&lt;Path&gt;" class="s20" d="m2268.9 1254.2c18.3 89.3 78.6 64.9 121.3 104.5 69.3 64.4 168.4-1.9 264.7 59 69.6 44 103.1 156.6 69.7 247.6-46.2 125.9-204.2 177.7-286 139.3-78.3-36.6-67.1-146.4-172.4-188.8-44.7-18.1-66.8-6.4-93.5-33-46.9-46.8-34.2-137.5-29.4-172.4 10.6-75.8 36-89.5 23.9-122.9-23.6-64.8-133.9-51.4-143-97.1-8.4-41.7 71.5-120.7 146.7-108.2 116.3 19.2 89.9 132.3 98 172z"/>
				<path id="&lt;Path&gt;" class="s2" d="m2689.9 1643.9c1.3 0 2.6-0.9 2.9-2.3 14.9-61.8 8.2-112.5-20.1-150.7-46.8-63.3-137.8-69.6-138.8-69.7-1.4-0.2-3.1 1.2-3.2 2.9-0.1 1.7 1.2 3.1 2.9 3.2 0.9 0.1 89.1 6.2 134.3 67.3 27 36.6 33.5 85.6 19 145.6-0.4 1.6 0.6 3.3 2.2 3.7q0.4 0 0.8 0z"/>
				<path id="&lt;Path&gt;" class="s8" d="m2391.7 1700.5q0.2 0 0.4 0c0.8-0.2 1.3-1.1 1.1-1.9-14.5-55.6-40-94.3-75.7-114.9-25.9-14.9-50.2-16.3-71.7-17.6-20.6-1.2-38.5-2.2-52.9-15-29.7-26.4-28-89.9 5.1-188.8 0.3-0.8-0.1-1.6-0.9-1.9-0.8-0.3-1.7 0.2-2 1-33.5 100.1-34.9 164.7-4.2 192 15.2 13.5 33.5 14.6 54.8 15.8 21.1 1.2 45 2.6 70.3 17.2 35 20.1 59.9 58.2 74.2 113 0.2 0.7 0.8 1.1 1.5 1.1z"/>
				<path id="&lt;Path&gt;" class="s8" d="m2225.9 1232.1q0.2 0 0.5-0.1c0.7-0.2 1.2-1.1 0.9-1.9-11.5-34.3-44.7-29.2-79.9-23.8-22.3 3.4-45.4 7-64.9 1.2-14.6-4.4-23.2-11-25.7-19.9-4.3-15.2 10.7-32.1 10.8-32.2 0.6-0.7 0.5-1.6-0.1-2.2-0.6-0.5-1.6-0.5-2.1 0.1-0.7 0.8-16.3 18.3-11.6 35.1 2.8 9.9 12.2 17.3 27.8 22 20.2 6 43.6 2.4 66.2-1.1 35.4-5.4 65.9-10.1 76.6 21.8 0.2 0.6 0.8 1 1.5 1z"/>
			</g>
			<g id="&lt;Group&gt;">
				<g id="&lt;Group&gt;">
					<path id="&lt;Path&gt;" class="s21" d="m2561.5 885.6c0-157 133.1-284.3 292.7-284.3 154.9 0 277.1 120.6 277.1 269.3 0 148.7-122.2 275.7-277.1 283.9-159.6 8.4-292.7-111.9-292.7-268.9z"/>
				</g>
				<g id="&lt;Group&gt;">
					<path id="&lt;Path&gt;" class="s22" d="m2588.2 884.9c0-142.3 120.6-257.7 265.3-257.7 140.3 0.1 251.1 109.3 251.1 244.1 0 134.8-110.8 249.9-251.1 257.3-144.7 7.6-265.3-101.4-265.3-243.7z"/>
				</g>
				<g id="&lt;Group&gt;">
					<path id="&lt;Path&gt;" class="s7" d="m2767.5 868.7h-23.7v-94.7c0-37.2 27.8-68.6 64.7-73.1l48.6-5.9c21-2.5 42 4 57.8 18 15.7 14 24.8 34.1 24.8 55.1v82.7h-23.8v-82.7c0-14.3-6.1-27.9-16.8-37.3-10.7-9.5-24.9-13.9-39.1-12.2l-48.6 5.9c-25 3-43.9 24.3-43.9 49.5z"/>
					<path id="&lt;Path&gt;" class="s7" d="m2736.7 847.5l208.4-11.6c8.4-0.4 15.6 6.3 15.6 14.8v165c0 8.2-6.6 14.8-14.8 14.8h-203.3c-8 0-14.5-6.3-14.8-14.3l-5-153.5c-0.3-8 5.9-14.8 13.9-15.2z"/>
					<path id="&lt;Path&gt;" class="s23" d="m2875.7 983.2l-12.6-36.2c-1.5-4.4-0.5-9.3 2.7-12.6 6.5-6.5 10.4-15.6 9.9-25.7-0.8-17.6-15.3-32-32.9-32.7-19.6-0.7-35.7 14.9-35.7 34.3 0 10.8 4.9 20.4 12.7 26.7 4 3.3 5.7 8.6 4 13.5l-11.4 32.7c-2.8 8 3.1 16.3 11.5 16.3h40.2c8.5 0 14.4-8.3 11.6-16.3z"/>
				</g>
			</g>
			<g id="&lt;Group&gt;">
				<g id="&lt;Group&gt;">
					<g id="&lt;Group&gt;" style="opacity: .3">
						<path id="&lt;Compound Path&gt;" class="s24" d="m1120.5 2976.7c2.5 5.3 0.9 11.8-4 15.1-10.6 7-21.7 13.7-33 19.9-5.5 3-12.2 0.7-15.1-5q0-0.1-0.1-0.2c-2.7-5.8-0.5-12.7 4.9-15.7 10.7-5.8 21.2-12.1 31.3-18.9 5.2-3.4 12.1-1.8 15.4 3.7q0.4 0.5 0.6 1.1zm-87.4 44.6q0.3 0.6 0.5 1.3c2.1 6.1-0.9 12.8-6.7 15-12 4.4-24.2 8.4-36.4 11.7-5.9 1.7-12-2-13.6-8.3-1.6-6.3 1.9-12.7 7.9-14.3 11.6-3.2 23.2-7 34.5-11.2 5.4-2.1 11.3 0.5 13.8 5.8zm-94.7 23.3q0.9 1.7 1.1 3.8c0.8 6.4-3.6 12.3-9.7 13-12.6 1.6-25.4 2.6-38 3-6.2 0.2-11.3-4.9-11.5-11.4-0.3-6.4 4.6-11.8 10.7-12 12-0.4 24.2-1.4 36.1-2.9 4.8-0.6 9.3 2.2 11.3 6.5zm-97.3 0.4c0.9 2 1.4 4.2 1.1 6.5-0.6 6.4-6.1 11.1-12.3 10.4-12.5-1.4-25.2-3.5-37.6-6-6.1-1.3-10-7.4-8.9-13.8 1.2-6.4 7.1-10.5 13.1-9.2 11.8 2.4 23.9 4.3 35.8 5.7 3.9 0.4 7.2 3 8.8 6.4zm-95-22.3c1.3 2.7 1.6 5.9 0.6 9-2 6.2-8.4 9.4-14.2 7.3-11.9-4.3-23.9-9.3-35.5-14.6-5.6-2.7-8.2-9.6-5.7-15.5 2.5-5.9 9.1-8.6 14.7-6 11 5.1 22.4 9.8 33.7 13.9 2.9 1.1 5.2 3.2 6.4 5.9zm-88-43.8c1.7 3.5 1.7 7.8-0.4 11.3-3.3 5.6-10.2 7.2-15.4 3.8-10.8-7-21.4-14.5-31.5-22.5-5-3.8-6-11.2-2.4-16.4 3.7-5.2 10.7-6.2 15.7-2.4 9.6 7.6 19.7 14.7 29.9 21.4 1.9 1.2 3.2 2.9 4.1 4.8zm-206.1-372.9c0.7 1.4 1.1 3.1 1.1 4.8 0.5 12.6 1.4 25.3 2.9 37.9 0.7 6.4-3.6 12.2-9.8 13-6.1 0.8-11.7-3.8-12.4-10.2-1.5-13.3-2.5-26.7-3-39.9-0.2-6.5 4.6-11.9 10.8-12.2 4.5-0.1 8.5 2.6 10.4 6.6zm129.6 309.7c2.1 4.3 1.4 9.8-2 13.4-4.4 4.6-11.4 4.7-15.8 0.1-9-9.3-17.8-19.2-26-29.3-4-4.9-3.5-12.3 1.2-16.5 4.7-4.2 11.7-3.6 15.8 1.3 7.8 9.6 16.1 19 24.6 27.8q1.4 1.5 2.2 3.2zm-115.2-208.6q0.4 1 0.7 2.2c3.1 12.2 6.8 24.4 10.9 36.3 2.1 6.1-0.9 12.8-6.8 15-5.8 2.2-12.2-1-14.2-7.1-4.3-12.5-8.2-25.4-11.4-38.2-1.6-6.3 1.9-12.7 7.9-14.4 5.2-1.4 10.5 1.3 12.9 6.2zm54 129.1c2.5 5.3 0.8 11.8-4 15.1-5.2 3.4-12.1 1.8-15.4-3.6-6.8-11.2-13.3-22.9-19.1-34.7q-0.1-0.1-0.2-0.2c-2.7-5.7-0.5-12.7 4.9-15.6 5.4-3 12.2-0.8 15 5 5.6 11.2 11.7 22.2 18.2 32.9q0.3 0.5 0.6 1.1z"/>
						<path id="&lt;Path&gt;" class="s25" d="m456.3 2523.7c1 2.1 1.4 4.5 1.1 7-0.9 5.9-1.6 12-2.2 18.1-0.7 6.4-6.2 11.1-12.3 10.4-6.1-0.7-10.6-6.5-9.9-12.9 0.6-6.4 1.4-12.8 2.3-19.1 0.9-6.4 6.5-10.8 12.6-9.9 3.8 0.6 6.8 3.1 8.4 6.4z"/>
					</g>
					<g id="&lt;Group&gt;" style="opacity: .3">
						<path id="&lt;Path&gt;" class="s26" d="m633.4 2218.7c2.4 5.1 1 11.4-3.5 14.8-4.7 3.5-9.4 7.2-13.9 10.9-4.9 4-11.9 3-15.7-2.1-3.8-5.1-2.9-12.5 1.9-16.5 4.8-3.9 9.8-7.7 14.7-11.4 5-3.8 12-2.6 15.6 2.7q0.5 0.8 0.9 1.6z"/>
						<path id="&lt;Compound Path&gt;" class="s27" d="m1275.9 2387.8q3.4 7.3 6.6 14.7c2.6 5.9 0.1 12.8-5.5 15.5-5.6 2.7-12.2 0.1-14.8-5.8-4.9-11.4-10.3-22.6-16.1-33.4-3-5.7-1.1-12.8 4.3-16 5.4-3.1 12.2-1.1 15.2 4.6 3.6 6.6 7 13.5 10.3 20.4zm27.4 72.7q0.4 0.9 0.7 1.9c3.6 12.5 6.7 25.4 9.3 38.1 1.3 6.4-2.6 12.6-8.6 13.9-6 1.3-12-2.7-13.2-9.1-2.5-12.1-5.5-24.3-8.9-36.2-1.8-6.2 1.6-12.8 7.5-14.6 5.3-1.7 10.8 1 13.2 6zm-69.9-144.8c2.3 4.9 1.1 11.1-3.3 14.5-4.9 3.9-11.9 2.9-15.6-2.3-7.1-9.9-14.8-19.6-22.7-28.9-4.1-4.8-3.7-12.2 0.9-16.5 4.5-4.4 11.6-3.9 15.7 0.9 8.4 9.7 16.4 20 23.9 30.4q0.6 0.9 1.1 1.9zm87.3 243.8c0.6 1.3 1 2.8 1.1 4.4 0.9 13 1.2 26.3 1.1 39.3-0.1 6.5-5.2 11.7-11.3 11.6-6.2-0.1-11.1-5.5-11.1-11.9 0.2-12.5-0.1-25-1-37.4-0.4-6.5 4.2-12.1 10.4-12.5 4.6-0.4 8.8 2.3 10.8 6.5zm-153.2-316.9c2 4 1.5 9.1-1.4 12.8-4 4.9-11 5.5-15.8 1.3-9-8-18.4-15.7-28.1-22.9-5-3.8-6.2-11.1-2.6-16.4 3.5-5.3 10.5-6.5 15.5-2.7 10.2 7.6 20.2 15.7 29.6 24.1 1.2 1.1 2.2 2.4 2.8 3.8zm-79.4-56.2c1.5 3.2 1.6 7.2-0.1 10.6-2.9 5.8-9.6 8-15.1 5-10.5-5.8-21.3-11.2-32.2-16-5.7-2.5-8.4-9.4-6-15.4 2.4-5.9 8.9-8.7 14.6-6.2 11.5 5.1 22.9 10.7 33.9 16.8 2.2 1.2 3.8 3 4.9 5.2zm-89.3-36.7c1.2 2.5 1.6 5.4 0.8 8.3-1.6 6.2-7.7 9.9-13.6 8.2-11.5-3.2-23.2-6-34.8-8.2-6.1-1.2-10.1-7.3-9-13.6 1.1-6.4 6.9-10.6 13-9.5 12.2 2.4 24.5 5.3 36.5 8.7 3.2 0.9 5.8 3.2 7.1 6.1zm-94.6-15.4c0.8 1.7 1.2 3.7 1.1 5.7-0.2 6.5-5.4 11.5-11.6 11.2-11.8-0.5-23.8-0.5-35.6 0-6.1 0.3-11.4-4.8-11.6-11.2-0.3-6.5 4.5-12 10.6-12.2 12.5-0.6 25.1-0.6 37.5 0 4.3 0.2 7.8 2.8 9.6 6.5zm-95.6 6.8q0.7 1.5 1 3.1c1.1 6.4-2.9 12.5-9 13.7-11.6 2.2-23.2 4.9-34.6 8.2-6 1.7-12.1-2.1-13.8-8.3-1.6-6.2 1.9-12.7 7.9-14.4 12-3.4 24.3-6.3 36.5-8.6 5-1 9.9 1.8 12 6.3zm-91.6 28.7q0.1 0.3 0.2 0.7c2.4 5.9-0.2 12.8-5.9 15.3-8 3.6-16 7.4-23.8 11.5q-4.2 2.2-8.4 4.5c-5.4 3-12.2 0.7-15-5-3.1-5.8-0.8-12.8 4.6-15.8q4.4-2.4 8.9-4.8c8.1-4.2 16.6-8.3 25-12 5.5-2.4 11.7 0.1 14.4 5.6z"/>
						<path id="&lt;Path&gt;" class="s28" d="m1316.8 2660.3c1 2 1.4 4.5 1 6.9-0.9 6.3-1.9 12.7-3.1 19-1.2 6.3-7 10.5-13.1 9.2-6-1.2-10-7.4-8.8-13.7 1.1-6 2.1-12.1 3-18 0.9-6.4 6.6-10.8 12.7-9.8 3.7 0.6 6.7 3 8.3 6.4z"/>
					</g>
					<g id="&lt;Group&gt;">
						<path id="&lt;Compound Path&gt;" class="s29" d="m1194.1 2706.4c0.9-2.1 0.5-4.6-1.2-6.2l-46.2-46c5.8-30.5 6.9-62.3 2.9-94.1l48.9-42.5c1.7-1.4 2.3-3.9 1.5-6.1l-26.9-75c-0.8-2.2-2.8-3.6-5-3.5l-63.5 1.7c-17-26.6-37.8-49.7-61.4-68.8l5.9-66.4c0.2-2.3-1-4.5-3-5.5l-69.5-33.1c-2-1-4.4-0.5-5.9 1.2l-43.6 48.4c-29.1-6.1-59.4-7.4-89.7-3.3l-40.5-51.4c-1.4-1.8-3.8-2.4-5.9-1.6l-71.3 28.1c-2.1 0.8-3.4 2.9-3.3 5.3l1.8 66.6c-25.4 17.8-47.3 39.6-65.4 64.3l-63.2-6.3c-2.3-0.2-4.4 1-5.3 3.2l-31.4 72.8c-0.9 2.2-0.4 4.7 1.2 6.3l46.2 45.9c-5.7 30.6-6.9 62.3-2.9 94.1l-48.8 42.5c-1.7 1.5-2.4 3.9-1.6 6.1l26.9 75c0.8 2.2 2.8 3.6 5.1 3.5l63.4-1.7c17 26.7 37.9 49.8 61.4 68.8l-5.9 66.4c-0.2 2.3 1.1 4.6 3.1 5.5l69.4 33.2c2.1 0.9 4.4 0.4 6-1.2l43.6-48.5c29.1 6.1 59.3 7.4 89.6 3.3l40.6 51.4c1.4 1.8 3.7 2.5 5.8 1.6l71.3-28c2.1-0.9 3.5-3 3.4-5.3l-1.8-66.7c25.3-17.8 47.3-39.6 65.3-64.3l63.3 6.3c2.2 0.3 4.3-1 5.2-3.1z"/>
						<path id="&lt;Compound Path&gt;" fill-rule="evenodd" class="s8" d="m942.1 2561.7c16.7 35.1 6.7 78.8-24.8 101.8-34.7 25.2-82.5 16.1-106.6-20.4-11.7-17.6-16.2-39-12.6-60.2 3.6-21.1 14.9-39.5 31.7-51.7 34.6-25.3 82.5-16.2 106.6 20.3q3.3 4.9 5.7 10.2zm-121.2 62.9q1.9 4 4.4 7.8c18.5 28 55.2 35 81.8 15.6 26.6-19.3 33.1-57.8 14.6-85.8-18.5-28-55.2-35-81.7-15.6-12.9 9.4-21.5 23.5-24.3 39.7-2.2 13.2-0.4 26.5 5.2 38.3z"/>
						<path id="&lt;Path&gt;" class="s8" d="m1040.5 2508.7q4.3 9 7.7 18.6 1.1 3.1 2.1 6.1c3.2 10 5.7 20.3 7.4 30.7q0.1 0.2 0.1 0.5 0.1 0.6 0.2 1.2 0.2 1.1 0.3 2.3c0.3 2.1-0.7 4-2.4 4.9q-0.6 0.3-1.3 0.4c-2.5 0.4-4.7-1.4-5.1-3.9-1.9-13.2-5.1-26.3-9.6-38.9-22.5-62.5-73.3-105.3-131.4-118.2-32.3-7.2-66.8-5.1-99.9 7.9q-8.7 3.4-16.9 7.7c-36.8 19.2-66 50.8-83.2 90.7-19.7 45.8-21.3 97-4.4 144.2 35 97.3 138.7 146.8 231.2 110.3q8.6-3.4 16.8-7.6c23.5-12.2 44.1-29.8 60.5-51.4q0.6-0.8 1.5-1.2c1.5-0.8 3.3-0.7 4.7 0.5 2 1.6 2.3 4.6 0.8 6.6-17.2 22.7-38.9 41-63.6 53.9q-8.5 4.4-17.5 8c-97.2 38.3-206.1-13.7-242.7-115.9-17.8-49.4-16.2-103.2 4.6-151.3 18-41.8 48.6-75.1 87.3-95.2q8.7-4.5 17.8-8.1c47.1-18.5 98.2-16.7 144.1 5.2 39.9 19 71.6 51.3 90.9 92z"/>
					</g>
				</g>
				<g id="&lt;Group&gt;">
					<g id="&lt;Group&gt;" style="opacity: .3">
						<path id="&lt;Path&gt;" class="s30" d="m1553.8 3198.4c1.4 2.8 0.8 6.3-1.5 8.5-4.3 4.2-8.7 8.3-13.3 12.2-2.9 2.5-7.2 2-9.7-1.1-2.4-3.1-2-7.6 1-10.2 4.3-3.7 8.6-7.6 12.7-11.6 2.8-2.7 7.1-2.5 9.7 0.5q0.7 0.8 1.1 1.7z"/>
						<path id="&lt;Compound Path&gt;" class="s31" d="m1511.8 3232.2c1.5 3.3 0.5 7.4-2.5 9.4-8.6 5.6-17.5 10.8-26.5 15.5q-2.8 1.5-5.7 2.9c-3.5 1.7-7.5-0.1-9.2-3.4-1.6-3.7-0.2-8 3.3-9.7q2.7-1.3 5.5-2.8c8.6-4.4 17.1-9.4 25.2-14.8 3.2-2.1 7.5-1.1 9.5 2.3q0.2 0.3 0.4 0.6zm-64.8 32q0.2 0.4 0.4 0.9c1.2 3.8-0.8 7.9-4.4 9.2-11.6 4-23.6 7.2-35.5 9.7-3.8 0.8-7.4-1.8-8.1-5.7-0.8-4 1.6-7.8 5.4-8.5 11.4-2.4 22.8-5.5 33.8-9.3 3.3-1.1 6.9 0.5 8.4 3.7zm-70.3 14.4q0.6 1.2 0.7 2.7c0.3 4-2.6 7.5-6.4 7.7-12.1 0.9-24.5 1-36.7 0.3-3.8-0.2-6.7-3.6-6.5-7.6 0.2-4 3.4-7.1 7.2-6.9 11.7 0.7 23.4 0.6 35.1-0.2 2.8-0.2 5.4 1.5 6.6 4zm-71.5-4.1c0.6 1.3 0.9 2.9 0.6 4.5-0.7 3.9-4.2 6.5-8 5.8-12-2.3-24-5.4-35.7-9.2-3.6-1.2-5.7-5.2-4.5-9.1 1.1-3.8 4.9-5.9 8.6-4.7 11.1 3.6 22.5 6.6 34 8.7 2.3 0.5 4 2 5 4zm-68.4-22.4c0.8 1.9 1 4.2 0.1 6.2-1.6 3.7-5.7 5.3-9.1 3.6-11.2-5.3-22.1-11.3-32.6-18-3.2-2-4.3-6.5-2.3-9.9 2-3.4 6.2-4.5 9.5-2.5 9.9 6.4 20.4 12.2 31 17.2 1.5 0.7 2.7 2 3.4 3.4zm-61.3-39.1c1.2 2.4 1 5.4-0.7 7.7-2.4 3.1-6.7 3.7-9.7 1.2-9.6-8-18.8-16.6-27.4-25.8-2.7-2.8-2.6-7.4 0.1-10.2 2.7-2.8 7.1-2.8 9.7 0.1 8.2 8.7 17 16.9 26.1 24.5 0.8 0.7 1.5 1.6 1.9 2.5zm-50.3-53.6c1.5 3 0.7 6.8-1.9 8.9-3.1 2.5-7.4 1.9-9.7-1.3-7.4-10.2-14.3-20.9-20.5-32-1.9-3.5-0.9-7.9 2.4-10 3.3-2 7.5-0.8 9.5 2.6 5.9 10.6 12.5 20.9 19.5 30.6q0.4 0.6 0.7 1.2zm-48.5-100.4q0.3 0.5 0.5 1.2c2.8 10.1 6.2 20.3 10.1 30.2q0.9 2.2 1.8 4.4c1.5 3.7-0.1 7.9-3.6 9.5-3.5 1.6-7.6-0.1-9.1-3.8q-0.9-2.3-1.8-4.7c-4.1-10.3-7.7-20.9-10.7-31.6-1-3.8 1-7.8 4.7-9 3.3-1 6.7 0.7 8.1 3.8z"/>
					</g>
					<g id="&lt;Group&gt;" style="opacity: .3">
						<path id="&lt;Compound Path&gt;" class="s32" d="m1614.7 2834.2c1.7 3.6 0.3 7.9-3 9.7-3.4 1.8-7.6 0.4-9.3-3.2-5.3-10.7-11.2-21.2-17.6-31.1-2.1-3.3-1.3-7.8 1.9-10.1 3.1-2.2 7.4-1.3 9.5 2 6.8 10.4 13 21.4 18.5 32.6 0 0 0 0.1 0 0.1zm14.2 34q0.2 0.3 0.3 0.7c4.2 11.8 7.7 24.1 10.5 36.3 0.9 3.9-1.4 7.8-5.1 8.7-3.7 1-7.4-1.5-8.3-5.3-2.7-11.7-6-23.4-10-34.7-1.3-3.7 0.5-7.9 4.1-9.3 3.3-1.3 7 0.3 8.5 3.6zm-53.7-95.3c1.3 2.9 0.7 6.5-1.7 8.7-2.8 2.6-7.2 2.3-9.7-0.7-7.6-9.1-15.7-17.8-24.2-25.8-2.9-2.7-3.1-7.3-0.6-10.3 2.6-2.9 6.9-3.2 9.8-0.5 8.9 8.4 17.4 17.5 25.4 27.1q0.6 0.7 1 1.5zm70.1 167.3q0.5 1.1 0.6 2.4c1.4 12.6 2 25.3 1.9 38-0.1 4-3.2 7.2-7 7.1-3.8 0-6.8-3.3-6.8-7.3 0.1-12-0.5-24.2-1.8-36.2-0.4-3.9 2.3-7.5 6.1-8 3-0.3 5.7 1.4 7 4zm-122.6-216.8c1.1 2.3 1 5.2-0.5 7.4-2.2 3.3-6.5 4.1-9.6 1.8-9.4-6.9-19.3-13.3-29.4-19-3.4-1.8-4.7-6.2-2.9-9.8 1.8-3.5 6-4.8 9.4-2.9 10.6 5.9 20.9 12.6 30.8 19.8 1 0.7 1.7 1.7 2.2 2.7zm-62.2-34.8c0.8 1.7 1 3.8 0.3 5.8-1.4 3.7-5.4 5.6-9 4.1-10.7-4.3-21.7-8-32.8-11-3.7-1-5.9-4.9-5-8.8 0.9-3.9 4.7-6.2 8.4-5.2 11.6 3.1 23.2 7 34.4 11.5 1.7 0.7 3 2 3.7 3.6zm-68.3-18.3c0.6 1.3 0.8 2.7 0.6 4.2-0.4 3.9-3.9 6.7-7.7 6.2-11.4-1.5-22.9-2.3-34.4-2.4-3.8 0-6.8-3.3-6.8-7.3 0-4 3.1-7.2 6.9-7.2 12 0.1 24.1 0.9 36.1 2.6 2.3 0.3 4.3 1.8 5.3 3.9z"/>
						<path id="&lt;Path&gt;" class="s33" d="m1644.5 3014.6c0.6 1.2 0.9 2.7 0.7 4.2-0.8 6.1-1.8 12.2-2.9 18.2-0.7 4-4.3 6.5-8.1 5.7-3.7-0.7-6.1-4.5-5.4-8.5 1-5.7 2-11.5 2.7-17.4 0.5-4 4-6.7 7.8-6.2 2.3 0.3 4.2 1.9 5.2 4z"/>
					</g>
					<g id="&lt;Group&gt;">
						<path id="&lt;Compound Path&gt;" class="s34" d="m1562.2 3050.7c0.6-1.4 0.3-3.1-0.8-4.2l-30.9-30.7c3.8-20.5 4.6-41.7 1.9-63l32.7-28.4c1.2-1 1.6-2.7 1-4.1l-18-50.2c-0.5-1.5-1.8-2.4-3.3-2.4l-42.5 1.2c-11.4-17.9-25.3-33.3-41.1-46l4-44.5c0.1-1.6-0.7-3-2.1-3.7l-46.4-22.2c-1.4-0.6-3-0.3-4 0.9l-29.2 32.4c-19.5-4.1-39.7-5-60-2.2l-27.1-34.4c-1-1.2-2.5-1.7-3.9-1.1l-47.7 18.8c-1.4 0.5-2.3 1.9-2.3 3.5l1.2 44.6c-16.9 11.9-31.6 26.5-43.7 43l-42.3-4.2c-1.5-0.1-2.9 0.7-3.6 2.1l-21 48.8c-0.6 1.4-0.3 3.1 0.8 4.2l30.9 30.7c-3.8 20.4-4.5 41.7-1.9 63l-32.7 28.4c-1.1 1-1.5 2.6-1 4.1l18 50.2c0.5 1.4 1.9 2.4 3.4 2.3l42.4-1.1c11.4 17.8 25.4 33.3 41.1 46l-3.9 44.5c-0.2 1.5 0.7 3 2 3.6l46.5 22.2c1.3 0.7 2.9 0.3 4-0.8l29.1-32.4c19.5 4.1 39.8 4.9 60 2.2l27.2 34.4c0.9 1.2 2.5 1.6 3.9 1.1l47.7-18.8c1.4-0.6 2.3-2 2.2-3.5l-1.2-44.6c17-12 31.7-26.6 43.8-43.1l42.3 4.3c1.5 0.1 2.9-0.7 3.5-2.2z"/>
						<path id="&lt;Compound Path&gt;" fill-rule="evenodd" class="s8" d="m1394.4 2953.5c5 10.5 6.6 22.3 4.6 34-2.4 14.4-10.1 26.9-21.5 35.2-23.6 17.2-56.2 11-72.7-13.8-16.4-24.9-10.6-59.1 13.1-76.3 11.4-8.3 25.3-11.5 39-8.8 13.7 2.6 25.6 10.6 33.6 22.7q2.2 3.4 3.9 7zm-81.1 42q1.2 2.7 2.9 5.1c12.1 18.3 36 22.9 53.4 10.2 8.4-6.1 14-15.3 15.8-25.9 1.9-10.6-0.4-21.3-6.2-30.2-5.9-8.8-14.7-14.8-24.8-16.7-10.1-1.9-20.2 0.4-28.7 6.5-15.8 11.6-20.7 33.4-12.4 51z"/>
						<path id="&lt;Path&gt;" class="s8" d="m1462.9 2916.7q3 6.1 5.3 12.7c3.1 8.7 5.4 17.8 6.8 26.9q0.1 0.6 0.2 1.2c0.5 3.2-1.1 6.2-3.7 7.6q-1 0.5-2.1 0.7c-3.8 0.5-7.3-2.2-7.8-6.1-1.3-8.6-3.4-17.1-6.3-25.2q-0.2-0.7-0.5-1.3c-7.1-19.2-18.4-35.8-33-48.8-7.9-7-16.7-13-26.4-17.7q-0.1 0-0.2-0.1-0.4-0.2-0.7-0.3c-28.3-13.5-59.8-14.7-88.9-3.2q-5.6 2.2-10.9 5c-23.9 12.4-42.8 32.9-53.9 58.7-12.8 29.6-13.8 62.8-2.8 93.3 10.9 30.5 32.5 54.7 60.8 68.2 28.3 13.5 59.8 14.7 88.9 3.2q5.5-2.2 10.8-4.9c15.2-7.9 28.6-19.2 39.1-33.2q1-1.3 2.4-2c2.3-1.2 5.2-1 7.3 0.8 3 2.5 3.5 7.1 1.2 10.2-11.9 15.6-26.8 28.3-43.9 37.2q-5.9 3.1-12.1 5.5c-32.4 12.8-67.7 11.5-99.4-3.6-31.6-15.1-55.8-42.2-68-76.3-12.3-34.2-11.2-71.2 3.1-104.4 12.5-28.9 33.6-51.8 60.3-65.7q6-3.1 12.3-5.6c62.8-24.8 132.8 5.2 162.1 67.2z"/>
					</g>
				</g>
			</g>
		</g>
	</g>
</svg>