<svg version="1.2" xmlns="http://www.w3.org/2000/svg" viewBox="0 0 1000 1000" width="1000" height="1000">
	<title>2853456-ai</title>
	<style>
		.s0 { fill: #f5f5f5 } 
		.s1 { fill: #ebebeb } 
		.s2 { fill: #27debf } 
		.s3 { opacity: .1;fill: #000000 } 
		.s4 { fill: #ffffff } 
		.s5 { fill: #fafafa } 
		.s6 { fill: #e0e0e0 } 
		.s7 { fill: #455a64 } 
		.s8 { fill: #000000 } 
		.s9 { opacity: .4;fill: #ffffff } 
		.s10 { opacity: .2;fill: #000000 } 
		.s11 { fill: #fafafa;stroke: #e0e0e0;stroke-width: 2.3 } 
		.s12 { fill: #37474f } 
	</style>
	<g id="Floor">
		<path id="Floor 15 " class="s0" d="m170.9 836c177.5 90.8 465.3 90.8 642.8 0 177.6-90.7 177.6-237.9 0-328.6-177.5-90.8-465.3-90.8-642.8-0.1-177.5 90.8-177.5 238 0 328.7z"/>
	</g>
	<g id="Shadows">
		<path id="Shadow 37 " class="s1" d="m751.5 691c9.7 5.6 28.8 3.7 42.7-4.3l79.8-46.4c13.9-8 17.2-19 7.5-24.7-9.8-5.6-28.9-3.7-42.8 4.3l-79.8 46.5c-13.8 8-17.2 19-7.4 24.6z"/>
		<path id="Shadow 36 " class="s1" d="m270.6 733.8l-81.2-46.9 81.2-46.9z"/>
		<path id="Shadow 35 " class="s1" d="m500.2 761.9l-130.9-75.7 131-75.5z"/>
	</g>
	<g id="Plants">
		<g id="Plants 14 ">
			<g id="&lt;Group&gt;">
				<g id="&lt;Group&gt;">
					<path id="&lt;Path&gt;" class="s2" d="m160.7 624.1c0.3-19-13-58.5-32.4-83.4-19.5-24.9-50.2-43.3-72.4-36.1-20.6 6.8-18.7 33.7 6 51.9 24.7 18.1 61.8 41 72.4 71.9l22.5 38.1z"/>
					<path id="&lt;Path&gt;" class="s3" d="m160.7 624.1c0.3-19-13-58.5-32.4-83.4-19.5-24.9-50.2-43.3-72.4-36.1-20.6 6.8-18.7 33.7 6 51.9 24.7 18.1 61.8 41 72.4 71.9l22.5 38.1z"/>
				</g>
				<g id="&lt;Group&gt;">
					<path id="&lt;Path&gt;" class="s4" d="m161.8 650.2c-0.6-0.1-1.1-0.6-1.2-1.2-12-65-63.8-118.4-95.1-130.4-0.7-0.3-1.1-1.1-0.8-1.8 0.3-0.7 1.1-1.1 1.8-0.8 31.9 12.3 84.7 66.5 96.8 132.5 0.1 0.8-0.4 1.5-1.1 1.6q-0.2 0.1-0.4 0.1z"/>
				</g>
			</g>
			<g id="&lt;Group&gt;">
				<g id="&lt;Group&gt;">
					<path id="&lt;Path&gt;" class="s2" d="m151.6 691.6c-2.9-10.8-15.7-28.5-36.6-43.4-23.2-16.3-52.6-24.1-59.3-36.7-8-15.2 4.9-29.3 28.8-26 23.9 3.3 65.7 36.5 71.9 85.8z"/>
				</g>
				<g id="&lt;Group&gt;">
					<path id="&lt;Path&gt;" class="s4" d="m156.4 680.4c-0.5 0-1-0.4-1.2-0.9-19.2-55.8-61.4-75.9-81-78.6-0.7-0.1-1.3-0.8-1.1-1.6 0.1-0.8 0.7-1.3 1.5-1.2 21.7 3.1 63.6 23.5 83.3 80.5 0.2 0.7-0.2 1.5-0.9 1.7q-0.3 0.1-0.6 0.1z"/>
				</g>
			</g>
		</g>
		<g id="Plants 15 ">
			<g id="&lt;Group&gt;">
				<path id="&lt;Path&gt;" class="s2" d="m869.9 570c0 0 2.6-40 26.2-69.8 23.6-29.7 22.2-41.9 5.9-47.9-16.3-6-54.1 29.8-45.7 77.8 8.4 48 13.6 39.9 13.6 39.9z"/>
				<path id="&lt;Path&gt;" class="s3" d="m869.9 570c0 0 2.6-40 26.2-69.8 23.6-29.7 22.2-41.9 5.9-47.9-16.3-6-54.1 29.8-45.7 77.8 8.4 48 13.6 39.9 13.6 39.9z"/>
				<g id="&lt;Group&gt;">
					<path id="&lt;Path&gt;" class="s4" d="m862.6 547.2c-0.5 0-0.9-0.4-0.9-0.9-2.7-44.1 28.4-80.3 40.1-88.5 0.4-0.3 1-0.2 1.3 0.2 0.3 0.4 0.2 1-0.3 1.3-11.4 8-41.9 43.5-39.2 86.9 0 0.5-0.4 0.9-0.9 1q0 0-0.1 0z"/>
				</g>
			</g>
			<g id="&lt;Group&gt;">
				<g id="&lt;Group&gt;">
					<path id="&lt;Path&gt;" class="s2" d="m863.4 603.1c0 0 14.3 5 32.5 7.9 18.3 2.8 26.4-5.9 26.4-5.9 0 0-7.2-17.1-17.6-22 0 0 17.6 3.6 31.7 13.1 0 0 11.2 0.1 15.6-16.9 0 0-6.6-10.3-28.8-15.8 0 0 13.5-3.4 33 1.6 1.5 0.5 7.7-21.5 9.6-31.6 1.8-10.2-2.2-10.1-10.2-12.2-7.9-2.1-34.1-8-39.1-3.7-5 4.4-7.5 19.3-7.5 19.3 0 0-3.2-8.8-0.7-18.9 0 0-7.1-2.8-18.2 0.4-9.1 2.7-9.5 8.8-9.1 15.8 0.3 5.1 1.5 10.5 3.9 17.7 0 0-7-9.1-7.3-28.7 0 0-18.5 9.2-21.6 27.6-1.7 9.9-4.2 39.1 7.4 52.3z"/>
					<g id="&lt;Group&gt;">
						<path id="&lt;Path&gt;" class="s4" d="m866.9 599.6c0.4 0 0.8-0.3 1-0.6 14.7-30.7 69.6-66.3 89.2-70.1 0.6-0.1 0.9-0.7 0.8-1.2-0.1-0.6-0.6-0.9-1.2-0.8-20 3.9-75.7 40-90.7 71.2-0.2 0.5 0 1.1 0.5 1.4q0.2 0.1 0.4 0.1z"/>
					</g>
				</g>
			</g>
		</g>
	</g>
	<g id="Computer Screen">
		<g id="&lt;Group&gt;">
			<g id="&lt;Group&gt;">
				<g id="&lt;Group&gt;">
					<path id="&lt;Path&gt;" class="s5" d="m153.6 705.7c-2.3 0-3.7-1.8-3.7-5v-336.4l412-237.9v335.1c0 5.1-3.6 11.4-8 14l-397.1 229.2c-1.1 0.7-2.3 1-3.2 1z"/>
					<path id="&lt;Compound Path&gt;" fill-rule="evenodd" class="s6" d="m563.1 461.5c0 5.5-3.9 12.2-8.7 15l-397 229.2c-1.4 0.8-2.7 1.2-3.8 1.2-2.9 0-4.8-2.3-4.8-6.2v-337.1l414.3-239.2zm-412-96.5v335.7c0 1.2 0.2 3.9 2.5 3.9 0.7 0 1.7-0.3 2.7-0.9l397-229.2c4-2.4 7.5-8.3 7.5-13v-333z"/>
				</g>
				<path id="&lt;Path&gt;" class="s2" d="m148.8 363.6v56.3l414.3-239.2v-56.3z"/>
				<path id="&lt;Path&gt;" class="s5" d="m181.3 366.6v8.1c0 1.6 1.1 2.3 2.6 1.5l127.3-73.5v-14.1l-127.3 73.5c-1.5 0.9-2.6 2.9-2.6 4.5z"/>
				<path id="&lt;Path&gt;" class="s7" d="m324.9 280.7c1.4-0.8 2.6-0.2 2.6 1.5v8.1c0 1.6-1.2 3.6-2.6 4.5l-13.7 7.9v-14.1z"/>
				<path id="&lt;Path&gt;" class="s7" d="m148.8 345.5c0-5.5 3.8-12.3 8.6-15l397-229.2c4.8-2.8 8.7-0.6 8.7 5v18.1l-414.3 239.2z"/>
				<g id="&lt;Group&gt;">
					<path id="&lt;Path&gt;" class="s2" d="m517 132.3c-2.2 1.3-4 4.4-4 7 0 2.6 1.8 3.6 4 2.4 2.3-1.3 4.1-4.5 4.1-7.1 0-2.6-1.8-3.6-4.1-2.3z"/>
					<path id="&lt;Path&gt;" class="s2" d="m529.9 124.8c-2.2 1.3-4 4.5-4 7.1 0 2.6 1.8 3.6 4 2.3 2.3-1.3 4.1-4.4 4.1-7 0-2.6-1.8-3.7-4.1-2.4z"/>
					<path id="&lt;Path&gt;" class="s2" d="m542.8 117.4c-2.3 1.3-4.1 4.4-4.1 7 0 2.6 1.8 3.7 4.1 2.4 2.2-1.3 4-4.5 4-7.1 0-2.6-1.8-3.6-4-2.3z"/>
				</g>
				<g id="&lt;Group&gt;" style="opacity: .1">
					<path id="&lt;Path&gt;" class="s8" d="m433.1 217.3c-4.9 2.9-8.9 9.8-8.9 15.4 0 5.7 4 8 8.9 5.2 4.9-2.9 8.9-9.8 8.9-15.4 0-5.7-4-8-8.9-5.2z"/>
					<path id="&lt;Path&gt;" class="s8" d="m392.5 240.8c-4.9 2.8-8.9 9.7-8.9 15.4 0 5.6 4 7.9 8.9 5.1 4.9-2.8 8.9-9.7 8.9-15.4 0-5.6-4-7.9-8.9-5.1z"/>
					<path id="&lt;Path&gt;" class="s8" d="m473.7 193.9c-4.9 2.8-8.8 9.7-8.8 15.4 0 5.6 3.9 7.9 8.8 5.1 4.9-2.8 8.9-9.7 8.9-15.4 0-5.6-4-7.9-8.9-5.1z"/>
					<path id="&lt;Path&gt;" class="s8" d="m514.4 170.4c-5 2.8-8.9 9.7-8.9 15.4 0 5.6 3.9 7.9 8.9 5.1 4.9-2.8 8.8-9.7 8.8-15.4 0-5.6-3.9-7.9-8.8-5.1z"/>
				</g>
			</g>
			<path id="&lt;Path&gt;" class="s6" d="m189.9 424.3l96.4-55.7c4.8-2.7 8.7-0.5 8.7 5v92.6c0 5.5-3.9 12.2-8.7 15l-96.4 55.7c-4.8 2.7-8.6 0.5-8.6-5v-92.6c0-5.5 3.8-12.2 8.6-15z"/>
			<path id="&lt;Path&gt;" class="s6" d="m328 344.6l202.1-116.7c4.7-2.8 8.6-0.5 8.6 5v92.6c0 5.5-3.9 12.2-8.6 15l-202.1 116.6c-4.7 2.8-8.6 0.5-8.6-5v-92.5c0-5.6 3.9-12.3 8.6-15z"/>
			<g id="&lt;Group&gt;">
				<path id="&lt;Path&gt;" class="s6" d="m189.9 565l153.3-88.5c4.8-2.8 8.7-0.8 8.7 4.4 0 5.2-3.9 11.6-8.7 14.4l-153.3 88.5c-4.8 2.7-8.6 0.8-8.6-4.4 0-5.2 3.8-11.6 8.6-14.4z"/>
				<path id="&lt;Path&gt;" class="s6" d="m189.9 597.8l153.3-88.5c4.8-2.7 8.7-0.8 8.7 4.4 0 5.2-3.9 11.6-8.7 14.4l-153.3 88.5c-4.8 2.8-8.6 0.8-8.6-4.4 0-5.2 3.8-11.6 8.6-14.4z"/>
				<path id="&lt;Path&gt;" class="s6" d="m189.9 630.7l153.3-88.5c4.8-2.8 8.7-0.8 8.7 4.3 0 5.2-3.9 11.7-8.7 14.4l-153.3 88.5c-4.8 2.8-8.6 0.8-8.6-4.4 0-5.1 3.8-11.6 8.6-14.3z"/>
			</g>
		</g>
	</g>
	<g id="Envelope">
		<g id="&lt;Group&gt;">
			<g id="Letter 2 ">
				<g id="&lt;Group&gt;">
					<g id="&lt;Group&gt;">
						<path id="&lt;Path&gt;" class="s2" d="m262.5 519.3c0-3.3 2.3-7.3 5.2-9l265.8-153.4c2.9-1.7 7.5-1.7 10.4 0l5.9 3.4c2.8 1.6 5.2 5.6 5.2 9v203.7c0 3.3-2.4 7.4-5.2 9l-265.8 153.5c-2.9 1.6-7.6 1.6-10.4 0l-5.9-3.4c-2.9-1.6-5.2-5.7-5.2-9z"/>
					</g>
				</g>
				<path id="&lt;Path&gt;" class="s9" d="m264 514.2l14.8 8.5 274.6-158.6c-0.9-1.6-2.2-3-3.6-3.9l-5.9-3.3c-2.8-1.7-7.5-1.7-10.4 0l-265.8 153.4c-1.4 0.9-2.7 2.3-3.7 3.9z"/>
				<path id="&lt;Path&gt;" class="s3" d="m262.5 519.3v203.8c0 3.3 2.3 7.3 5.2 9l5.9 3.4q0.6 0.4 1.4 0.6 1 0.4 2.1 0.5c1.4 0.2 2.8 0.1 4.1-0.1q0.6-0.1 1-0.3 0.4-0.1 0.7-0.2c-1 0.3-1.8 0.2-2.5-0.1-1-0.5-1.6-1.7-1.6-3.4v-203.8c0-2.1 1.1-3.7 2.7-4.4l-2.7-1.6-14.8-8.5c-0.9 1.6-1.5 3.5-1.5 5.1z"/>
				<path id="&lt;Path&gt;" class="s10" d="m278.8 522.7l123.1 46c8.7 3.3 18.6 0 23.7-7.8l19.8-30.3 109-167-105.1 168.2 105.7 41.3c-0.1 1.7-0.7 3.5-1.7 5.2l-104.3-46.1-22.9 36.8c-5.3 8.4-16 11.7-25.1 7.7l-16.3-7.2-104.3 166.4c-1-0.5-1.6-1.7-1.6-3.4v-3.4l105.3-159.9z"/>
			</g>
		</g>
	</g>
	<g id="Mobile Screen">
		<g id="&lt;Group&gt;">
			<path id="&lt;Path&gt;" class="s11" d="m498.1 288.8v467.8c0 5.5 3.9 7.8 8.7 5l210.1-121.3c4.8-2.8 8.7-9.5 8.7-15v-467.8c0-5.5-3.9-7.8-8.7-5l-210.1 121.3c-4.8 2.8-8.7 9.5-8.7 15z"/>
			<path id="&lt;Path&gt;" class="s7" d="m510.3 297.5c0-1.3 1-2.9 2.2-3.6l24-13.8c1.2-0.8 2.2-0.3 2.2 1 0 1.3-1 2.9-2.2 3.7l-24 13.8c-1.2 0.7-2.2 0.2-2.2-1.1z"/>
			<path id="&lt;Path&gt;" class="s7" d="m510.3 306.8c0-1.3 1-2.9 2.2-3.6l24-13.8c1.2-0.7 2.2-0.3 2.2 1 0 1.3-1 3-2.2 3.7l-24 13.8c-1.2 0.7-2.2 0.2-2.2-1.1z"/>
			<path id="&lt;Path&gt;" class="s7" d="m510.3 316.2c0-1.3 1-3 2.2-3.7l24-13.8c1.2-0.7 2.2-0.3 2.2 1 0 1.3-1 3-2.2 3.7l-24 13.8c-1.2 0.7-2.2 0.3-2.2-1z"/>
			<path id="&lt;Compound Path&gt;" fill-rule="evenodd" class="s12" d="m709 196.8l-3 2.1c-0.1 0.1-0.3 0.4-0.4 0.6q-0.3 1.3-0.7 2.6c-0.1 0.2 0 0.4 0.1 0.6l1.7 1.4c0.2 0.2 0.2 0.4 0.1 0.6l-2.4 4.2c-0.1 0.2-0.3 0.3-0.5 0.2l-2.1-0.7c-0.2-0.1-0.5 0-0.7 0.1q-0.8 1.1-1.8 1.9c-0.1 0.2-0.3 0.5-0.3 0.7l-0.3 3.6c0 0.2-0.2 0.5-0.4 0.6l-3.2 1.9c-0.2 0.1-0.4 0-0.4-0.2l-0.3-3.2c-0.1-0.2-0.3-0.3-0.5-0.3q-0.8 0.2-1.5 0.2c-0.3 0-0.5 0.1-0.7 0.3l-2.4 3.6c-0.1 0.2-0.3 0.2-0.5 0.1l-2.1-1.2c-0.2-0.1-0.3-0.3-0.2-0.5l1.9-3.9c0.1-0.2 0.1-0.5 0-0.7q-0.4-0.6-0.6-1.4c-0.1-0.2-0.3-0.3-0.5-0.3l-2.9 1.3c-0.2 0.1-0.4 0-0.4-0.2v-3.7c0-0.2 0.2-0.5 0.4-0.7l2.9-2c0.2-0.2 0.4-0.5 0.4-0.7q0.3-1.2 0.8-2.5c0.1-0.2 0-0.5-0.2-0.6l-1.7-1.5c-0.1-0.1-0.2-0.4-0.1-0.6l2.4-4.1c0.1-0.2 0.4-0.3 0.6-0.2l2.1 0.7c0.2 0.1 0.5 0 0.6-0.2q0.9-1 1.8-1.9c0.2-0.1 0.3-0.4 0.4-0.6l0.3-3.6c0-0.3 0.2-0.5 0.4-0.6l3.2-1.9c0.2-0.1 0.4 0 0.4 0.2l0.3 3.1c0 0.3 0.2 0.4 0.4 0.3q0.8-0.1 1.6-0.1c0.2 0 0.5-0.1 0.6-0.3l2.4-3.6c0.1-0.2 0.4-0.3 0.6-0.2l2.1 1.2c0.2 0.2 0.2 0.4 0.1 0.6l-1.9 3.9c-0.1 0.2-0.1 0.5 0.1 0.7q0.4 0.6 0.6 1.4c0.1 0.2 0.3 0.3 0.5 0.2l2.9-1.3c0.2-0.1 0.3 0 0.3 0.3v3.7c0 0.2-0.1 0.5-0.3 0.6zm-6.9 1.7c0-3.5-2.4-4.9-5.4-3.2-3 1.8-5.5 6-5.5 9.5 0 3.5 2.5 4.9 5.5 3.1 3-1.7 5.4-5.9 5.4-9.4z"/>
			<g id="&lt;Group&gt;">
				<path id="&lt;Path&gt;" class="s7" d="m611.8 288.4c24.6-14.2 44.5-2.7 44.5 25.7 0 28.3-19.9 62.8-44.5 77-24.5 14.2-44.4 2.7-44.4-25.7 0-28.3 19.9-62.8 44.4-77z"/>
				<path id="&lt;Path&gt;" class="s2" d="m611.5 310.7c8-4.6 14.5-0.9 14.5 8.3 0 9.2-6.5 20.4-14.5 25-7.9 4.6-14.4 0.9-14.4-8.3 0-9.2 6.5-20.4 14.4-25z"/>
				<path id="&lt;Path&gt;" class="s2" d="m640 359.8c0-15.1-10.7-21.3-23.7-13.7l-8.2 4.7c-13.1 7.6-23.7 25.9-23.7 41.1v4.1q3.5 1.1 7.6 1.2c6 0 12.7-2 19.8-6.1 10.7-6.2 20.5-16.2 28.2-27.8z"/>
			</g>
			<path id="&lt;Path&gt;" class="s2" d="m571.7 433.3l80.3-46.4c2.4-1.4 4.3-0.4 4.3 2.2 0 2.6-1.9 5.8-4.3 7.2l-80.3 46.3c-2.4 1.4-4.3 0.4-4.3-2.1 0-2.6 1.9-5.9 4.3-7.2z"/>
			<path id="&lt;Path&gt;" class="s7" d="m563.1 466.4l97.5-56.3c2.4-1.4 4.3-0.4 4.3 2.2 0 2.5-1.9 5.8-4.3 7.1l-97.5 56.4c-2.4 1.4-4.3 0.4-4.3-2.2 0-2.6 1.9-5.8 4.3-7.2z"/>
			<path id="&lt;Path&gt;" class="s12" d="m663.2 455.5l27.3-15.8c1.4-0.8 2.6-0.4 2.6 0.9 0 1.3-1.2 3-2.6 3.8l-27.3 15.8c-1.4 0.8-2.6 0.4-2.6-0.9 0-1.3 1.2-3 2.6-3.8z"/>
			<g id="&lt;Group&gt;">
				<path id="&lt;Path&gt;" class="s2" d="m526.8 524.9l40.1-23.2c2.4-1.4 4.3-0.2 4.3 2.5v27.5c0 2.8-1.9 6.2-4.3 7.5l-40.1 23.2c-2.4 1.4-4.3 0.2-4.3-2.5v-27.5c0-2.8 1.9-6.2 4.3-7.5z"/>
				<path id="&lt;Path&gt;" class="s5" d="m533.2 528.7l27.3-15.8c1.4-0.8 2.6-0.4 2.6 0.9 0 1.3-1.2 3-2.6 3.8l-27.3 15.8c-1.4 0.8-2.6 0.4-2.6-0.8 0-1.3 1.2-3.1 2.6-3.9z"/>
				<path id="&lt;Path&gt;" class="s5" d="m530.6 542.6v8.1c0 1.6 1.2 2.3 2.6 1.5l27.3-15.8c1.4-0.8 2.6-2.8 2.6-4.5v-8.1c0-1.6-1.2-2.3-2.6-1.5l-27.3 15.8c-1.4 0.8-2.6 2.8-2.6 4.5z"/>
			</g>
			<g id="&lt;Group&gt;">
				<path id="&lt;Path&gt;" class="s2" d="m591.8 487.3l40.1-23.1c2.4-1.4 4.3-0.3 4.3 2.5v27.5c0 2.8-1.9 6.1-4.3 7.5l-40.1 23.2c-2.4 1.3-4.3 0.2-4.3-2.5v-27.6c0-2.7 1.9-6.1 4.3-7.5z"/>
				<path id="&lt;Path&gt;" class="s5" d="m598.2 491.2l27.3-15.8c1.4-0.8 2.6-0.4 2.6 0.9 0 1.3-1.2 3-2.6 3.8l-27.3 15.8c-1.4 0.8-2.6 0.4-2.6-0.9 0-1.3 1.2-3 2.6-3.8z"/>
				<path id="&lt;Path&gt;" class="s5" d="m595.6 505.1v8c0 1.7 1.2 2.4 2.6 1.5l27.3-15.7c1.4-0.9 2.6-2.9 2.6-4.5v-8.1c0-1.7-1.2-2.3-2.6-1.5l-27.3 15.8c-1.4 0.8-2.6 2.8-2.6 4.5z"/>
			</g>
			<g id="&lt;Group&gt;">
				<path id="&lt;Path&gt;" class="s2" d="m656.8 449.8l40.1-23.1c2.4-1.4 4.3-0.3 4.3 2.5v27.5c0 2.8-1.9 6.1-4.3 7.5l-40.1 23.1c-2.4 1.4-4.3 0.3-4.3-2.5v-27.5c0-2.7 1.9-6.1 4.3-7.5z"/>
				<path id="&lt;Path&gt;" class="s5" d="m663.2 453.7l27.3-15.8c1.4-0.8 2.6-0.5 2.6 0.8 0 1.3-1.2 3.1-2.6 3.9l-27.3 15.7c-1.4 0.9-2.6 0.5-2.6-0.8 0-1.3 1.2-3 2.6-3.8z"/>
				<path id="&lt;Path&gt;" class="s5" d="m660.6 467.5v8.1c0 1.7 1.2 2.3 2.6 1.5l27.3-15.8c1.4-0.8 2.6-2.8 2.6-4.5v-8c0-1.7-1.2-2.4-2.6-1.5l-27.3 15.7c-1.4 0.9-2.6 2.9-2.6 4.5z"/>
			</g>
			<path id="&lt;Path&gt;" class="s6" d="m531.1 588l161.4-93.2c4.8-2.7 8.7-0.8 8.7 4.4 0 5.2-3.9 11.6-8.7 14.4l-161.4 93.2c-4.7 2.7-8.6 0.8-8.6-4.4 0-5.2 3.9-11.6 8.6-14.4z"/>
			<path id="&lt;Path&gt;" class="s6" d="m531.1 625.5l161.4-93.1c4.8-2.8 8.7-0.8 8.7 4.3 0 5.2-3.9 11.7-8.7 14.4l-161.4 93.2c-4.7 2.8-8.6 0.8-8.6-4.4 0-5.2 3.9-11.6 8.6-14.4z"/>
			<path id="&lt;Path&gt;" class="s2" d="m583.7 642.1l56.3-32.5c2.4-1.4 4.3-0.3 4.3 2.5v18.1c0 2.8-1.9 6.2-4.3 7.5l-56.3 32.6c-2.4 1.3-4.4 0.2-4.4-2.5v-18.2c0-2.7 2-6.1 4.4-7.5z"/>
			<g id="&lt;Group&gt;">
				<path id="&lt;Path&gt;" class="s5" d="m534.7 590.8c-2.3 1.3-4.1 4.4-4.1 7 0 2.6 1.8 3.7 4.1 2.4 2.2-1.3 4-4.5 4-7.1 0-2.6-1.8-3.6-4-2.3z"/>
				<path id="&lt;Path&gt;" class="s5" d="m547.5 583.3c-2.2 1.3-4 4.5-4 7.1 0 2.6 1.8 3.6 4 2.3 2.3-1.3 4.1-4.4 4.1-7 0-2.6-1.8-3.7-4.1-2.4z"/>
				<path id="&lt;Path&gt;" class="s5" d="m560.4 575.9c-2.2 1.3-4.1 4.4-4.1 7 0 2.6 1.9 3.7 4.1 2.4 2.2-1.3 4.1-4.5 4.1-7.1 0-2.5-1.9-3.6-4.1-2.3z"/>
				<path id="&lt;Path&gt;" class="s5" d="m573.3 568.5c-2.3 1.3-4.1 4.4-4.1 7 0 2.6 1.8 3.6 4.1 2.3 2.2-1.3 4-4.4 4-7 0-2.6-1.8-3.6-4-2.3z"/>
				<path id="&lt;Path&gt;" class="s5" d="m586.1 561c-2.2 1.3-4 4.5-4 7.1 0 2.5 1.8 3.6 4 2.3 2.3-1.3 4.1-4.4 4.1-7 0-2.6-1.8-3.7-4.1-2.4z"/>
				<path id="&lt;Path&gt;" class="s5" d="m599 553.6c-2.2 1.3-4.1 4.4-4.1 7 0 2.6 1.9 3.7 4.1 2.4 2.3-1.3 4.1-4.5 4.1-7.1 0-2.6-1.8-3.6-4.1-2.3z"/>
				<path id="&lt;Path&gt;" class="s5" d="m611.9 546.1c-2.3 1.3-4.1 4.5-4.1 7.1 0 2.6 1.8 3.6 4.1 2.3 2.2-1.3 4-4.4 4-7 0-2.6-1.8-3.7-4-2.4z"/>
			</g>
			<g id="&lt;Group&gt;">
				<path id="&lt;Path&gt;" class="s5" d="m534.7 628.3c-2.3 1.3-4.1 4.5-4.1 7.1 0 2.6 1.8 3.6 4.1 2.3 2.2-1.3 4-4.4 4-7 0-2.6-1.8-3.6-4-2.4z"/>
				<path id="&lt;Path&gt;" class="s5" d="m547.5 620.9c-2.2 1.3-4 4.5-4 7 0 2.6 1.8 3.7 4 2.4 2.3-1.3 4.1-4.5 4.1-7 0-2.6-1.8-3.7-4.1-2.4z"/>
				<path id="&lt;Path&gt;" class="s5" d="m560.4 613.5c-2.2 1.3-4.1 4.4-4.1 7 0 2.6 1.9 3.6 4.1 2.3 2.2-1.2 4.1-4.4 4.1-7 0-2.6-1.9-3.6-4.1-2.3z"/>
				<path id="&lt;Path&gt;" class="s5" d="m573.3 606c-2.3 1.3-4.1 4.5-4.1 7.1 0 2.6 1.8 3.6 4.1 2.3 2.2-1.3 4-4.4 4-7 0-2.6-1.8-3.7-4-2.4z"/>
				<path id="&lt;Path&gt;" class="s5" d="m586.1 598.6c-2.2 1.3-4 4.4-4 7 0 2.6 1.8 3.7 4 2.4 2.3-1.3 4.1-4.5 4.1-7.1 0-2.6-1.8-3.6-4.1-2.3z"/>
				<path id="&lt;Path&gt;" class="s5" d="m599 591.1c-2.2 1.3-4.1 4.5-4.1 7.1 0 2.6 1.9 3.6 4.1 2.3 2.3-1.3 4.1-4.4 4.1-7 0-2.6-1.8-3.7-4.1-2.4z"/>
				<path id="&lt;Path&gt;" class="s5" d="m611.9 583.7c-2.3 1.3-4.1 4.4-4.1 7 0 2.6 1.8 3.7 4.1 2.4 2.2-1.3 4-4.5 4-7.1 0-2.5-1.8-3.6-4-2.3z"/>
			</g>
		</g>
	</g>
	<g id="Key">
		<g id="&lt;Group&gt;">
			<g id="&lt;Group&gt;">
				<g id="&lt;Group&gt;">
					<path id="&lt;Compound Path&gt;" fill-rule="evenodd" class="s7" d="m792.4 668.3c-7 0-13.7-1.8-19.7-5.2-14.4-8.4-22.7-25.8-22.7-47.8 0-38.8 24.6-83.4 56.1-101.5 16.9-9.8 33.7-10.9 47.4-3 14.4 8.3 22.6 25.7 22.6 47.8 0 38.7-24.6 83.3-56.1 101.5-9.4 5.4-18.8 8.2-27.6 8.2zm41.3-134.8c-5.1 0-10.4 2.5-13.7 4.4-22.8 13.2-42.1 48.6-42.1 77.4 0 11.6 3.3 20.4 8.7 23.6 6.2 3.6 14.9-0.3 19.5-3 22.8-13.2 42.1-48.6 42.1-77.3 0-11.7-3.2-20.5-8.7-23.7-1.8-1-3.8-1.4-5.8-1.4z"/>
				</g>
				<path id="&lt;Path&gt;" class="s12" d="m853.2 564.8c0-21.8-13.7-29.9-13.7-29.9 5.5 3.2 8.7 12 8.7 23.7 0 28.7-19.3 64.1-42.1 77.3-4.6 2.7-13.2 6.6-19.5 3 0 0 11.6 7.2 27.6-1.6 23.2-12.6 39-43.8 39-72.5z"/>
			</g>
			<path id="&lt;Path&gt;" class="s12" d="m831.2 292.6c0-8-6.4-14.4-14.4-14.4-8 0-14.4 6.4-14.4 14.4q0 0 0 0v229.4c0 2.2 1.4 4.3 4.2 5.9 5.6 3.3 14.8 3.3 20.4 0 2.8-1.6 4.2-3.7 4.2-5.9v-229.4q0 0 0 0z"/>
			<path id="&lt;Path&gt;" class="s7" d="m819.7 343.9c0-5.4-3.7-11.8-8.3-14.5-2.4-1.3-4.5-1.4-6-0.5l-35.6 20.5-0.9 0.5q-0.2 0.1-0.3 0.2-0.9 0.6-1.7 1.4c-2.2 2.1-3.5 5.1-3.5 8.4 0 4.4 2.5 8.3 6.1 10.4 1.7 0.9 3.6 1.4 5.7 1.4 2 0 3.9-0.5 5.6-1.4q0.3-0.2 0.7-0.4l35.8-20.7c1.5-0.9 2.4-2.7 2.4-5.3z"/>
			<path id="&lt;Path&gt;" class="s7" d="m819.7 401.3c0-5.3-3.7-11.8-8.3-14.4-2.4-1.4-4.5-1.5-6-0.6l-41.7 24-0.9 0.5q-0.2 0.1-0.3 0.2-1 0.6-1.7 1.4c-2.2 2.1-3.5 5.1-3.5 8.4 0 4.4 2.5 8.3 6.1 10.4 1.7 0.9 3.6 1.4 5.6 1.4 2.1 0 4-0.5 5.7-1.4q0.3-0.2 0.6-0.4l42-24.1c1.5-0.9 2.4-2.8 2.4-5.4z"/>
		</g>
	</g>
</svg>