<svg version="1.2" xmlns="http://www.w3.org/2000/svg" viewBox="0 0 1000 1000" width="1000" height="1000">
	<title>3094351-ai</title>
	<style>
		.s0 { fill: #f0f0f0 } 
		.s1 { fill: #e0e0e0 } 
		.s2 { fill: #27debf } 
		.s3 { fill: #000000 } 
		.s4 { opacity: .3;fill: #000000 } 
		.s5 { opacity: .5;fill: #000000 } 
		.s6 { fill: #263238 } 
		.s7 { opacity: .7;fill: #000000 } 
		.s8 { fill: #fafafa } 
		.s9 { fill: #ffffff } 
		.s10 { opacity: .1;fill: #000000 } 
		.s11 { opacity: .5;fill: #ffffff } 
		.s12 { fill: #455a64 } 
		.s13 { fill: #37474f } 
		.s14 { fill: #e6e6e6 } 
		.s15 { fill: #ffa8a7 } 
		.s16 { fill: #f28f8f } 
		.s17 { opacity: .4;fill: #000000 } 
		.s18 { opacity: .4;fill: #ffffff } 
		.s19 { opacity: .1;fill: none;stroke: #000000;stroke-width: 2 } 
	</style>
	<g id="Floor">
		<path id="Floor 4 " class="s0" d="m831.3 507.7c184 106.2 184 278.5 0 384.7-184 106.3-482.4 106.3-666.4 0-184-106.2-184-278.5 0-384.7 184-106.3 482.4-106.3 666.4 0z"/>
	</g>
	<g id="Shadow">
		<path id="Shadow 43 " class="s1" d="m768.7 794.4c-30.9-17.8-30.9-46.7 0-64.6 30.9-17.8 81-17.8 111.9 0 30.9 17.9 30.9 46.8 0 64.6-30.9 17.9-81 17.9-111.9 0z"/>
		<path id="Shadow 4 " class="s1" d="m140.2 796.9l-81.2-46.9c-4.6-2.6-4.6-6.9 0-9.6l472.7-272.9c4.6-2.7 12-2.7 16.6 0l81.3 46.9c4.6 2.6 4.6 6.9 0 9.6l-472.8 272.9c-4.6 2.7-12 2.7-16.6 0z"/>
	</g>
	<g id="Device">
		<g id="Device 1 ">
			<g id="&lt;Group&gt;">
				<g id="&lt;Group&gt;">
					<path id="&lt;Path&gt;" class="s2" d="m432.4 713.3l69.9-40.4c7.2-4.2 10.8-9.6 10.8-15.1 0-5.4 0-9.7 0-9.7l-72.5-40.9c-3.8-2.2-6.9-7.6-6.9-12v-86.2l-122.1 70.6v86.1c0 4.4 3.1 9.8 7 12.1l61.6 35.5c14.4 8.3 37.8 8.3 52.2 0z"/>
				</g>
				<g id="&lt;Group&gt;" style="opacity: .6">
					<path id="&lt;Path&gt;" class="s3" d="m432.4 713.3l69.9-40.4c7.2-4.2 10.8-9.6 10.8-15.1 0-5.4 0-9.7 0-9.7l-72.5-40.9c-3.8-2.2-6.9-7.6-6.9-12v-86.2l-122.1 70.6v86.1c0 4.4 3.1 9.8 7 12.1l61.6 35.5c14.4 8.3 37.8 8.3 52.2 0z"/>
				</g>
				<path id="&lt;Path&gt;" class="s4" d="m340.9 681v9.6l-22.4-12.9c-3.8-2.2-6.9-7.5-6.9-12v-86.1l23.2-13.5c0.5 5.9 1 12.1 1.5 18l-16.3 9.4v67.3c0 4.5 3.1 9.9 7 12.1z"/>
				<path id="&lt;Path&gt;" class="s2" d="m320 660.9c0 4.4 3.1 9.8 7 12l53.2 30.7c14.4 8.3 37.8 8.3 52.2 0l69.9-40.4c14.4-8.3 14.4-21.8 0-30.1l-53.3-30.7c-3.8-2.2-6.9-7.6-6.9-12.1v-67.3l-122.1 70.5z"/>
				<path id="&lt;Path&gt;" class="s4" d="m320 660.9c0 4.4 3.1 9.8 7 12l53.2 30.7c14.4 8.3 37.8 8.3 52.2 0l69.9-40.4c14.4-8.3 14.4-21.8 0-30.1l-53.3-30.7c-3.8-2.2-6.9-7.6-6.9-12.1v-67.3l-122.1 70.5z"/>
				<path id="&lt;Path&gt;" class="s5" d="m463.2 610.6l-14.2-8.2c-3.8-2.2-6.9-7.6-6.9-12.1v-67.3l-122.1 70.5v67.4c0 4.4 3.1 9.8 7 12l13.9 8z"/>
				<path id="&lt;Path&gt;" class="s2" d="m513.1 648.1c0 0 0 4.3 0 9.7 0 5.5-3.6 10.9-10.8 15.1l-69.9 40.4c-6.9 4-15.9 6-24.9 6.2v-9.7c9-0.1 18-2.2 24.9-6.2l69.9-40.4c7.2-4.2 10.8-9.6 10.8-15.1z"/>
				<path id="&lt;Path&gt;" class="s5" d="m513.1 648.1c0 0 0 4.3 0 9.7 0 5.5-3.6 10.9-10.8 15.1l-69.9 40.4c-6.9 4-15.9 6-24.9 6.2v-9.7c9-0.1 18-2.2 24.9-6.2l69.9-40.4c7.2-4.2 10.8-9.6 10.8-15.1z"/>
			</g>
			<path id="&lt;Path&gt;" class="s2" d="m124.1 744.5c4.5 2.6 12 2.5 16.8-0.3 60-34.6 412-237.8 472-272.5 4.8-2.8 8.7-9.5 8.7-15v-381.9c0-5.5-3.7-12.1-8.2-14.7-4.5-2.6-12-2.5-16.8 0.3l-472 272.5c-4.8 2.8-8.7 9.5-8.7 15.1v381.8c0 5.5 3.7 12.1 8.2 14.7z"/>
			<path id="&lt;Path&gt;" class="s2" d="m140.9 744.2l472-272.5c4.8-2.8 8.7-9.5 8.7-15.1v-381.8c0-5.5-3.9-7.8-8.7-5l-472 272.5c-4.8 2.8-8.7 9.5-8.7 15.1v381.8c0 5.5 3.9 7.8 8.7 5z"/>
			<path id="&lt;Path&gt;" class="s5" d="m140.9 744.2l472-272.5c4.8-2.8 8.7-9.5 8.7-15.1v-381.8c0-5.5-3.9-7.8-8.7-5l-472 272.5c-4.8 2.8-8.7 9.5-8.7 15.1v381.8c0 5.5 3.9 7.8 8.7 5z"/>
			<path id="&lt;Path&gt;" class="s2" d="m139.6 754.1c-4.8 2.2-11.4 2.1-15.5-0.3-4.5-2.6-8.2-9.2-8.2-14.8v-34.7l16.3 9.4v34.8c0 5 3.2 7.3 7.4 5.6z"/>
			<path id="&lt;Path&gt;" class="s5" d="m139.6 754.1c-4.8 2.2-11.4 2.1-15.5-0.3-4.5-2.6-8.2-9.2-8.2-14.8v-34.7l16.3 9.4v34.8c0 5 3.2 7.3 7.4 5.6z"/>
			<path id="&lt;Path&gt;" class="s2" d="m132.2 713.7v34.8c0 5.5 3.9 7.7 8.7 5l472-272.5c4.8-2.8 8.7-9.5 8.7-15.1v-34.8z"/>
			<path id="&lt;Path&gt;" class="s4" d="m132.2 713.6v34.9c0 5.5 3.9 7.7 8.7 5l472-272.5c4.8-2.8 8.7-9.5 8.7-15.1v-34.8z"/>
			<path id="&lt;Path&gt;" class="s2" d="m148.5 670.1v-307.3c0-3.4 2.4-7.4 5.2-9.1l446.4-257.6c2.8-1.7 5.2-0.4 5.2 3v307.3c0 3.3-2.3 7.4-5.2 9l-446.4 257.7c-2.8 1.7-5.2 0.3-5.2-3z"/>
			<path id="&lt;Path&gt;" class="s6" d="m148.5 670.1v-307.3c0-3.4 2.4-7.4 5.2-9.1l446.4-257.6c2.8-1.7 5.2-0.4 5.2 3v307.3c0 3.3-2.3 7.4-5.2 9l-446.4 257.7c-2.8 1.7-5.2 0.3-5.2-3z"/>
			<path id="&lt;Path&gt;" class="s2" d="m376.9 583.5c-4.5 2.6-8.2 8.9-8.2 14.1 0 5.2 3.7 7.3 8.2 4.7 4.5-2.6 8.2-8.9 8.2-14.1 0-5.2-3.7-7.3-8.2-4.7z"/>
			<path id="&lt;Path&gt;" class="s7" d="m134.8 348.8c-1.6 2.7-2.6 5.8-2.6 8.5v356.4l-16.3-9.4v-356.3c0-2.8 1-5.9 2.6-8.6z"/>
			<path id="&lt;Path&gt;" class="s4" d="m621.5 73.4c-0.6-4.5-4.2-6.1-8.6-3.6l-472 272.5c-2.4 1.4-4.5 3.7-6.1 6.5l-16.3-9.5c1.6-2.6 3.7-5 6.1-6.4l472-272.5c4.8-2.8 12.3-2.9 16.9-0.3 4.1 2.3 7.5 8.1 8 13.3z"/>
		</g>
	</g>
	<g id="Window">
		<g id="Window">
			<g id="Window 2 ">
				<g id="Window 3 ">
					<g id="&lt;Group&gt;">
						<path id="&lt;Path&gt;" class="s2" d="m647 120.4c-1.2-0.7-2.7-0.7-4.5 0.3l-445.3 257.2c-3.4 1.9-6.1 6.7-6.1 10.5v305.5c0 2.4 1 4.4 2.6 5.3 0.9 0.5 6.2 3.6 7.7 4.4 1 0.5 2.3 0.5 3.6-0.2l445.3-257.3c3.4-1.9 6.1-6.6 6.1-10.5v-306.9c0-2-0.7-3.4-1.9-4-1.1-0.6-6.4-3.7-7.5-4.3z"/>
					</g>
					<g id="&lt;Group&gt;">
						<g id="&lt;Group&gt;">
							<path id="&lt;Path&gt;" class="s8" d="m203 703c-1.7 0-3.1-2.1-3.1-4.7v-305.4c0-3.5 2.5-8 5.6-9.7l445.3-257.2c0.8-0.5 1.6-0.7 2.3-0.7 1.4 0 2.3 1.3 2.3 3.4v306.9c0 3.5-2.5 7.9-5.6 9.7l-445.3 257.2q-0.8 0.5-1.5 0.5z"/>
							<path id="&lt;Compound Path&gt;" fill-rule="evenodd" class="s1" d="m656.4 128.7v306.9c0 3.9-2.7 8.6-6.1 10.5l-445.3 257.3q-1.1 0.6-2 0.6c-2.4 0-4.1-2.6-4.1-5.7v-305.4c0-3.9 2.7-8.6 6.1-10.6l445.3-257.2q1.5-0.8 2.8-0.8c2 0 3.3 1.6 3.3 4.4zm-5.1-1.8l-445.3 257.1c-2.8 1.6-5.1 5.7-5.1 8.9v305.4c0 2 0.9 3.7 2.1 3.7q0.4 0 1-0.3l445.3-257.3c2.8-1.6 5.1-5.6 5.1-8.8v-306.9c0-0.9-0.2-2.4-1.3-2.4-0.4 0-1 0.1-1.8 0.6z"/>
						</g>
						<path id="&lt;Path&gt;" class="s0" d="m193.6 699.2c0.7 0.3 5.4 3 7.5 4.2q-2.1-1.5-2.2-5.1v-285.5l-7.8-4.6v285.7c0 2.3 1 4.5 2.5 5.3z"/>
					</g>
					<g id="&lt;Group&gt;">
						<path id="&lt;Path&gt;" class="s2" d="m656.4 128.6c0-3.8-2.7-5.4-6.1-3.5l-445.3 257.2c-3.4 2-6.1 6.7-6.1 10.6v19.9l457.5-264.2z"/>
						<g id="&lt;Group&gt;" style="opacity: .4">
							<path id="&lt;Path&gt;" class="s9" d="m650.3 125.1l-445.3 257.2c-1.7 1-3.2 2.6-4.3 4.5l-7.8-4.5c1.1-1.8 2.6-3.5 4.3-4.4l445.3-257.2c1.8-1 3.3-1 4.5-0.3 1.1 0.6 6.1 3.5 7.4 4.2-1.1-0.5-2.5-0.4-4.1 0.5z"/>
						</g>
						<path id="&lt;Path&gt;" class="s10" d="m191.1 408.3v-19.9c0-1.9 0.7-4.1 1.8-6.1l7.8 4.5c-1.1 1.9-1.8 4.1-1.8 6.1v19.9z"/>
					</g>
				</g>
			</g>
			<g id="&lt;Group&gt;">
				<g id="&lt;Group&gt;">
					<path id="&lt;Path&gt;" class="s2" d="m562.5 358.8l-266.7 154.1c-2.5 1.4-4.5 4.8-4.5 7.7v76.4c0 2.9 2 6.3 4.5 7.7l7.7 4.5c2.5 1.4 6.5 1.4 9 0l266.7-154c2.4-1.4 4.4-4.8 4.4-7.7l0.1-76.5c0-2.8-2-6.3-4.5-7.7l-7.8-4.5c-2.5-1.4-6.4-1.4-8.9 0z"/>
					<path id="&lt;Path&gt;" class="s11" d="m583.6 370.3c-0.3-2.3-2.2-3.1-4.4-1.8l-266.7 154c-1.3 0.7-2.4 1.9-3.2 3.3l-16.7-9.7c0.8-1.3 1.9-2.5 3.1-3.2l266.8-154c2.4-1.5 6.4-1.5 8.9-0.1l7.8 4.5c2.3 1.3 4.1 4.3 4.4 7z"/>
					<path id="&lt;Path&gt;" class="s6" d="m311.7 609.6c-2.5 1-5.9 0.9-8.1-0.4l-7.8-4.5c-2.5-1.4-4.5-4.8-4.5-7.7v-76.4c0-1.5 0.5-3.1 1.3-4.5l16.7 9.7c-0.8 1.4-1.3 2.9-1.3 4.4v76.5c0 2.5 1.6 3.7 3.7 2.9z"/>
					<path id="&lt;Path&gt;" class="s2" d="m312.5 522.5l266.7-154c2.5-1.5 4.5-0.3 4.5 2.5l-0.1 76.5c0 2.9-2 6.3-4.4 7.7l-266.7 154c-2.5 1.4-4.5 0.3-4.5-2.6v-76.4c0-2.9 2-6.3 4.5-7.7z"/>
					<path id="&lt;Path&gt;" class="s12" d="m491.8 399.7l-196.1 113.2c-1.2 0.7-2.3 1.9-3.1 3.2l16.7 9.7c0.8-1.4 1.9-2.6 3.2-3.3l196-113.2z"/>
					<path id="&lt;Path&gt;" class="s13" d="m508.5 409.3l-196 113.2c-2.5 1.4-4.5 4.8-4.5 7.7v76.4c0 2.9 2 4 4.5 2.6l196-113.1z"/>
				</g>
				<g id="&lt;Group&gt;">
					<path id="&lt;Path&gt;" class="s2" d="m357.7 513.2l101.1-58.4c4.2-2.5 7.6-0.7 7.6 3.8 0 4.5-3.4 10.2-7.6 12.6l-101.1 58.4c-4.2 2.4-7.6 0.7-7.6-3.8 0-4.6 3.4-10.2 7.6-12.6z"/>
				</g>
				<g id="&lt;Group&gt;">
					<path id="&lt;Compound Path&gt;" class="s8" d="m378.4 532.5q0.2-0.1 0.3 0 0.1 0.2 0.1 0.5v11.4q0 1.7-0.3 3.2-0.3 1.6-0.8 2.9-0.6 1.3-1.4 2.4-0.9 1-2 1.6-1.1 0.7-1.9 0.6-0.9 0-1.4-0.7-0.6-0.7-0.9-1.9-0.2-1.2-0.2-3v-11.4q0-0.3 0.1-0.5 0.1-0.3 0.3-0.4l1.2-0.8q0.2-0.1 0.3 0.1 0.2 0.1 0.2 0.4v11.3q0 1.1 0.1 1.8 0.2 0.7 0.5 1.1 0.3 0.3 0.8 0.3 0.4 0 0.9-0.3 0.5-0.3 1-0.8 0.4-0.5 0.7-1.2 0.4-0.7 0.5-1.6 0.2-0.9 0.2-2.1v-11.2q0-0.3 0.1-0.6 0.2-0.3 0.3-0.4z"/>
					<path id="&lt;Compound Path&gt;" class="s8" d="m386.2 543.2q0-0.3-0.1-0.4-0.1-0.1-0.4-0.1-0.2 0-0.7 0.1-0.4 0.1-1.2 0.2-0.6 0.1-1.1-0.1-0.4-0.1-0.7-0.5-0.3-0.4-0.4-1.1-0.1-0.6-0.1-1.4 0-0.9 0.2-1.8 0.2-0.9 0.6-1.8 0.5-0.9 1-1.6 0.6-0.7 1.4-1.2 0.8-0.4 1.4-0.4 0.6-0.1 1 0.2 0.4 0.2 0.7 0.7 0.2 0.6 0.2 1.2 0 0.3-0.1 0.6-0.1 0.3-0.3 0.4l-1.2 0.7q-0.2 0.1-0.4 0.1-0.1-0.1-0.2-0.2-0.2-0.2-0.4-0.2-0.2 0-0.7 0.3-0.5 0.2-0.8 0.7-0.4 0.5-0.4 1.1 0 0.3 0.1 0.5 0.1 0.1 0.3 0.1 0.3 0.1 0.7 0 0.4-0.1 1.1-0.2 1.4-0.3 2 0.5 0.6 0.8 0.6 2.5 0 0.8-0.3 1.7-0.2 1-0.7 1.8-0.4 0.9-1.1 1.7-0.6 0.7-1.4 1.2-0.8 0.5-1.5 0.5-0.6 0-1-0.3-0.5-0.3-0.7-0.9-0.3-0.5-0.3-1.2 0-0.3 0.2-0.6 0.1-0.3 0.3-0.4l1.2-0.7q0.2-0.1 0.3 0 0.1 0.2 0.3 0.3 0.1 0.2 0.4 0.2 0.3 0.1 0.8-0.2 0.2-0.2 0.5-0.4 0.2-0.2 0.4-0.4 0.2-0.3 0.4-0.6 0.1-0.2 0.1-0.6z"/>
					<path id="&lt;Compound Path&gt;" fill-rule="evenodd" class="s8" d="m390.3 537.8q0-1.5 0.3-3.1 0.2-1.5 0.7-2.8 0.5-1.3 1.2-2.3 0.8-1 1.6-1.5 0.9-0.5 1.6-0.3 0.7 0.1 1.2 0.8 0.5 0.7 0.8 1.8 0.3 1.1 0.3 2.5v1.3q0 0.3-0.2 0.6-0.1 0.3-0.3 0.4l-5.2 3q0 0.6 0.2 1 0.1 0.4 0.4 0.6 0.2 0.2 0.6 0.2 0.3 0 0.6-0.2 0.5-0.3 0.8-0.7 0.4-0.3 0.6-0.7 0.1-0.4 0.2-0.5 0.1-0.1 0.3-0.3l1.3-0.7q0.2-0.1 0.3 0.1 0.1 0.1 0.1 0.4 0 0.4-0.2 1.2-0.3 0.7-0.7 1.6-0.5 0.8-1.1 1.6-0.7 0.8-1.6 1.3-0.8 0.5-1.6 0.4-0.7-0.2-1.2-0.9-0.5-0.7-0.7-1.9-0.3-1.2-0.3-2.9zm3.8-6.4q-0.4 0.3-0.7 0.7-0.4 0.4-0.6 0.9-0.2 0.5-0.3 1.1-0.1 0.5-0.2 0.9l3.6-2q-0.1-0.4-0.2-0.8 0-0.4-0.2-0.7-0.2-0.2-0.6-0.3-0.3-0.1-0.8 0.2z"/>
					<path id="&lt;Compound Path&gt;" class="s8" d="m404.3 525.9q-1 0.5-1.4 1.5-0.4 1-0.4 2.6v7.2q0 0.4-0.1 0.6-0.2 0.3-0.3 0.4l-1.2 0.7q-0.2 0.1-0.3 0-0.1-0.2-0.1-0.5v-12.9q0-0.3 0.1-0.6 0.1-0.3 0.3-0.4l1.2-0.7q0.1-0.1 0.3 0.1 0.1 0.1 0.1 0.4v0.6q0.4-0.9 0.9-1.5 0.4-0.6 1.2-1l0.7-0.5q0.1 0 0.3 0.1 0.1 0.2 0.1 0.5v1.8q0 0.3-0.1 0.6-0.2 0.3-0.3 0.4z"/>
					<path id="&lt;Compound Path&gt;" class="s8" d="m419.2 524.9q0.1-0.1 0.3 0 0.1 0.2 0.1 0.5v2q0 0.3-0.1 0.6-0.2 0.3-0.3 0.4l-6.9 3.9q-0.1 0.1-0.3 0-0.1-0.2-0.1-0.5v-17.9q0-0.3 0.1-0.6 0.2-0.3 0.3-0.4l1.3-0.8q0.2-0.1 0.3 0.1 0.1 0.1 0.1 0.4v15.3z"/>
					<path id="&lt;Compound Path&gt;" fill-rule="evenodd" class="s8" d="m425.3 510.1q0.9-0.5 1.6-0.4 0.7 0 1.2 0.6 0.5 0.5 0.8 1.5 0.3 0.9 0.3 2.1 0.1 0.3 0.1 0.7 0 0.4 0 0.8 0 0.3 0 0.7 0 0.4-0.1 0.7 0 1.3-0.3 2.5-0.3 1.3-0.8 2.4-0.5 1.2-1.2 2-0.7 0.9-1.6 1.4-0.8 0.5-1.5 0.4-0.7 0-1.2-0.6-0.6-0.5-0.8-1.4-0.3-1-0.4-2.2 0-0.3 0-0.6 0-0.4 0-0.8 0-0.4 0-0.8 0-0.4 0-0.6 0-1.3 0.3-2.6 0.3-1.3 0.9-2.4 0.5-1.2 1.2-2 0.7-0.9 1.5-1.4zm1.9 5.2q0-0.9-0.2-1.3-0.2-0.5-0.5-0.7-0.2-0.2-0.5-0.1-0.4 0-0.7 0.2-0.3 0.2-0.6 0.5-0.3 0.3-0.6 0.8-0.3 0.5-0.4 1.2-0.2 0.7-0.3 1.5 0 0.3 0 0.6 0 0.3 0 0.7 0 0.4 0 0.7 0 0.4 0 0.5 0.1 0.9 0.3 1.3 0.1 0.5 0.4 0.7 0.3 0.2 0.6 0.1 0.3 0 0.6-0.2 0.3-0.2 0.7-0.5 0.3-0.3 0.5-0.8 0.3-0.5 0.5-1.2 0.2-0.7 0.2-1.5 0-0.2 0-0.6 0-0.3 0-0.7 0-0.4 0-0.7 0-0.3 0-0.5z"/>
					<path id="&lt;Compound Path&gt;" fill-rule="evenodd" class="s8" d="m435.4 521.8q0.3-0.2 0.6-0.6 0.4-0.3 0.7-0.9 0.2-0.5 0.4-1.3 0.2-0.7 0.2-1.5v-1q-0.1 0.3-0.3 0.7-0.2 0.5-0.5 0.9-0.3 0.4-0.7 0.8-0.4 0.4-0.9 0.6-0.7 0.5-1.4 0.3-0.6-0.2-1.1-0.8-0.4-0.7-0.7-1.7-0.2-1-0.2-2.3-0.1-0.4-0.1-0.9 0-0.6 0.1-1 0-1.3 0.2-2.6 0.3-1.4 0.7-2.5 0.5-1.2 1.1-2.1 0.7-0.9 1.4-1.4 0.5-0.2 0.9-0.3 0.4 0 0.7 0 0.3 0.1 0.5 0.3 0.2 0.2 0.3 0.3v-0.6q0-0.3 0.1-0.6 0.1-0.3 0.3-0.4l1.2-0.7q0.2-0.1 0.3 0.1 0.1 0.1 0.1 0.4v13.1q0 3.3-1 5.6-1.1 2.4-2.9 3.4-0.8 0.5-1.5 0.5-0.7 0-1.2-0.3-0.5-0.3-0.8-1-0.3-0.6-0.3-1.4 0-0.3 0.1-0.6 0.1-0.3 0.3-0.4l1.1-0.6q0.2-0.1 0.3 0 0.2 0.2 0.3 0.4 0.2 0.3 0.6 0.4 0.3 0.1 1.1-0.3zm-1.9-9.7q-0.1 0.8 0 1.6 0.1 1.7 0.6 2.2 0.5 0.5 1.3 0 0.8-0.4 1.3-1.5 0.5-1.1 0.6-2.7 0-0.4 0-1 0-0.7 0-1.1-0.1-1.4-0.6-1.9-0.5-0.5-1.3-0.1-0.8 0.4-1.3 1.5-0.5 1.1-0.6 3z"/>
					<path id="&lt;Compound Path&gt;" class="s8" d="m444 494.3q0.1-0.1 0.2 0.1 0.2 0.1 0.2 0.4v2.2q0 0.3-0.2 0.6-0.1 0.3-0.2 0.4l-1.4 0.8q-0.2 0.1-0.3-0.1-0.1-0.1-0.1-0.4v-2.2q0-0.3 0.1-0.6 0.1-0.3 0.3-0.4zm0.4 18.8q0 0.3-0.2 0.6-0.1 0.3-0.3 0.4l-1.2 0.7q-0.1 0.1-0.2-0.1-0.2-0.1-0.2-0.4v-13q0-0.3 0.2-0.6 0.1-0.3 0.2-0.4l1.2-0.7q0.2-0.1 0.3 0.1 0.2 0.1 0.2 0.4z"/>
					<path id="&lt;Compound Path&gt;" class="s8" d="m454.9 507q0 0.3-0.2 0.6-0.1 0.3-0.3 0.4l-1.2 0.7q-0.1 0.1-0.2-0.1-0.2-0.1-0.2-0.4v-7.1q0-1.6-0.4-2.4-0.4-0.7-1.4-0.2-0.8 0.5-1.3 1.7-0.4 1.3-0.4 3v7q0 0.3-0.2 0.6-0.1 0.3-0.3 0.4l-1.1 0.7q-0.2 0.1-0.3 0-0.2-0.2-0.2-0.5v-12.9q0-0.3 0.2-0.6 0.1-0.3 0.3-0.4l1.1-0.7q0.2-0.1 0.3 0 0.2 0.2 0.2 0.5v0.6q0.4-0.9 0.9-1.7 0.6-0.8 1.3-1.2 1-0.6 1.6-0.4 0.6 0.1 1 0.8 0.4 0.7 0.6 1.7 0.2 1.1 0.2 2.4z"/>
				</g>
				<g id="&lt;Group&gt;">
					<path id="&lt;Path&gt;" class="s12" d="m555.7 448.8l-19.4 11.2 3-27.2c-2.3-1.3-3.8-4.3-3.8-8.6 0-7.8 4.7-16.7 10.5-20.1 5.8-3.3 10.5 0.2 10.5 7.9 0 4.4-1.4 9.1-3.8 13z"/>
					<path id="&lt;Path&gt;" class="s13" d="m555.7 448.8l-17-9.9-2.4 21.1z"/>
					<path id="&lt;Path&gt;" class="s13" d="m546 404.1c-3.8 2.2-7.1 6.8-8.9 11.9l15.6 9c2.4-3.9 3.8-8.6 3.8-13 0-7.7-4.7-11.2-10.5-7.9z"/>
				</g>
			</g>
			<g id="&lt;Group&gt;">
				<g id="&lt;Group&gt;">
					<g id="&lt;Group&gt;">
						<path id="&lt;Path&gt;" class="s2" d="m451.6 313.4c-6.7-3.8-15.8-3.3-26 2.6-20.3 11.7-36.7 40.1-36.7 63.6 0 11.7 4.2 20 10.8 23.8 1.8 1 11.2 6.5 13 7.5 6.6 3.8 15.8 3.3 25.9-2.6 20.3-11.7 36.8-40.2 36.8-63.6 0-11.7-4.2-19.9-10.8-23.7"/>
						<path id="&lt;Path&gt;" class="s2" d="m438.6 323.5c-20.2 11.7-36.7 40.2-36.7 63.6 0 23.4 16.5 32.9 36.7 21.2 20.3-11.7 36.8-40.2 36.8-63.6-0.1-23.4-16.5-32.9-36.8-21.2z"/>
						<path id="&lt;Path&gt;" class="s2" d="m458.9 375.5v2.6c-5.2 9-12.4 16.7-20.3 21.3-7.9 4.5-15 5-20.2 2.1v-5.5c0-10.7 7.2-23.3 16.5-28.6l5.3-3.1c4.7-2.7 9.3-3.1 12.9-1 3.7 2.1 5.8 6.5 5.8 12.2z"/>
						<g id="&lt;Group&gt;" style="opacity: .4">
							<path id="&lt;Path&gt;" class="s9" d="m451.6 313.4l13 7.6c-6.6-3.9-15.8-3.4-26 2.5-13.2 7.7-24.9 22.5-31.3 38.5l-13-7.6c6.4-15.9 18-30.8 31.3-38.4 10.2-5.9 19.3-6.4 26-2.6z"/>
						</g>
						<g id="&lt;Group&gt;" style="opacity: .2">
							<path id="&lt;Path&gt;" class="s3" d="m412.2 410.6c-2.3-1.3-10.9-6.3-12.5-7.2-6.6-3.8-10.8-12.1-10.8-23.8l13 7.5c0 11.4 3.9 19.5 10.3 23.5z"/>
						</g>
						<g id="&lt;Group&gt;" style="opacity: .1">
							<path id="&lt;Path&gt;" class="s3" d="m394.3 354.4l13 7.6c-3.4 8.4-5.4 17-5.4 25.1l-13-7.5c0-8.1 2-16.8 5.4-25.2z"/>
						</g>
					</g>
				</g>
				<g id="&lt;Group&gt;">
					<g id="&lt;Group&gt;">
						<path id="&lt;Compound Path&gt;" class="s9" d="m434 363q-1.9 0-3.5-0.9c-2.5-1.4-3.8-4.2-3.8-7.9 0-6.8 4.6-14.8 10.4-18.2 3.2-1.9 6.4-2.1 8.9-0.7 2.4 1.5 3.8 4.3 3.8 8 0 6.8-4.6 14.8-10.5 18.2-1.8 1-3.6 1.5-5.3 1.5z"/>
					</g>
					<g id="&lt;Group&gt;">
						<path id="&lt;Compound Path&gt;" class="s9" d="m453.1 363.3c-3.6-2.1-8.2-1.7-12.9 1l-5.3 3.1c-9.3 5.3-16.5 17.9-16.5 28.6v5.5c5.2 2.9 12.3 2.4 20.2-2.1 7.9-4.6 15.1-12.3 20.3-21.3v-2.6c0-5.7-2.1-10.1-5.8-12.2z"/>
					</g>
				</g>
			</g>
		</g>
	</g>
	<g id="Plants">
		<g id="Plants 10 ">
			<g id="&lt;Group&gt;">
				<g id="&lt;Group&gt;">
					<path id="&lt;Path&gt;" class="s2" d="m864.3 709.3c0 0 2.7-23.4 14.3-41.5 11.6-18.1 27.6-29.4 42.5-30.6 14.9-1.2 26.9 12.5 11 21.9-16 9.4-44.3 19-57.3 54.2z"/>
					<path id="&lt;Path&gt;" class="s10" d="m864.3 709.3c0 0 2.7-23.4 14.3-41.5 11.6-18.1 27.6-29.4 42.5-30.6 14.9-1.2 26.9 12.5 11 21.9-16 9.4-44.3 19-57.3 54.2z"/>
				</g>
				<g id="&lt;Group&gt;">
					<path id="&lt;Path&gt;" class="s9" d="m868.7 703.2q-0.1 0-0.2 0c-0.4-0.2-0.6-0.6-0.4-1.1 15.7-38.7 45.6-54.8 59.3-58 0.4-0.1 0.8 0.2 0.9 0.6 0.1 0.5-0.2 0.9-0.6 1-13.3 3.1-42.7 18.9-58.1 57-0.2 0.4-0.6 0.6-0.9 0.5z"/>
				</g>
			</g>
			<g id="&lt;Group&gt;">
				<g id="&lt;Group&gt;">
					<g id="&lt;Group&gt;">
						<path id="&lt;Path&gt;" class="s2" d="m948.2 703.7c-1.3 3-4.6 4.6-7.7 5.9-3.1 1.2-6.4 2.5-8.1 5.4-3.4 5.8 2.1 14-1.5 19.6-1.5 2.4-4.3 3.7-7.1 4.2-2.3 0.4-4.6 0.4-6.9 0.6q-1.7-0.1-3.4-0.3c-3.2-0.4-6.6-0.6-9.6 1-4.6 2.6-6 8.5-8.8 13-3.4 5.3-9.3 8.9-15.6 9.7-2 0.3-5.9 0.7-8-0.5q-0.2-0.1-0.4-0.3-0.1 0-0.1 0c-0.3-0.4-0.6-0.8-0.8-1q0-0.1-0.1-0.1c-0.8-3.1 0.5-6.2 0.6-9.3q0-0.3 0-0.6-0.2-5.4-0.3-10.8-0.3-9.9-0.2-19.9c0-4.3-0.5-9 1.3-13.1 2.1-4.5 7.1-4.6 9-9 0.7-1.7 1.1-3.6 1.9-5.4 2.2-5.1 7.5-8.9 13.1-9.1 8.8-0.5 16.7 6.6 25.5 6 2.2-0.2 4.4-0.9 6.7-1.3 7.1-1.3 15.3 0.7 19.3 6.7 1.7 2.5 2.5 5.8 1.2 8.6z"/>
					</g>
				</g>
				<g id="&lt;Group&gt;">
					<path id="&lt;Path&gt;" class="s9" d="m869.4 747q0 0-0.1 0c-0.3-0.1-0.6-0.5-0.5-0.9 12.1-45.5 60.1-52.1 71.3-51.2 0.4 0 0.7 0.3 0.7 0.8-0.1 0.4-0.4 0.7-0.8 0.6-11-0.7-57.9 5.7-69.7 50.2-0.1 0.4-0.5 0.6-0.9 0.5z"/>
				</g>
				<g id="&lt;Group&gt;">
					<path id="&lt;Path&gt;" class="s9" d="m922.7 724q-0.3-0.1-0.4-0.2c-0.2-0.1-12.4-12.2-32.7-9.2-0.4 0-0.7-0.2-0.8-0.6-0.1-0.5 0.2-0.8 0.6-0.9 21.1-3.1 33.8 9.5 33.9 9.6 0.3 0.3 0.3 0.8 0 1.1-0.2 0.2-0.4 0.2-0.6 0.2z"/>
				</g>
			</g>
		</g>
	</g>
	<g id="Clouds">
		<g id="Clouds 1 ">
			<g id="&lt;Group&gt;">
				<path id="&lt;Path&gt;" class="s14" d="m754.2 160l6.4 2.5v-14.1c0-11.1 8.9-13.7 18.5-8.2 9.6 5.6 17.4 19.1 17.4 30.2v2c2.2-0.8 5-0.5 8.1 1.3 6.9 4 12.5 13.7 12.5 21.7v0.9l8.9 5.2c4.6 2.6 8.3 9 8.3 14.3 0 5.2-3.7 7.4-8.3 4.7l-71.8-41.4c-4.5-2.6-8.2-9.1-8.2-14.3 0-5.3 3.7-7.4 8.2-4.8z"/>
			</g>
			<g id="&lt;Group&gt;">
				<path id="&lt;Path&gt;" class="s14" d="m839.4 148.9l11.6 6.7q-0.1-0.8-0.1-1.5v-3.4c0-5.9 4.1-8.3 9.3-5.4 2.1 1.2 4 3.1 5.5 5.4 0.9-7.5 6.8-10.3 13.9-6.2 7.7 4.5 13.9 15.3 13.9 24.2v5c0 2.3-0.4 4.2-1.1 5.8l9.5 5.5c2.9 1.7 5.2 5.7 5.2 9 0 3.3-2.3 4.6-5.2 3l-62.5-36.1c-2.8-1.7-5.2-5.7-5.2-9 0-3.3 2.4-4.6 5.2-3z"/>
			</g>
		</g>
	</g>
	<g id="Character">
		<g id="Character 3 ">
			<g id="&lt;Group&gt;">
				<g id="&lt;Group&gt;">
					<path id="&lt;Path&gt;" class="s15" d="m794.7 452.5c-8.4 14.2-16.4 26.5-22.1 32.4-10.8 5-36.1 12.7-46 14-1.8 0.3-3.5-0.2-5-1.1-3.9-2.6-6.9-3-11-4.4-3.2-1.1-4.6-2.7-5.2-2.1-0.8 0.8-1.6 2.9 0.4 5.1 0.9 1.1 2.7 2.3 5 3.8 0 0-7 1.9-13.4 0.2-8.5-2.2-12.6 1.9-6.8 11.2 2.1 3.3 10.3 8.7 26.8 7.2 4.8-0.4 11.7-0.8 17.6-2 15.9-3.4 33.6-6.7 44.4-10 2.8-0.8 7.7-3.9 10.6-7.3 18.3-20.8 24.3-35.6 32.3-49.1l-0.7-22c-12.9-0.4-19.8 12.2-26.9 24.1z"/>
					<path id="&lt;Path&gt;" class="s12" d="m823.9 428c0 0-11.3-2.5-19.8 8.4-8.9 11.4-24.6 38.7-24.6 38.7 0 0 5.1 13.7 19 16l22.3-30.1c0 0 10.5-20.9 3.1-33z"/>
					<g id="&lt;Group&gt;">
						<path id="&lt;Path&gt;" class="s15" d="m872.1 761h-14.6v-25.9h14.6z"/>
						<path id="&lt;Path&gt;" class="s15" d="m821.7 733.7l-14.5 0.5-0.8-27.4 15.3-0.5z"/>
						<path id="&lt;Path&gt;" class="s13" d="m874.1 510.7c0 14.4-2.1 130.8-2.1 130.8 0.3 4.1 4.1 11.8 3.3 27.8-1.1 21.7-2.6 78.7-2.6 78.7 0 0-7.1 4.3-16.2 0.4 0 0-11.8-80-14.4-101.5-2.3-18.7-8.1-81-8.1-81l-7.8 73.5c0 0 2.6 11.2 1.8 24-0.7 10-5.4 61.8-5.4 61.8 0 0-6.8 4.8-16.8 1.3 0 0-8.3-78-8.4-87.1-0.2-10.4 4.8-128.9 4.8-128.9z"/>
						<path id="&lt;Path&gt;" class="s6" d="m857.5 753.5v-2.1c-1.4 0.6-4.6 13.4-10.4 18.9-4.5 4.4-10.8 9.4-12.4 14.2-1.6 5.1 8.7 7.9 13 7.1 5-0.9 13.6-4.6 15.8-8 2.1-3.3 3.2-8.3 4.9-10.8 1.8-2.5 5.8-5.3 6.8-8.1 0.5-1.6-0.1-5.1-0.8-8-0.7-2.7-1.4-5.6-2.3-5.4 0 0.4 0 1.7 0 1.7-1.1 1.2-4 2.4-7.3 2.6-2.1 0-7.3-0.4-7.3-2.1z"/>
						<path id="&lt;Path&gt;" class="s6" d="m807 729.5c-0.8 0.1-1.4 1.2-3 3.1-2 2.2-5.3 4.7-8.6 6.4-5.4 2.8-16 7.2-20.8 9.4-3 1.4-2.9 5.2 0.2 7.3 3.1 2.2 10.6 3.7 19.6 1.6 4.8-1.1 11.2-5.8 15.2-5.6 4.1 0.3 11.6 0.2 14.6-1.9 2.9-2.1 1.7-6.7 0.9-10.6-0.9-4.3-2.1-10.9-3.4-10.6v1.4c-1.8 2.8-10.8 3.9-14.6 1.9z"/>
						<path id="&lt;Path&gt;" class="s6" d="m834 565.9c0 0-11.6-3.4-20.2-12.1 0 0 3.9 7.6 15.5 14.7l-2.5 65.6z"/>
					</g>
					<g id="&lt;Group&gt;">
						<path id="&lt;Path&gt;" class="s2" d="m866 430.1c0 0 11.9 2.8 11.1 24.5l-2.5 34.5 0.1 51.8c-10.7 12.1-58.1 11.2-74.3-1 0 0 1.8-61.3 2.9-84.9 0.8-16.8 4.7-25.2 21.1-27l20.3 0.8z"/>
					</g>
					<g id="&lt;Group&gt;">
						<path id="&lt;Path&gt;" class="s6" d="m850.7 385.1c0 12.4-9.7 22.5-21.6 22.5-12 0-19.1-10.4-21.7-22.5-4.8-22.3 9.7-22.6 21.7-22.6 11.9 0 21.6 10.1 21.6 22.6z"/>
						<g id="&lt;Group&gt;">
							<path id="&lt;Path&gt;" class="s6" d="m861.8 394.2c0 0-3.4 16.2-4.7 18.9-1.3 2.7-4.1 3.4-4.1 3.4l0.3-11.4z"/>
							<path id="&lt;Path&gt;" class="s6" d="m857.6 370.9c0 0 2.4-0.6 4.9 3.4 2.2 3.4 2.7 11-0.7 19.9l-6.3 0.7z"/>
							<path id="&lt;Path&gt;" class="s6" d="m859.9 374.2l7.7 0.2c0.1-2.2-1.4-4.1-3.5-4.1-2.2 0-4 1.7-4.2 3.9z"/>
							<path id="&lt;Path&gt;" class="s6" d="m860.8 372.4l5.7-5.5c-1.4-1.6-3.8-1.7-5.4-0.2-1.5 1.5-1.7 4.1-0.3 5.7z"/>
							<path id="&lt;Path&gt;" class="s15" d="m853.6 394.9c1.3 0.8 3.1-1.7 4.6-3.4 1.6-1.7 6.4-3.2 8.9 2.3 2.6 5.6-1.7 11-5.3 12.8-6.5 3.2-8.5-1.5-8.5-1.5l-0.6 25.7c-9.1 14.1-29.7 13.6-22.2-0.7v-7.8c0 0-6.2 1-9.3 0.5-5-0.8-8.2-4.9-9.7-10.6-2.4-9.1-3.4-16.5-1.3-34.4 2.3-19.7 24.2-19.9 36.1-12.1 11.8 7.7 7.3 29.2 7.3 29.2z"/>
							<path id="&lt;Path&gt;" class="s6" d="m826.3 374.7c5.2-0.5 10.4-1.6 15.6-2 1.2-0.1 2.3-0.1 3.4 0.2 4.1 1.1 3.6 5.8 4.2 9 1.1 5.7 2 15.2 4.1 15.2 0.7 0.1 3.1-4.1 4.6-5.6 1-0.9 1.2-3 1.4-4.3 0.4-2.3 0.6-4.7 0.8-7 0.2-2 0.4-4.1 0.4-6.1-0.1-2.2 0-4.5-0.6-6.7-0.5-2-1.4-3.5-2.8-5q-0.2-0.3-0.4-0.5c-2.6-2.8-5.9-4.9-9.4-6.3-5-2.1-10.4-2.9-15.8-3.5-5.5-0.5-10.9-0.8-16.2-1.9-0.3-0.1-0.7-0.1-1 0-0.4 0.2-0.6 0.7-0.7 1.2-0.5 2.5 0.6 5.2 2.7 6.6-3.6 0.3-7.8-1.6-11.3-2.6-0.6-0.1-1.2-0.3-1.8 0-0.3 0.3-0.5 0.7-0.7 1.1-0.3 0.9-0.2 1.9-0.1 2.8 0.4 2.9 1.4 5.7 3.2 8 2.5 3.3 6.7 6.2 10.8 7.1 3.2 0.6 6.2 0.6 9.6 0.3z"/>
							<path id="&lt;Path&gt;" class="s16" d="m830.5 422.3c0 0 11.2-2.3 15.1-4.5 2.7-1.5 4.8-4 5.5-5.6 0 0-0.8 3.5-3.1 6.6-2.9 3.8-17.5 6.6-17.5 6.6z"/>
						</g>
						<g id="&lt;Group&gt;">
							<path id="&lt;Path&gt;" class="s6" d="m833.2 392c0 1.4 1 2.4 2.2 2.4 1.3 0 2.3-1.1 2.3-2.4 0-1.3-1-2.4-2.3-2.4-1.2 0-2.2 1.1-2.2 2.4z"/>
							<path id="&lt;Path&gt;" class="s6" d="m836.8 382.3l4.8 2.8c0.7-1.5 0.2-3.3-1.1-4-1.3-0.8-3-0.2-3.7 1.2z"/>
							<path id="&lt;Path&gt;" class="s16" d="m831.5 408.2l-5.2 2c0.6 1.6 2.1 2.4 3.5 1.8 1.5-0.5 2.2-2.2 1.7-3.8z"/>
							<path id="&lt;Path&gt;" class="s6" d="m812.5 384.4l4.4-3.6c-0.9-1.3-2.6-1.5-3.8-0.6-1.2 1-1.5 2.9-0.6 4.2z"/>
							<path id="&lt;Path&gt;" class="s6" d="m814.4 391.3c0 1.4 1 2.5 2.3 2.5 1.2 0 2.2-1.1 2.2-2.5 0-1.3-1-2.4-2.2-2.4-1.3 0-2.3 1.1-2.3 2.4z"/>
							<path id="&lt;Path&gt;" class="s16" d="m826.5 389.5l-0.3 14.2-8-1.9z"/>
						</g>
					</g>
				</g>
			</g>
			<g id="&lt;Group&gt;">
				<g id="&lt;Group&gt;">
					<path id="&lt;Path&gt;" class="s2" d="m634.6 508.6l12.6-7.3 4.9-6-12.5 7.2z"/>
					<path id="&lt;Path&gt;" class="s17" d="m634.6 508.6l12.6-7.3 4.9-6-12.5 7.2z"/>
				</g>
				<g id="&lt;Group&gt;">
					<path id="&lt;Path&gt;" class="s2" d="m668.7 528.2l12.6-7.2 10.4-9.3-12.5 7.3z"/>
					<path id="&lt;Path&gt;" class="s17" d="m668.7 528.2l12.6-7.2 10.4-9.3-12.5 7.3z"/>
				</g>
				<path id="&lt;Compound Path&gt;" fill-rule="evenodd" class="s2" d="m805.5 568.8c0 19.7-6.1 33.7-15.7 39.2-1.9 1.1-8.9 5.2-11.8 6.8q-0.1 0.1-0.2 0.2-0.3 0.1-0.6 0.3-0.5 0.3-1 0.5-0.6 0.3-1.2 0.6-0.5 0.2-1.1 0.4-0.7 0.3-1.5 0.4-0.5 0.1-1 0.3c-2.4 0.4-5 0.5-7.6 0q-1.2-0.2-2.4-0.5-1.4-0.4-2.7-0.9-2.4-0.9-4.9-2.4c-12.8-7.4-24.2-23.5-31.3-42.3q-0.3-0.7-0.5-1.4-2.5-6.5-4.1-13.4l-21.5-12.4-4.4-17.8-12.8-7.4-10.5 9.2-8.3-4.8-7.6-13-13.2-7.9-5 6.1-14.9-8.7-15.2-32v-4.7l2.1-1.2v-1.7l-1-0.5-1.1-0.6v-8l12.5-7.2 103.1 59.4q0.5-1 1-1.9 1.1-1.9 2.3-3.5 0.6-0.9 1.3-1.6 0.5-0.6 1-1.2c0.2-0.1 0.3-0.3 0.4-0.4q1.3-1.2 2.8-2.2 0.7-0.5 1.5-1 0.3-0.2 0.6-0.4c2.8-1.6 9.9-5.6 11.8-6.8 6.6-3.8 14.7-3.6 23.6 1.5 18.3 10.6 33.8 39 38 67.7 0.7 5.1 1.1 10.2 1.1 15.2zm-25.1-1.9c-0.4-5-2.4-10.2-5.2-13.7 0.5 5 2.5 10.2 5.2 13.7z"/>
				<path id="&lt;Compound Path&gt;" fill-rule="evenodd" class="s2" d="m793 576c0 19.3-5.9 33.1-15 38.8q-0.1 0.1-0.2 0.2-0.3 0.1-0.6 0.3-0.5 0.3-1 0.5-0.6 0.3-1.2 0.6-0.5 0.2-1.1 0.4-0.7 0.3-1.5 0.4-0.5 0.1-1 0.3c-2.4 0.4-5 0.5-7.6 0q-1.2-0.2-2.4-0.5-1.4-0.4-2.7-0.9-2.4-0.9-4.9-2.4c-12.8-7.4-24.2-23.5-31.3-42.3q-0.3-0.7-0.5-1.4-2.5-6.5-4.1-13.4l-21.5-12.4-4.4-17.8-12.8-7.4-10.5 9.2-8.3-4.8-7.6-13-13.2-7.9-5 6.1-14.9-8.7-15.2-32v-4.7l2.1-1.2v-1.7l-1-0.5-1.1-0.6v-8l111.6 64.4c0.9-4.6 2.3-8.7 4-12.2q0.5-1 1-1.9 1.1-1.9 2.3-3.5 0.6-0.9 1.3-1.6 0.5-0.6 1-1.2c0.2-0.1 0.3-0.3 0.4-0.4q1.3-1.2 2.8-2.2 0.7-0.5 1.5-1 0.3-0.2 0.6-0.4c6.4-3.3 14.3-3 22.8 1.9 18.4 10.6 33.8 39 38 67.7 0.8 5.1 1.2 10.2 1.2 15.2zm-12.5-7.2c0-7.6-4-16.1-8.9-18.9-5-2.9-9 1-9 8.6 0 7.6 4 16.1 9 18.9 4.9 2.9 8.9-1 8.9-8.6z"/>
				<path id="&lt;Path&gt;" class="s17" d="m780.5 568.8c0 7.6-4 11.5-8.9 8.6-5-2.8-9-11.3-9-18.9 0-7.6 4-11.5 9-8.6 1.3 0.7 2.5 1.9 3.6 3.3 0.5 5 2.5 10.2 5.2 13.7q0.1 1 0.1 1.9z"/>
				<path id="&lt;Path&gt;" class="s18" d="m805.5 568.8c0 19.7-6.1 33.7-15.7 39.2-1.9 1.1-8.9 5.2-11.8 6.8 9.1-5.7 15-19.5 15-38.8 0-5-0.4-10.1-1.2-15.2-4.2-28.7-19.6-57.1-38-67.7-8.5-4.9-16.4-5.2-22.8-1.9 2.8-1.6 9.9-5.6 11.8-6.8 6.6-3.8 14.7-3.6 23.6 1.5 18.3 10.6 33.8 39 38 67.7 0.7 5.1 1.1 10.2 1.1 15.2z"/>
				<g id="&lt;Group&gt;">
					<path id="&lt;Path&gt;" class="s2" d="m793 576c0 19.3-5.9 33.1-15 38.8 2.9-1.6 9.9-5.7 11.8-6.8 9.6-5.5 15.7-19.5 15.7-39.2q0-1.1 0-2.2c-4.3 2.5-8.7 5-12.5 7.2q0 1.1 0 2.2z"/>
					<path id="&lt;Path&gt;" class="s10" d="m793 576c0 19.3-5.9 33.1-15 38.8 2.9-1.6 9.9-5.7 11.8-6.8 9.6-5.5 15.7-19.5 15.7-39.2q0-1.1 0-2.2c-4.3 2.5-8.7 5-12.5 7.2q0 1.1 0 2.2z"/>
				</g>
				<g id="&lt;Group&gt;">
					<path id="&lt;Path&gt;" class="s10" d="m716.6 523.8v4.1l-112.1-64.7 2.1-1.2v-1.7z"/>
					<path id="&lt;Path&gt;" class="s10" d="m716.6 525.5v2.4l-112.1-64.7 2.1-1.2z"/>
				</g>
				<path id="&lt;Path&gt;" class="s19" d="m721.2 534.6c0 27.7 14.6 58.6 32.6 69 18 10.4 32.6-3.6 32.6-31.4 0-27.7-14.6-58.6-32.6-69-18-10.4-32.6 3.7-32.6 31.4z"/>
				<path id="&lt;Path&gt;" class="s18" d="m720.1 503.4c-1.7 3.5-3.1 7.6-4 12.2l-111.6-64.4 12.5-7.2z"/>
			</g>
			<g id="&lt;Group&gt;">
				<path id="&lt;Path&gt;" class="s15" d="m865 509.7c5.9-11.1 12.5-35.9 15.9-48.4 4.7-17.8-3-29-11.6-29.5-5.5 0.8-23.3 65.8-23.3 65.8-2 1.6-29.2 15.3-37.9 18.8-1.5 0.6-3.3 0.6-4.8 0-4.2-1.5-7.1-1.2-11.2-1.6-3.2-0.4-4.8-1.5-5.2-0.8-0.5 0.9-0.8 3.1 1.6 4.7 1.1 0.8 3.1 1.6 5.6 2.5 0 0-4.7 1.6-10.9 1.4-8.4-0.2-11.4 3.5-4.9 12 4.1 5.3 10.7 7 25.4 1.9 4.3-1.5 10-4.3 15.4-6.3 11.1-4 14-4.5 22.5-7.3 12.3-4.2 20.8-8.3 23.4-13.2z"/>
				<path id="&lt;Path&gt;" class="s12" d="m866 430.1c5.1 0.7 10 1.9 13 6 3 4.1 5.4 9.9 2.5 25.9-3 16-9.1 33-9.1 33 0 0-11.9 5-24.5-7.8l8.7-33.6c0 0 1.5-21.8 9.4-23.5z"/>
			</g>
		</g>
	</g>
</svg>