<svg version="1.2" xmlns="http://www.w3.org/2000/svg" viewBox="0 0 1000 1000" width="1000" height="1000">
	<title>3293464-ai</title>
	<style>
		.s0 { fill: #ebebeb } 
		.s1 { fill: #e6e6e6 } 
		.s2 { fill: #f0f0f0 } 
		.s3 { fill: #ffffff } 
		.s4 { fill: #e0e0e0 } 
		.s5 { fill: #f5f5f5 } 
		.s6 { fill: #fafafa } 
		.s7 { fill: #407bff } 
		.s8 { opacity: .9;fill: #ffffff } 
		.s9 { opacity: .3;fill: #ffffff } 
		.s10 { opacity: .6;fill: #407bff } 
		.s11 { fill: #263238 } 
		.s12 { fill: #ff8b7b } 
		.s13 { fill: #ff5652 } 
		.s14 { opacity: .2;fill: #000000 } 
		.s15 { opacity: .4;fill: #000000 } 
		.s16 { opacity: .3;fill: #000000 } 
		.s17 { opacity: .3;fill: #407bff } 
	</style>
	<g id="Background Complete">
		<g id="&lt;Group&gt;">
			<path id="&lt;Path&gt;" class="s0" d="m1000 765.3h-1000v-0.5h1000z"/>
			<path id="&lt;Path&gt;" class="s0" d="m580.4 778.9h50.9v-0.5h-50.9z"/>
			<path id="&lt;Path&gt;" class="s0" d="m790.2 789.7h120.7v-0.5h-120.7z"/>
			<path id="&lt;Path&gt;" class="s0" d="m444.9 779.2h124.7v-0.5h-124.7z"/>
			<path id="&lt;Path&gt;" class="s0" d="m338 794.1h26.1v-0.5h-26.1z"/>
			<path id="&lt;Path&gt;" class="s0" d="m389.4 794.1h118.8v-0.5h-118.8z"/>
			<path id="&lt;Path&gt;" class="s0" d="m104.9 785.7h76.9v-0.5h-76.9z"/>
			<path id="&lt;Compound Path&gt;" fill-rule="evenodd" class="s0" d="m474 675.6h-386.2c-6.3 0-11.4-5.1-11.4-11.4v-542.9c0-6.3 5.1-11.4 11.4-11.4h386.2c6.3 0 11.4 5.1 11.4 11.4v542.9c0 6.3-5.1 11.4-11.4 11.4zm-386.2-565.2c-6 0-10.9 4.9-10.9 10.9v542.9c0 6 4.9 10.9 10.9 10.9h386.2c6 0 10.9-4.9 10.9-10.9v-542.9c0-6-4.9-10.9-10.9-10.9z"/>
			<path id="&lt;Compound Path&gt;" fill-rule="evenodd" class="s0" d="m906.6 675.6h-386.2c-6.3 0-11.4-5.1-11.4-11.4v-542.9c0-6.3 5.1-11.4 11.4-11.4h386.2c6.3 0 11.4 5.1 11.4 11.4v542.9c0 6.3-5.1 11.4-11.4 11.4zm-386.2-565.2c-6 0-10.9 4.9-10.9 10.9v542.9c0 6 4.9 10.9 10.9 10.9h386.2c6 0 10.9-4.9 10.9-10.9v-542.9c0-6-4.9-10.9-10.9-10.9z"/>
		</g>
		<g id="&lt;Group&gt;">
			<g id="&lt;Group&gt;">
				<g id="&lt;Group&gt;">
					<path id="&lt;Path&gt;" class="s1" d="m391.9 591.3h-132.8l-8-93h132.8z"/>
					<path id="&lt;Path&gt;" class="s2" d="m398.8 591.3h-132.8l-8.1-93h132.8z"/>
					<path id="&lt;Path&gt;" class="s3" d="m284.2 571.4l-4.5-53.1h92.9l4.4 53.1z"/>
				</g>
				<g id="&lt;Group&gt;">
					<path id="&lt;Path&gt;" class="s1" d="m421.8 764.8h-15.6v-173.5h15.6z"/>
					<path id="&lt;Path&gt;" class="s2" d="m426.7 764.8h-10.8v-173.5h10.8z"/>
					<path id="&lt;Path&gt;" class="s2" d="m275.9 610.5h150.8v-19.2h-150.8z"/>
					<path id="&lt;Path&gt;" class="s1" d="m281.2 764.8h-15.6v-154.3h15.6z"/>
					<path id="&lt;Path&gt;" class="s2" d="m286.1 764.8h-10.8v-154.3h10.8z"/>
					<path id="&lt;Path&gt;" class="s1" d="m170.3 764.8h-15.6v-154.3h15.6z"/>
					<path id="&lt;Path&gt;" class="s2" d="m175.2 764.8h-10.8v-154.3h10.8z"/>
					<path id="&lt;Path&gt;" class="s1" d="m323.2 764.8h-15.6v-154.3h15.6z"/>
					<path id="&lt;Path&gt;" class="s2" d="m328.1 764.8h-10.8v-154.3h10.8z"/>
					<path id="&lt;Path&gt;" class="s1" d="m275.9 610.5h-121.2v-19.2h121.2z"/>
				</g>
			</g>
			<g id="&lt;Group&gt;">
				<g id="&lt;Group&gt;">
					<path id="&lt;Path&gt;" class="s4" d="m727.7 419.7h-468.7v-260.9h468.7z"/>
					<path id="&lt;Path&gt;" class="s5" d="m753.4 419.7h-492v-260.9h492z"/>
					<path id="&lt;Path&gt;" class="s3" d="m745.4 411.7v-244.8h-476v244.8z"/>
					<path id="&lt;Path&gt;" class="s5" d="m462.1 411.7l89.9-244.8h-148.3l-89.9 244.8z"/>
					<path id="&lt;Path&gt;" class="s5" d="m604.9 411.7l89.8-244.8h-111.8l-89.9 244.8z"/>
				</g>
			</g>
			<g id="&lt;Group&gt;">
				<g id="&lt;Group&gt;">
					<path id="&lt;Path&gt;" class="s1" d="m876.2 764.8h-39.8v-249.2h39.8z"/>
					<path id="&lt;Path&gt;" class="s6" d="m865.7 764.8h10.5v-19.2h-21.4z"/>
					<path id="&lt;Path&gt;" class="s1" d="m508.9 764.8h-39.8v-249.2h39.8z"/>
					<path id="&lt;Path&gt;" class="s6" d="m876.2 759.6h-376.4v-244h376.4z"/>
					<path id="&lt;Compound Path&gt;" fill-rule="evenodd" class="s1" d="m869.1 594.3h-362.2v-68.9h362.2zm-360.2-2h358.2v-64.9h-358.2z"/>
					<path id="&lt;Compound Path&gt;" fill-rule="evenodd" class="s1" d="m805.3 558.9h-227.6c-10.6 0-20.8-8.5-27.9-23.4l-0.7-1.4h284.8l-0.6 1.4c-7.2 14.9-17.4 23.4-28 23.4zm-253-22.8c6.7 13.2 16 20.8 25.4 20.8h227.6c9.5 0 18.7-7.6 25.4-20.8z"/>
					<path id="&lt;Path&gt;" class="s6" d="m510.2 764.8h-10.4v-19.2h21.4z"/>
					<path id="&lt;Compound Path&gt;" fill-rule="evenodd" class="s1" d="m869.1 672.1h-362.2v-68.9h362.2zm-360.2-2h358.2v-65h-358.2z"/>
					<path id="&lt;Compound Path&gt;" fill-rule="evenodd" class="s1" d="m805.3 636.6h-227.6c-10.6 0-20.8-8.5-27.9-23.4l-0.7-1.4h284.8l-0.6 1.4c-7.2 14.9-17.4 23.4-28 23.4zm-253-22.8c6.7 13.2 16 20.8 25.4 20.8h227.6c9.5 0 18.7-7.6 25.4-20.8z"/>
					<path id="&lt;Compound Path&gt;" fill-rule="evenodd" class="s1" d="m869.1 749.8h-362.2v-68.9h362.2zm-360.2-2h358.2v-64.9h-358.2z"/>
					<path id="&lt;Compound Path&gt;" fill-rule="evenodd" class="s1" d="m805.3 714.3h-227.6c-10.6 0-20.8-8.5-27.9-23.3l-0.7-1.5h284.8l-0.6 1.5c-7.2 14.8-17.4 23.3-28 23.3zm-253-22.8c6.7 13.3 16 20.8 25.4 20.8h227.6c9.5 0 18.7-7.5 25.4-20.8z"/>
				</g>
			</g>
			<g id="&lt;Group&gt;">
				<path id="&lt;Path&gt;" class="s1" d="m242 548.6v4.8h-3.1l-2.6 37.9h-37.7l-2.5-37.9h-3.1v-4.8z"/>
				<path id="&lt;Path&gt;" class="s1" d="m229.6 454.4c-3.1-22.6-33.6-29-72.3-29.9-36.8-0.7-48.6-13.8-48.6-13.8 0 0 0.1 52.8 53.1 71.9 50.4 18.1 70.9-5.5 67.8-28.2z"/>
				<path id="&lt;Path&gt;" class="s1" d="m210.8 505.6c0.6-9.2 15.4-26.3 51.1-18.6 25.8 5.7 35.4-7.7 35.4-7.7 0 0-2.4 37.7-41.2 49.1-36.8 10.8-46.5-6.4-45.3-22.8z"/>
				<path id="&lt;Path&gt;" class="s1" d="m218.9 562.8c0.4 0 0.8-0.2 1.1-0.5 2.5-3 0.4-10.4-2.5-20.5-3.8-13-8.4-29.2-4.5-40.9 2.3-6.7 5-12.5 7.7-18.2 5.6-11.8 10.4-22.1 6.4-32.8-0.3-0.7-1.1-1-1.8-0.8-0.7 0.3-1 1.1-0.8 1.8 3.6 9.6-0.7 18.9-6.3 30.6-2.6 5.5-5.5 11.7-7.8 18.5-4.2 12.5 0.6 29.2 4.4 42.6 2.3 7.9 4.7 16 3.1 17.9-0.5 0.6-0.5 1.5 0.1 2q0.4 0.3 0.9 0.3z"/>
			</g>
		</g>
	</g>
	<g id="Background Simple">
		<g id="&lt;Group&gt;">
			<path id="&lt;Path&gt;" class="s7" d="m803.7 348.6c-13.6 108.5-108.6 216.7-213.1 286.5-270.1 181.6-531-126.6-465.2-237.3 49.5-112.3 203.6-81.5 269.2-125.6 368.6-249.8 421.9-14.3 409.1 76.4z"/>
			<path id="&lt;Path&gt;" class="s8" d="m803.7 348.6c-13.6 108.5-108.6 216.7-213.1 286.5-270.1 181.6-531-126.6-465.2-237.3 49.5-112.3 203.6-81.5 269.2-125.6 368.6-249.8 421.9-14.3 409.1 76.4z"/>
		</g>
	</g>
	<g id="Shadow">
		<path id="&lt;Path&gt; 191 " class="s5" d="m887.8 832.5c0 12.5-173.6 22.6-387.8 22.6-214.2 0-387.8-10.1-387.8-22.6 0-12.5 173.6-22.7 387.8-22.7 214.2 0 387.8 10.2 387.8 22.7z"/>
	</g>
	<g id="Login">
		<g id="&lt;Group&gt;">
			<path id="&lt;Path&gt;" class="s7" d="m499.9 722.1h-284l-15.5-456.7h284z"/>
			<g id="&lt;Group&gt;">
				<path id="&lt;Path&gt;" class="s7" d="m514.1 707.9h-284l-15.6-456.7h284z"/>
				<path id="&lt;Path&gt;" class="s9" d="m514.1 707.9h-284l-15.6-456.7h284z"/>
			</g>
			<g id="&lt;Group&gt;">
				<path id="&lt;Path&gt;" class="s7" d="m440.9 382.2c1.5 44.1-33.1 79.9-77.2 79.9-44.1 0-81.1-35.8-82.6-79.9-1.5-44.1 33.1-79.9 77.2-79.9 44.1 0 81.1 35.8 82.6 79.9z"/>
				<path id="&lt;Path&gt;" class="s3" d="m426.9 382.2c0.4 11.4-2.1 22.1-6.9 31.4-10.4 20.5-31.7 34.5-56.8 34.5-25 0-47.3-14-59.1-34.5-5.4-9.3-8.6-20-9-31.4-1.3-36.4 27.2-66 63.7-66 36.4 0 66.9 29.6 68.1 66z"/>
				<path id="&lt;Path&gt;" class="s10" d="m420 413.6c-10.4 20.5-31.7 34.5-56.8 34.5-25 0-47.3-14-59.1-34.5 16.2-11.1 35.9-17.6 57.4-17.6 21.4 0 41.6 6.5 58.5 17.6z"/>
				<path id="&lt;Path&gt;" class="s10" d="m389.6 359.6c0.6 16.2-12.1 29.4-28.4 29.4-16.2 0-29.8-13.2-30.3-29.4-0.6-16.2 12.1-29.3 28.3-29.3 16.3 0 29.9 13.1 30.4 29.3z"/>
			</g>
			<path id="&lt;Path&gt;" class="s3" d="m457 542.5h-181.1l-1.2-36h181.1z"/>
			<path id="&lt;Path&gt;" class="s3" d="m459.2 606.9h-181.1l-1.3-36h181.2z"/>
			<path id="&lt;Compound Path&gt;" fill-rule="evenodd" class="s7" d="m393.2 578.5l5.7 29.3c0.4 1.7-0.8 3.4-2.6 3.6l-43.7 6c-1.8 0.2-3.5-1-3.8-2.8l-5.8-29.2c-0.3-1.8 0.9-3.4 2.7-3.6l43.6-6c1.8-0.2 3.6 1 3.9 2.7zm-19.3 17.8c1.3-1.2 1.9-2.9 1.6-4.7-0.6-2.8-3.4-4.8-6.4-4.4-2.9 0.4-4.8 3-4.3 5.9 0.4 1.8 1.6 3.2 3.3 4l0.8 9.4 7.9-1z"/>
			<path id="&lt;Path&gt;" class="s7" d="m385 574.2c-1.6 0.3-3.1-0.8-3.4-2.4l-0.6-2.8c-1.5-7.9-9.1-13.9-17.2-13.2-8.8 0.8-14.6 8.5-13 16.8l0.7 3.3c0.3 1.6-0.8 3-2.4 3.2-1.6 0.2-3.1-0.8-3.4-2.4l-0.5-2.8c-2.2-11 4.7-21.5 15.9-23.5 11.8-2 23.4 5.9 25.6 17.4l0.6 3.2c0.3 1.6-0.7 3-2.3 3.2z"/>
			<path id="&lt;Path&gt;" class="s7" d="m429.3 657.3h-117.9l-0.8-23.5h117.9z"/>
			<path id="&lt;Path&gt;" class="s11" d="m372.4 524.5c0.2 3.7-2.7 6.6-6.3 6.6-3.7 0-6.7-2.9-6.8-6.6-0.2-3.6 2.7-6.6 6.3-6.6 3.7 0 6.7 3 6.8 6.6z"/>
			<path id="&lt;Path&gt;" class="s11" d="m344.1 524.5c0.1 3.7-2.7 6.6-6.4 6.6-3.6 0-6.7-2.9-6.8-6.6-0.1-3.6 2.7-6.6 6.4-6.6 3.6 0 6.7 3 6.8 6.6z"/>
			<path id="&lt;Path&gt;" class="s11" d="m315.7 524.5c0.2 3.7-2.7 6.6-6.3 6.6-3.7 0-6.7-2.9-6.8-6.6-0.1-3.6 2.7-6.6 6.3-6.6 3.7 0 6.7 3 6.8 6.6z"/>
			<path id="&lt;Path&gt;" class="s11" d="m400.8 524.5c0.1 3.7-2.7 6.6-6.4 6.6-3.6 0-6.7-2.9-6.8-6.6-0.1-3.6 2.7-6.6 6.4-6.6 3.6 0 6.7 3 6.8 6.6z"/>
			<path id="&lt;Path&gt;" class="s11" d="m429.1 524.5c0.2 3.7-2.7 6.6-6.3 6.6-3.7 0-6.7-2.9-6.8-6.6-0.2-3.6 2.7-6.6 6.3-6.6 3.7 0 6.7 3 6.8 6.6z"/>
		</g>
	</g>
	<g id="Character">
		<g id="&lt;Group&gt;">
			<path id="&lt;Path&gt;" class="s12" d="m667.8 348.6c2.7 4.2 4.9 8.3 7.2 12.6 2.3 4.2 4.3 8.5 6.3 12.9 4 8.8 7.6 17.8 10.2 27.5 0.4 1.1 0.7 2.4 1 3.6l0.4 1.9 0.2 0.9 0.3 1.5c0.5 4.1 0 7.4-0.6 10.3-1.5 5.9-3.8 10.5-6.3 14.9-5 8.8-10.9 16.3-17.7 23.4l-8.5-6.4c4.2-7.9 8.3-16.1 11.3-24.1 1.5-3.9 2.7-7.9 3.1-11.2 0.1-1.6 0-3-0.2-3.6l-0.8-2.4c-0.3-1-0.6-2-1-3-2.9-8.1-6.6-16.2-10.5-24.2-4-7.9-8.3-16.1-12.6-23.6z"/>
			<path id="&lt;Path&gt;" class="s12" d="m662.5 448.9l-9.2 4.8 10.5 12.4c0 0 6.6-4.5 6.9-11.3z"/>
			<path id="&lt;Path&gt;" class="s12" d="m640.9 461.3l11.3 9 11.6-4.2-10.5-12.4z"/>
			<path id="&lt;Path&gt;" class="s11" d="m602.3 283.1c-0.2 1.1-1 1.9-1.7 1.8-0.8-0.2-1.2-1.2-0.9-2.3 0.2-1.1 1-1.9 1.7-1.8 0.7 0.2 1.1 1.2 0.9 2.3z"/>
			<path id="&lt;Path&gt;" class="s13" d="m601.4 285c0 0-3.8 5.9-7.2 8.5 1.6 2.2 5.1 2.1 5.1 2.1z"/>
			<path id="&lt;Path&gt;" class="s12" d="m597.8 324.3l0.1-13.1 17.3 2.1c0 0-0.2 11.2-9.9 14.6z"/>
			<path id="&lt;Path&gt;" class="s12" d="m602.8 301.7l12.2 3.5 0.2 8.1-17.3-2.1z"/>
			<path id="&lt;Path&gt;" class="s14" d="m615 305.2l-12.2-3.5-2.4 4.6c0.3 7.7 5 14.1 11.3 16.9 3.4-4.4 3.5-9.9 3.5-9.9z"/>
			<path id="&lt;Path&gt;" class="s11" d="m607.6 277.8q0.3 0 0.5-0.2c0.3-0.2 0.3-0.7 0-0.9-2.5-2.7-5.5-2.3-5.7-2.2-0.3 0-0.6 0.4-0.5 0.7 0.1 0.4 0.4 0.6 0.8 0.6 0.1 0 2.4-0.4 4.4 1.8q0.2 0.2 0.5 0.2z"/>
			<path id="&lt;Path&gt;" class="s12" d="m633.2 303.4c-2 10.3-3.3 24.5 3.9 31.4 0 0-2.8 10.4-21.9 10.4-21 0-10.1-9.1-10.1-9.1 8.7-2.8 8.7-12.7 6.7-20.7z"/>
			<path id="&lt;Path&gt;" class="s7" d="m641.1 341.7c1.9-2.7 1.8-11.1-0.2-12.5-3.2-2.4-17.1-3-35.7 1.3 2.1 8.1-2.2 12.4-2.2 12.4z"/>
			<path id="&lt;Compound Path&gt;" fill-rule="evenodd" class="s7" d="m703.6 816.5c-1.4 0.3-2.8 0.4-3.5-0.2-0.3-0.3-0.6-0.7-0.3-1.6q0.2-0.6 0.8-0.9c1.9-1 6.3 0.8 6.5 0.9 0.1 0.1 0.2 0.2 0.2 0.3 0 0.1-0.1 0.3-0.2 0.3-0.7 0.3-2.1 0.9-3.5 1.2zm-2.3-2.3q-0.2 0.1-0.4 0.2-0.4 0.1-0.5 0.5c-0.2 0.6 0 0.8 0.1 0.9 0.8 0.6 3.6 0 5.6-0.8-1.4-0.4-3.5-1-4.8-0.8z"/>
			<path id="&lt;Compound Path&gt;" fill-rule="evenodd" class="s7" d="m707 815.3q-0.1 0.1-0.1 0c-1.6-0.4-5-2.9-5.1-4.4 0-0.3 0.1-0.9 0.9-1.1q0.7-0.3 1.4 0.1c1.9 1 3.1 4.8 3.2 5q0 0.2-0.1 0.3-0.1 0.1-0.2 0.1zm-4-4.9q0 0-0.1 0c-0.4 0.1-0.4 0.3-0.4 0.4 0 1 2.3 2.9 3.9 3.6-0.4-1.1-1.3-3.3-2.6-3.9q-0.4-0.2-0.8-0.1z"/>
			<path id="&lt;Compound Path&gt;" fill-rule="evenodd" class="s7" d="m599.7 818.8c-1.8 0-3.5-0.2-4.1-1-0.2-0.3-0.4-0.8 0-1.5q0.4-0.6 1.1-0.8c2.3-0.6 7.2 2.2 7.4 2.3 0.2 0.1 0.2 0.2 0.2 0.4 0 0.1-0.1 0.2-0.3 0.2-0.9 0.2-2.6 0.4-4.3 0.4zm-2.2-2.7q-0.4 0-0.6 0.1-0.5 0.1-0.7 0.4c-0.2 0.5-0.1 0.7-0.1 0.8 0.7 0.9 4.2 0.9 6.9 0.5-1.3-0.6-3.9-1.8-5.5-1.8z"/>
			<path id="&lt;Compound Path&gt;" fill-rule="evenodd" class="s7" d="m604 818.4q-0.1 0-0.2 0c-1.7-0.7-5-3.8-4.8-5.4 0.1-0.4 0.4-0.8 1.3-0.9q1-0.1 1.8 0.6c1.8 1.4 2.2 5.2 2.2 5.4q0 0.2-0.1 0.3-0.1 0-0.2 0zm-3.5-5.7q-0.1 0-0.2 0.1c-0.6 0-0.6 0.2-0.6 0.3-0.2 1 2.1 3.4 3.9 4.4-0.2-1.1-0.7-3.4-1.9-4.3q-0.5-0.5-1.2-0.5z"/>
			<path id="&lt;Path&gt;" class="s12" d="m619.4 818.1h-14l-1.4-32.6h14z"/>
			<path id="&lt;Path&gt;" class="s12" d="m722.7 811.6l-13.8 3-13.8-30.4 13.8-2.9z"/>
			<path id="&lt;Path&gt;" class="s11" d="m707.6 813.2l15.5-3.3c0.5-0.2 1.1 0.1 1.3 0.6l5.4 11.7c0.6 1.2-0.2 2.6-1.5 2.9-5.4 1-8.1 1.3-14.9 2.7-4.1 1-13.6 3.3-19.4 4.5-5.6 1.2-7.7-4.3-5.5-5.3 10.1-4.6 14.3-8.7 17.1-12.5 0.5-0.7 1.2-1.1 2-1.3z"/>
			<path id="&lt;Path&gt;" class="s11" d="m605.5 816.5h15.3c0.6 0 1.1 0.4 1.2 0.9l2.8 12.5c0.3 1.3-0.7 2.6-2 2.6-5.6-0.1-13.6-0.5-20.5-0.5-8.2 0-15.2 0.5-24.8 0.5-5.7 0-7.3-5.9-4.9-6.4 11-2.4 20-2.7 29.5-8.5 1-0.7 2.2-1.1 3.4-1.1z"/>
			<g id="&lt;Group&gt;">
				<path id="&lt;Path&gt;" class="s7" d="m662.3 338c13.2 3 24.1 36.6 24.1 36.6l-26.5 20.2c0 0-9.7-9.1-14-26-4.6-17.6 3-33.9 16.4-30.8z"/>
				<path id="&lt;Path&gt;" class="s15" d="m662.3 338c13.2 3 24.1 36.6 24.1 36.6l-26.5 20.2c0 0-9.7-9.1-14-26-4.6-17.6 3-33.9 16.4-30.8z"/>
			</g>
			<path id="&lt;Path&gt;" class="s12" d="m593 378.1c-3.3 3.6-6.6 6.7-10 10q-2.5 2.4-5.1 4.7l-2.7 2.4-0.7 0.6c-0.3 0.2-0.7 0.6-1.1 0.9-0.9 0.6-1.8 1.4-3.9 2.3-1 0.4-2.4 0.9-4.8 1-1.2 0-2.7-0.2-4.2-0.8-1.6-0.5-3-1.5-4-2.5-2.1-2.1-2.8-4-3.2-5.2-0.4-1.3-0.5-2.2-0.5-3-0.2-1.5-0.1-2.6 0-3.5 0.1-1 0.2-1.8 0.4-2.6 0.6-3.1 1.4-5.6 2.3-8.1 0.9-2.5 1.9-4.8 3.1-7.2 1.3-2.6 2.5-4.4 3.7-6.5 5-8.3 10.8-15.8 16.9-23 6.3-7 12.9-13.5 20.5-19.4l7.4 7.6c-5.2 6.9-10.3 14.3-15 21.6-4.7 7.4-9 14.9-12.8 22.5-0.8 1.9-1.9 4-2.5 5.5-0.7 1.8-1.3 3.6-1.9 5.4-0.5 1.8-0.9 3.7-1.1 5.1 0 0.3-0.1 0.6-0.1 0.8 0 0.1 0.1 0.2 0-0.2 0-0.2 0-0.6-0.2-1.3-0.3-0.7-0.6-2-2.3-3.7-0.8-0.8-2.1-1.7-3.3-2.1-1.2-0.5-2.5-0.6-3.4-0.6-1.8 0-2.7 0.4-3.2 0.6-1 0.4-1 0.5-1 0.5l0.8-0.7 2.4-2.2 4.8-4.5c3.1-3 6.3-6.2 9.3-9.1z"/>
			<path id="&lt;Path&gt;" class="s14" d="m651 362.7c7.2 7.1 9.5 20 10.1 31.2l-1.2 0.9c0 0-9.7-9.1-14-26q-0.4-1.6-0.7-3.1z"/>
			<g id="&lt;Group&gt;">
				<path id="&lt;Path&gt;" class="s7" d="m579 352.1c-2.9 15.2-4.7 46.4 3.7 108.2h75.2c0.6-11.6-6.7-67.9 4.4-122.3 0 0-12.9-2.6-25.2-3.2-9.6-0.5-23.5-0.8-31.9 0-3.6 0.3-7 0.8-10.1 1.4-8.2 1.4-14.5 7.8-16.1 15.9z"/>
				<path id="&lt;Path&gt;" class="s15" d="m579 352.1c-2.9 15.2-4.7 46.4 3.7 108.2h75.2c0.6-11.6-6.7-67.9 4.4-122.3 0 0-12.9-2.6-25.2-3.2-9.6-0.5-23.5-0.8-31.9 0-3.6 0.3-7 0.8-10.1 1.4-8.2 1.4-14.5 7.8-16.1 15.9z"/>
			</g>
			<path id="&lt;Path&gt;" class="s14" d="m590.5 374.5l-13.6-3.2c-0.4 8.2-0.4 18.4 0.2 31 6.2-7.1 14.2-18.2 13.4-27.8z"/>
			<g id="&lt;Group&gt;">
				<path id="&lt;Path&gt;" class="s14" d="m604 785.5l0.7 16.8h14.1l-0.7-16.8z"/>
				<path id="&lt;Path&gt;" class="s14" d="m708.9 781.3l-13.8 2.9 7.2 15.7 13.7-3z"/>
			</g>
			<path id="&lt;Path&gt;" class="s12" d="m639.9 288.3c-3.6 13.5-5.1 21.6-13.4 27.2-12.5 8.4-28.1-1.3-28.6-15.6-0.4-12.8 5.6-32.7 20-35.4 14.3-2.7 25.6 10.3 22 23.8z"/>
			<path id="&lt;Path&gt;" class="s11" d="m608.3 288.8c-0.7-1.8-3.8-15.7-0.9-19.3 3-3.7 36.3-1.1 41.2 3.8 8.2 8 2.5 15.2-6.5 24.5-6.7 6.9-6.9 14.8-10.3 15.9-6 2-15.2 0.1-17-6.2-1.9-6.3-6.5-18.7-6.5-18.7z"/>
			<path id="&lt;Path&gt;" class="s11" d="m644.5 257.4c-11.7-5-33.8 0.6-45.7-2.3-0.4 6.2 3.3 16.1 15.2 18.7 0 0 16.9 3.3 30 2.8 13.1-0.5 10.5-14.9 0.5-19.2z"/>
			<path id="&lt;Path&gt;" class="s11" d="m646.4 273.7c0 0 7.3 0.8 12.4-2.4 2.2 5.4-9.9 6.8-12.4 2.4z"/>
			<path id="&lt;Path&gt;" class="s12" d="m614.7 289.4c-0.2 3.6-1.9 7.1-3.9 9.3-3.1 3.4-6.3 1.3-6.9-2.8-0.4-3.7 0.6-10 4.3-11.8 3.7-1.9 6.8 1.1 6.5 5.3z"/>
			<path id="&lt;Path&gt;" class="s7" d="m609.4 460.3c0 0 15.9 107.5 24.7 147.8 9.6 44.1 61.1 190 61.1 190l25.2-5.5c0 0-36-118.9-44.1-180.5-6.2-47.4-18.4-151.8-18.4-151.8z"/>
			<path id="&lt;Path&gt;" class="s11" d="m689.1 789.7c-0.1 0 4.7 9.1 4.7 9.1l28.4-6.1-2.4-8.6z"/>
			<path id="&lt;Path&gt;" class="s16" d="m619.5 498.6c18.4 3.6 16.5 72.4 14.3 107.9-5.4-25.1-13.2-73.2-18.5-107.4 1.2-0.6 2.6-0.8 4.2-0.5z"/>
			<path id="&lt;Path&gt;" class="s7" d="m582.7 460.3c0 0-1.9 105.2-0.4 148.1 1.6 44.6 17.2 190.7 17.2 190.7h23.8c0 0 0.9-143.5 1.9-187.3 1.2-47.8 6.9-151.5 6.9-151.5z"/>
			<path id="&lt;Path&gt;" class="s11" d="m594.9 789.6c-0.1 0 1.3 9.9 1.3 9.9h29l0.8-8.8z"/>
			<g id="&lt;Group&gt;">
				<path id="&lt;Path&gt;" class="s7" d="m608.5 356.7c6.7 18.2-32.9 39.6-32.9 39.6l-17.1-22.1c0 0 11.4-22.8 25.5-33 17.3-12.7 19.4 1.6 24.5 15.5z"/>
				<path id="&lt;Path&gt;" class="s15" d="m608.5 356.7c6.7 18.2-32.9 39.6-32.9 39.6l-17.1-22.1c0 0 11.4-22.8 25.5-33 17.3-12.7 19.4 1.6 24.5 15.5z"/>
			</g>
		</g>
	</g>
	<g id="Thinking">
		<g id="&lt;Group&gt;">
			<path id="&lt;Path&gt;" class="s7" d="m835.9 172.7c0 25.4-32.3 46-72.2 46-39.8 0-72.1-20.6-72.1-46 0-25.4 32.3-46 72.1-46 39.9 0 72.2 20.6 72.2 46z"/>
			<path id="&lt;Compound Path&gt;" fill-rule="evenodd" class="s3" d="m737.7 195.8c-4 0-7.9-1.2-11.3-3.5-4.6-3.1-7.6-7.8-8.6-13.3-1.8-10.4 5.2-20.8 15.5-23.1 8.4-1.9 17 1.7 21.6 9l46.3-9.5c3.8-0.8 7.6 1.4 8.5 5 0.5 1.8 0.2 3.8-0.8 5.4-1 1.7-2.6 2.8-4.5 3.2l-1.2 0.2c-0.4 0.1-0.7 0.3-0.9 0.6-0.1 0.4-0.2 0.7 0 1.1l0.8 2.1c0.5 1.4 0 3.1-1.3 3.9-0.9 0.6-1.6 1.6-1.7 2.8-0.2 1.4-1.2 2.5-2.5 2.8l-0.9 0.2c-1.3 0.2-2.6-0.4-3.3-1.6-0.9-1.5-2.5-2.2-4.2-1.9-1.6 0.4-2.8 1.7-3 3.4-0.2 1.4-1.2 2.5-2.4 2.7l-1 0.2c-1.3 0.3-2.6-0.3-3.3-1.6-0.6-1-1.6-1.7-2.8-1.9-1.5-0.2-2.6-1.5-2.6-3l-0.1-2.3c0-0.3-0.2-0.7-0.5-0.9q-0.4-0.3-1-0.2l-14.8 3c-1.2 8.4-7.5 15.1-15.9 16.8q-2 0.4-4.1 0.4zm-4-37.9c-9.3 2.1-15.5 11.4-13.9 20.8 0.9 4.9 3.6 9.1 7.7 11.9 4.1 2.9 9 3.8 13.9 2.8 7.8-1.6 13.5-7.9 14.4-15.7l0.1-0.8 16.2-3.3c0.9-0.2 1.9 0 2.6 0.6 0.8 0.6 1.2 1.5 1.3 2.4l0.1 2.3c0 0.6 0.4 1.1 0.9 1.2 1.8 0.2 3.3 1.3 4.2 2.8 0.3 0.4 0.7 0.8 1.2 0.7l0.9-0.2c0.6-0.1 0.8-0.6 0.9-1.1 0.3-2.5 2.2-4.5 4.6-5 2.5-0.6 5 0.6 6.3 2.8 0.2 0.3 0.6 0.7 1.2 0.6l0.9-0.2c0.6-0.1 0.8-0.6 0.9-1 0.2-1.8 1.2-3.4 2.7-4.3 0.4-0.3 0.6-0.9 0.4-1.5l-0.8-2.1c-0.3-0.9-0.3-1.9 0.2-2.7 0.4-0.8 1.2-1.4 2.2-1.6l1.2-0.3c1.3-0.3 2.5-1.1 3.2-2.2 0.7-1.2 0.9-2.6 0.6-3.9-0.7-2.5-3.4-4.1-6.2-3.6l-47.7 9.9-0.4-0.6c-4-7-11.9-10.5-19.8-8.7zm4 30.5c-2.5 0-4.9-0.7-7-2.1-2.9-1.9-4.8-4.7-5.5-8.1-0.7-3.4 0-6.8 1.8-9.6 1.9-2.9 4.8-4.8 8.2-5.5 3.3-0.7 6.7-0.1 9.6 1.8 2.8 1.9 4.8 4.8 5.5 8.1 0.7 3.4 0 6.8-1.9 9.7-1.8 2.8-4.7 4.8-8.1 5.5q-1.3 0.2-2.6 0.2zm0.1-23.6q-1.1 0-2.2 0.2c-2.9 0.6-5.3 2.3-6.9 4.7-1.6 2.4-2.1 5.3-1.5 8.1 0.5 2.8 2.2 5.3 4.6 6.8 2.4 1.6 5.3 2.2 8.1 1.6 2.9-0.6 5.3-2.2 6.9-4.6 1.6-2.5 2.1-5.3 1.5-8.2-0.6-2.8-2.2-5.2-4.6-6.8-1.8-1.2-3.8-1.8-5.9-1.8z"/>
			<path id="&lt;Path&gt;" class="s10" d="m728.7 230.5c0 8.4-10.6 15.1-23.7 15.1-13.1 0-23.7-6.7-23.7-15.1 0-8.3 10.6-15.1 23.7-15.1 13.1 0 23.7 6.8 23.7 15.1z"/>
			<path id="&lt;Path&gt;" class="s17" d="m677 245.6c0 3.5-4.4 6.2-9.7 6.2-5.4 0-9.8-2.7-9.8-6.2 0-3.4 4.4-6.2 9.8-6.2 5.3 0 9.7 2.8 9.7 6.2z"/>
		</g>
	</g>
</svg>